G04 MADE WITH FRITZING*
G04 WWW.FRITZING.ORG*
G04 DOUBLE SIDED*
G04 HOLES PLATED*
G04 CONTOUR ON CENTER OF CONTOUR VECTOR*
%ASAXBY*%
%FSLAX23Y23*%
%MOIN*%
%OFA0B0*%
%SFA1.0B1.0*%
%ADD10C,0.010000*%
%ADD11C,0.005000*%
%ADD12R,0.001000X0.001000*%
%LNSILK1*%
G90*
G70*
G54D10*
X625Y266D02*
X2025Y266D01*
D02*
X2025Y266D02*
X2025Y666D01*
D02*
X2025Y666D02*
X625Y666D01*
D02*
X625Y266D02*
X625Y416D01*
D02*
X625Y516D02*
X625Y666D01*
D02*
X550Y190D02*
X550Y240D01*
D02*
X550Y240D02*
X600Y240D01*
D02*
X600Y240D02*
X600Y190D01*
D02*
X600Y190D02*
X550Y190D01*
D02*
X625Y166D02*
X2025Y166D01*
D02*
X2025Y166D02*
X2025Y266D01*
D02*
X2025Y266D02*
X625Y266D01*
D02*
X625Y266D02*
X625Y166D01*
G54D11*
D02*
X660Y166D02*
X625Y201D01*
G54D10*
D02*
X625Y666D02*
X2025Y666D01*
D02*
X2025Y666D02*
X2025Y766D01*
D02*
X2025Y766D02*
X625Y766D01*
D02*
X625Y766D02*
X625Y666D01*
G54D11*
D02*
X660Y666D02*
X625Y701D01*
G54D10*
D02*
X2075Y566D02*
X2175Y566D01*
D02*
X2075Y466D02*
X2175Y466D01*
D02*
X274Y302D02*
X353Y302D01*
D02*
X195Y105D02*
X195Y272D01*
D02*
X431Y105D02*
X431Y272D01*
D02*
X274Y66D02*
X353Y66D01*
D02*
X294Y184D02*
X333Y184D01*
D02*
X313Y203D02*
X313Y164D01*
D02*
X75Y796D02*
X75Y196D01*
D02*
X75Y196D02*
X175Y196D01*
D02*
X175Y196D02*
X175Y796D01*
D02*
X175Y796D02*
X75Y796D01*
G54D11*
D02*
X75Y761D02*
X110Y796D01*
G54D12*
X0Y858D02*
X2226Y858D01*
X0Y857D02*
X2226Y857D01*
X0Y856D02*
X2226Y856D01*
X0Y855D02*
X2226Y855D01*
X0Y854D02*
X2226Y854D01*
X0Y853D02*
X2226Y853D01*
X0Y852D02*
X2226Y852D01*
X0Y851D02*
X2226Y851D01*
X0Y850D02*
X7Y850D01*
X2219Y850D02*
X2226Y850D01*
X0Y849D02*
X7Y849D01*
X2219Y849D02*
X2226Y849D01*
X0Y848D02*
X7Y848D01*
X2219Y848D02*
X2226Y848D01*
X0Y847D02*
X7Y847D01*
X2219Y847D02*
X2226Y847D01*
X0Y846D02*
X7Y846D01*
X2219Y846D02*
X2226Y846D01*
X0Y845D02*
X7Y845D01*
X2219Y845D02*
X2226Y845D01*
X0Y844D02*
X7Y844D01*
X2219Y844D02*
X2226Y844D01*
X0Y843D02*
X7Y843D01*
X2219Y843D02*
X2226Y843D01*
X0Y842D02*
X7Y842D01*
X2219Y842D02*
X2226Y842D01*
X0Y841D02*
X7Y841D01*
X2219Y841D02*
X2226Y841D01*
X0Y840D02*
X7Y840D01*
X2219Y840D02*
X2226Y840D01*
X0Y839D02*
X7Y839D01*
X2219Y839D02*
X2226Y839D01*
X0Y838D02*
X7Y838D01*
X2219Y838D02*
X2226Y838D01*
X0Y837D02*
X7Y837D01*
X2219Y837D02*
X2226Y837D01*
X0Y836D02*
X7Y836D01*
X2219Y836D02*
X2226Y836D01*
X0Y835D02*
X7Y835D01*
X2219Y835D02*
X2226Y835D01*
X0Y834D02*
X7Y834D01*
X2219Y834D02*
X2226Y834D01*
X0Y833D02*
X7Y833D01*
X2219Y833D02*
X2226Y833D01*
X0Y832D02*
X7Y832D01*
X2219Y832D02*
X2226Y832D01*
X0Y831D02*
X7Y831D01*
X2219Y831D02*
X2226Y831D01*
X0Y830D02*
X7Y830D01*
X2219Y830D02*
X2226Y830D01*
X0Y829D02*
X7Y829D01*
X2219Y829D02*
X2226Y829D01*
X0Y828D02*
X7Y828D01*
X2219Y828D02*
X2226Y828D01*
X0Y827D02*
X7Y827D01*
X2219Y827D02*
X2226Y827D01*
X0Y826D02*
X7Y826D01*
X2219Y826D02*
X2226Y826D01*
X0Y825D02*
X7Y825D01*
X2219Y825D02*
X2226Y825D01*
X0Y824D02*
X7Y824D01*
X2219Y824D02*
X2226Y824D01*
X0Y823D02*
X7Y823D01*
X2219Y823D02*
X2226Y823D01*
X0Y822D02*
X7Y822D01*
X2219Y822D02*
X2226Y822D01*
X0Y821D02*
X7Y821D01*
X2219Y821D02*
X2226Y821D01*
X0Y820D02*
X7Y820D01*
X2219Y820D02*
X2226Y820D01*
X0Y819D02*
X7Y819D01*
X2219Y819D02*
X2226Y819D01*
X0Y818D02*
X7Y818D01*
X2219Y818D02*
X2226Y818D01*
X0Y817D02*
X7Y817D01*
X2219Y817D02*
X2226Y817D01*
X0Y816D02*
X7Y816D01*
X2219Y816D02*
X2226Y816D01*
X0Y815D02*
X7Y815D01*
X2219Y815D02*
X2226Y815D01*
X0Y814D02*
X7Y814D01*
X2219Y814D02*
X2226Y814D01*
X0Y813D02*
X7Y813D01*
X2219Y813D02*
X2226Y813D01*
X0Y812D02*
X7Y812D01*
X2219Y812D02*
X2226Y812D01*
X0Y811D02*
X7Y811D01*
X2219Y811D02*
X2226Y811D01*
X0Y810D02*
X7Y810D01*
X2219Y810D02*
X2226Y810D01*
X0Y809D02*
X7Y809D01*
X2219Y809D02*
X2226Y809D01*
X0Y808D02*
X7Y808D01*
X2219Y808D02*
X2226Y808D01*
X0Y807D02*
X7Y807D01*
X2219Y807D02*
X2226Y807D01*
X0Y806D02*
X7Y806D01*
X2219Y806D02*
X2226Y806D01*
X0Y805D02*
X7Y805D01*
X2219Y805D02*
X2226Y805D01*
X0Y804D02*
X7Y804D01*
X2219Y804D02*
X2226Y804D01*
X0Y803D02*
X7Y803D01*
X2219Y803D02*
X2226Y803D01*
X0Y802D02*
X7Y802D01*
X2219Y802D02*
X2226Y802D01*
X0Y801D02*
X7Y801D01*
X2219Y801D02*
X2226Y801D01*
X0Y800D02*
X7Y800D01*
X2219Y800D02*
X2226Y800D01*
X0Y799D02*
X7Y799D01*
X2082Y799D02*
X2084Y799D01*
X2110Y799D02*
X2112Y799D01*
X2132Y799D02*
X2150Y799D01*
X2219Y799D02*
X2226Y799D01*
X0Y798D02*
X7Y798D01*
X2081Y798D02*
X2085Y798D01*
X2108Y798D02*
X2113Y798D01*
X2131Y798D02*
X2150Y798D01*
X2219Y798D02*
X2226Y798D01*
X0Y797D02*
X7Y797D01*
X2080Y797D02*
X2086Y797D01*
X2108Y797D02*
X2113Y797D01*
X2131Y797D02*
X2150Y797D01*
X2219Y797D02*
X2226Y797D01*
X0Y796D02*
X7Y796D01*
X2080Y796D02*
X2086Y796D01*
X2108Y796D02*
X2114Y796D01*
X2130Y796D02*
X2150Y796D01*
X2219Y796D02*
X2226Y796D01*
X0Y795D02*
X7Y795D01*
X2080Y795D02*
X2086Y795D01*
X2108Y795D02*
X2114Y795D01*
X2130Y795D02*
X2150Y795D01*
X2219Y795D02*
X2226Y795D01*
X0Y794D02*
X7Y794D01*
X2080Y794D02*
X2086Y794D01*
X2108Y794D02*
X2114Y794D01*
X2131Y794D02*
X2150Y794D01*
X2219Y794D02*
X2226Y794D01*
X0Y793D02*
X7Y793D01*
X2080Y793D02*
X2086Y793D01*
X2108Y793D02*
X2114Y793D01*
X2132Y793D02*
X2150Y793D01*
X2219Y793D02*
X2226Y793D01*
X0Y792D02*
X7Y792D01*
X2080Y792D02*
X2086Y792D01*
X2108Y792D02*
X2114Y792D01*
X2144Y792D02*
X2150Y792D01*
X2219Y792D02*
X2226Y792D01*
X0Y791D02*
X7Y791D01*
X2080Y791D02*
X2086Y791D01*
X2107Y791D02*
X2114Y791D01*
X2144Y791D02*
X2150Y791D01*
X2219Y791D02*
X2226Y791D01*
X0Y790D02*
X7Y790D01*
X2080Y790D02*
X2087Y790D01*
X2107Y790D02*
X2114Y790D01*
X2144Y790D02*
X2150Y790D01*
X2219Y790D02*
X2226Y790D01*
X0Y789D02*
X7Y789D01*
X2080Y789D02*
X2088Y789D01*
X2106Y789D02*
X2114Y789D01*
X2144Y789D02*
X2150Y789D01*
X2219Y789D02*
X2226Y789D01*
X0Y788D02*
X7Y788D01*
X2081Y788D02*
X2089Y788D01*
X2105Y788D02*
X2113Y788D01*
X2144Y788D02*
X2150Y788D01*
X2219Y788D02*
X2226Y788D01*
X0Y787D02*
X7Y787D01*
X2081Y787D02*
X2089Y787D01*
X2104Y787D02*
X2112Y787D01*
X2144Y787D02*
X2150Y787D01*
X2219Y787D02*
X2226Y787D01*
X0Y786D02*
X7Y786D01*
X2082Y786D02*
X2090Y786D01*
X2104Y786D02*
X2112Y786D01*
X2144Y786D02*
X2150Y786D01*
X2219Y786D02*
X2226Y786D01*
X0Y785D02*
X7Y785D01*
X2083Y785D02*
X2091Y785D01*
X2103Y785D02*
X2111Y785D01*
X2144Y785D02*
X2150Y785D01*
X2219Y785D02*
X2226Y785D01*
X0Y784D02*
X7Y784D01*
X2084Y784D02*
X2092Y784D01*
X2102Y784D02*
X2110Y784D01*
X2144Y784D02*
X2150Y784D01*
X2219Y784D02*
X2226Y784D01*
X0Y783D02*
X7Y783D01*
X2085Y783D02*
X2092Y783D01*
X2101Y783D02*
X2109Y783D01*
X2144Y783D02*
X2150Y783D01*
X2219Y783D02*
X2226Y783D01*
X0Y782D02*
X7Y782D01*
X2085Y782D02*
X2093Y782D01*
X2101Y782D02*
X2108Y782D01*
X2144Y782D02*
X2150Y782D01*
X2219Y782D02*
X2226Y782D01*
X0Y781D02*
X7Y781D01*
X2086Y781D02*
X2094Y781D01*
X2100Y781D02*
X2108Y781D01*
X2144Y781D02*
X2150Y781D01*
X2219Y781D02*
X2226Y781D01*
X0Y780D02*
X7Y780D01*
X2087Y780D02*
X2095Y780D01*
X2099Y780D02*
X2107Y780D01*
X2144Y780D02*
X2150Y780D01*
X2219Y780D02*
X2226Y780D01*
X0Y779D02*
X7Y779D01*
X2088Y779D02*
X2096Y779D01*
X2098Y779D02*
X2106Y779D01*
X2144Y779D02*
X2150Y779D01*
X2219Y779D02*
X2226Y779D01*
X0Y778D02*
X7Y778D01*
X2088Y778D02*
X2105Y778D01*
X2144Y778D02*
X2150Y778D01*
X2219Y778D02*
X2226Y778D01*
X0Y777D02*
X7Y777D01*
X2089Y777D02*
X2105Y777D01*
X2144Y777D02*
X2150Y777D01*
X2219Y777D02*
X2226Y777D01*
X0Y776D02*
X7Y776D01*
X2090Y776D02*
X2104Y776D01*
X2144Y776D02*
X2150Y776D01*
X2219Y776D02*
X2226Y776D01*
X0Y775D02*
X7Y775D01*
X2091Y775D02*
X2103Y775D01*
X2144Y775D02*
X2150Y775D01*
X2219Y775D02*
X2226Y775D01*
X0Y774D02*
X7Y774D01*
X2092Y774D02*
X2102Y774D01*
X2144Y774D02*
X2150Y774D01*
X2219Y774D02*
X2226Y774D01*
X0Y773D02*
X7Y773D01*
X2092Y773D02*
X2101Y773D01*
X2144Y773D02*
X2150Y773D01*
X2219Y773D02*
X2226Y773D01*
X0Y772D02*
X7Y772D01*
X2093Y772D02*
X2101Y772D01*
X2144Y772D02*
X2150Y772D01*
X2219Y772D02*
X2226Y772D01*
X0Y771D02*
X7Y771D01*
X239Y771D02*
X252Y771D01*
X259Y771D02*
X262Y771D01*
X280Y771D02*
X284Y771D01*
X293Y771D02*
X305Y771D01*
X327Y771D02*
X331Y771D01*
X341Y771D02*
X352Y771D01*
X2094Y771D02*
X2100Y771D01*
X2144Y771D02*
X2150Y771D01*
X2219Y771D02*
X2226Y771D01*
X0Y770D02*
X7Y770D01*
X238Y770D02*
X253Y770D01*
X258Y770D02*
X263Y770D01*
X279Y770D02*
X284Y770D01*
X292Y770D02*
X307Y770D01*
X327Y770D02*
X332Y770D01*
X339Y770D02*
X354Y770D01*
X2094Y770D02*
X2100Y770D01*
X2144Y770D02*
X2150Y770D01*
X2219Y770D02*
X2226Y770D01*
X0Y769D02*
X7Y769D01*
X237Y769D02*
X255Y769D01*
X258Y769D02*
X263Y769D01*
X279Y769D02*
X285Y769D01*
X291Y769D02*
X308Y769D01*
X326Y769D02*
X332Y769D01*
X337Y769D02*
X355Y769D01*
X2094Y769D02*
X2100Y769D01*
X2144Y769D02*
X2150Y769D01*
X2159Y769D02*
X2163Y769D01*
X2219Y769D02*
X2226Y769D01*
X0Y768D02*
X7Y768D01*
X235Y768D02*
X263Y768D01*
X279Y768D02*
X285Y768D01*
X289Y768D02*
X309Y768D01*
X326Y768D02*
X332Y768D01*
X336Y768D02*
X356Y768D01*
X2094Y768D02*
X2100Y768D01*
X2144Y768D02*
X2150Y768D01*
X2158Y768D02*
X2163Y768D01*
X2219Y768D02*
X2226Y768D01*
X0Y767D02*
X7Y767D01*
X234Y767D02*
X263Y767D01*
X279Y767D02*
X285Y767D01*
X288Y767D02*
X309Y767D01*
X326Y767D02*
X332Y767D01*
X334Y767D02*
X356Y767D01*
X2094Y767D02*
X2100Y767D01*
X2144Y767D02*
X2150Y767D01*
X2158Y767D02*
X2164Y767D01*
X2219Y767D02*
X2226Y767D01*
X0Y766D02*
X7Y766D01*
X234Y766D02*
X263Y766D01*
X279Y766D02*
X285Y766D01*
X287Y766D02*
X310Y766D01*
X326Y766D02*
X357Y766D01*
X2094Y766D02*
X2100Y766D01*
X2144Y766D02*
X2150Y766D01*
X2158Y766D02*
X2164Y766D01*
X2219Y766D02*
X2226Y766D01*
X0Y765D02*
X7Y765D01*
X233Y765D02*
X241Y765D01*
X250Y765D02*
X263Y765D01*
X279Y765D02*
X295Y765D01*
X303Y765D02*
X310Y765D01*
X326Y765D02*
X342Y765D01*
X350Y765D02*
X357Y765D01*
X2094Y765D02*
X2100Y765D01*
X2144Y765D02*
X2150Y765D01*
X2158Y765D02*
X2164Y765D01*
X2219Y765D02*
X2226Y765D01*
X0Y764D02*
X7Y764D01*
X232Y764D02*
X240Y764D01*
X251Y764D02*
X263Y764D01*
X279Y764D02*
X294Y764D01*
X304Y764D02*
X310Y764D01*
X326Y764D02*
X341Y764D01*
X351Y764D02*
X357Y764D01*
X2094Y764D02*
X2100Y764D01*
X2144Y764D02*
X2150Y764D01*
X2158Y764D02*
X2164Y764D01*
X2219Y764D02*
X2226Y764D01*
X0Y763D02*
X7Y763D01*
X232Y763D02*
X239Y763D01*
X253Y763D02*
X263Y763D01*
X279Y763D02*
X293Y763D01*
X305Y763D02*
X311Y763D01*
X326Y763D02*
X339Y763D01*
X352Y763D02*
X358Y763D01*
X2094Y763D02*
X2100Y763D01*
X2144Y763D02*
X2150Y763D01*
X2158Y763D02*
X2164Y763D01*
X2219Y763D02*
X2226Y763D01*
X0Y762D02*
X7Y762D01*
X232Y762D02*
X238Y762D01*
X254Y762D02*
X263Y762D01*
X279Y762D02*
X292Y762D01*
X305Y762D02*
X311Y762D01*
X326Y762D02*
X338Y762D01*
X352Y762D02*
X358Y762D01*
X2094Y762D02*
X2100Y762D01*
X2144Y762D02*
X2150Y762D01*
X2158Y762D02*
X2164Y762D01*
X2219Y762D02*
X2226Y762D01*
X0Y761D02*
X7Y761D01*
X232Y761D02*
X237Y761D01*
X255Y761D02*
X263Y761D01*
X279Y761D02*
X290Y761D01*
X305Y761D02*
X311Y761D01*
X326Y761D02*
X336Y761D01*
X352Y761D02*
X358Y761D01*
X2094Y761D02*
X2100Y761D01*
X2144Y761D02*
X2150Y761D01*
X2158Y761D02*
X2164Y761D01*
X2219Y761D02*
X2226Y761D01*
X0Y760D02*
X7Y760D01*
X232Y760D02*
X237Y760D01*
X256Y760D02*
X263Y760D01*
X279Y760D02*
X289Y760D01*
X305Y760D02*
X311Y760D01*
X326Y760D02*
X334Y760D01*
X352Y760D02*
X358Y760D01*
X2094Y760D02*
X2100Y760D01*
X2144Y760D02*
X2150Y760D01*
X2158Y760D02*
X2164Y760D01*
X2219Y760D02*
X2226Y760D01*
X0Y759D02*
X7Y759D01*
X232Y759D02*
X237Y759D01*
X257Y759D02*
X263Y759D01*
X279Y759D02*
X288Y759D01*
X305Y759D02*
X310Y759D01*
X326Y759D02*
X333Y759D01*
X352Y759D02*
X358Y759D01*
X2094Y759D02*
X2100Y759D01*
X2144Y759D02*
X2150Y759D01*
X2158Y759D02*
X2164Y759D01*
X2219Y759D02*
X2226Y759D01*
X0Y758D02*
X7Y758D01*
X232Y758D02*
X237Y758D01*
X257Y758D02*
X263Y758D01*
X279Y758D02*
X287Y758D01*
X306Y758D02*
X310Y758D01*
X326Y758D02*
X332Y758D01*
X352Y758D02*
X358Y758D01*
X2094Y758D02*
X2100Y758D01*
X2144Y758D02*
X2150Y758D01*
X2158Y758D02*
X2164Y758D01*
X2219Y758D02*
X2226Y758D01*
X0Y757D02*
X7Y757D01*
X232Y757D02*
X237Y757D01*
X258Y757D02*
X263Y757D01*
X279Y757D02*
X286Y757D01*
X308Y757D02*
X308Y757D01*
X326Y757D02*
X332Y757D01*
X352Y757D02*
X358Y757D01*
X2094Y757D02*
X2100Y757D01*
X2144Y757D02*
X2150Y757D01*
X2158Y757D02*
X2164Y757D01*
X2219Y757D02*
X2226Y757D01*
X0Y756D02*
X7Y756D01*
X232Y756D02*
X237Y756D01*
X258Y756D02*
X263Y756D01*
X279Y756D02*
X285Y756D01*
X326Y756D02*
X332Y756D01*
X352Y756D02*
X358Y756D01*
X2094Y756D02*
X2100Y756D01*
X2144Y756D02*
X2150Y756D01*
X2158Y756D02*
X2164Y756D01*
X2219Y756D02*
X2226Y756D01*
X0Y755D02*
X7Y755D01*
X232Y755D02*
X237Y755D01*
X258Y755D02*
X263Y755D01*
X279Y755D02*
X285Y755D01*
X326Y755D02*
X332Y755D01*
X352Y755D02*
X358Y755D01*
X2094Y755D02*
X2100Y755D01*
X2144Y755D02*
X2150Y755D01*
X2158Y755D02*
X2164Y755D01*
X2219Y755D02*
X2226Y755D01*
X0Y754D02*
X7Y754D01*
X232Y754D02*
X237Y754D01*
X258Y754D02*
X263Y754D01*
X279Y754D02*
X285Y754D01*
X326Y754D02*
X332Y754D01*
X352Y754D02*
X358Y754D01*
X2094Y754D02*
X2100Y754D01*
X2144Y754D02*
X2150Y754D01*
X2158Y754D02*
X2164Y754D01*
X2219Y754D02*
X2226Y754D01*
X0Y753D02*
X7Y753D01*
X232Y753D02*
X237Y753D01*
X258Y753D02*
X263Y753D01*
X279Y753D02*
X285Y753D01*
X326Y753D02*
X332Y753D01*
X352Y753D02*
X358Y753D01*
X2094Y753D02*
X2100Y753D01*
X2144Y753D02*
X2150Y753D01*
X2158Y753D02*
X2164Y753D01*
X2219Y753D02*
X2226Y753D01*
X0Y752D02*
X7Y752D01*
X232Y752D02*
X237Y752D01*
X258Y752D02*
X263Y752D01*
X279Y752D02*
X285Y752D01*
X326Y752D02*
X332Y752D01*
X352Y752D02*
X358Y752D01*
X2094Y752D02*
X2100Y752D01*
X2133Y752D02*
X2164Y752D01*
X2219Y752D02*
X2226Y752D01*
X0Y751D02*
X7Y751D01*
X232Y751D02*
X237Y751D01*
X257Y751D02*
X263Y751D01*
X279Y751D02*
X285Y751D01*
X326Y751D02*
X332Y751D01*
X352Y751D02*
X358Y751D01*
X2094Y751D02*
X2100Y751D01*
X2131Y751D02*
X2164Y751D01*
X2219Y751D02*
X2226Y751D01*
X0Y750D02*
X7Y750D01*
X232Y750D02*
X237Y750D01*
X257Y750D02*
X263Y750D01*
X279Y750D02*
X285Y750D01*
X326Y750D02*
X332Y750D01*
X352Y750D02*
X358Y750D01*
X2094Y750D02*
X2100Y750D01*
X2131Y750D02*
X2164Y750D01*
X2219Y750D02*
X2226Y750D01*
X0Y749D02*
X7Y749D01*
X232Y749D02*
X237Y749D01*
X256Y749D02*
X263Y749D01*
X279Y749D02*
X285Y749D01*
X326Y749D02*
X332Y749D01*
X352Y749D02*
X358Y749D01*
X2094Y749D02*
X2100Y749D01*
X2130Y749D02*
X2164Y749D01*
X2219Y749D02*
X2226Y749D01*
X0Y748D02*
X7Y748D01*
X232Y748D02*
X237Y748D01*
X254Y748D02*
X263Y748D01*
X279Y748D02*
X285Y748D01*
X326Y748D02*
X332Y748D01*
X352Y748D02*
X358Y748D01*
X2094Y748D02*
X2100Y748D01*
X2130Y748D02*
X2164Y748D01*
X2219Y748D02*
X2226Y748D01*
X0Y747D02*
X7Y747D01*
X232Y747D02*
X238Y747D01*
X253Y747D02*
X263Y747D01*
X279Y747D02*
X285Y747D01*
X326Y747D02*
X332Y747D01*
X352Y747D02*
X358Y747D01*
X2094Y747D02*
X2099Y747D01*
X2131Y747D02*
X2163Y747D01*
X2219Y747D02*
X2226Y747D01*
X0Y746D02*
X7Y746D01*
X232Y746D02*
X239Y746D01*
X252Y746D02*
X263Y746D01*
X279Y746D02*
X285Y746D01*
X326Y746D02*
X332Y746D01*
X352Y746D02*
X358Y746D01*
X2095Y746D02*
X2099Y746D01*
X2132Y746D02*
X2163Y746D01*
X2219Y746D02*
X2226Y746D01*
X0Y745D02*
X7Y745D01*
X232Y745D02*
X240Y745D01*
X251Y745D02*
X263Y745D01*
X279Y745D02*
X285Y745D01*
X326Y745D02*
X332Y745D01*
X352Y745D02*
X358Y745D01*
X2219Y745D02*
X2226Y745D01*
X0Y744D02*
X7Y744D01*
X233Y744D02*
X263Y744D01*
X279Y744D02*
X285Y744D01*
X326Y744D02*
X332Y744D01*
X352Y744D02*
X358Y744D01*
X2219Y744D02*
X2226Y744D01*
X0Y743D02*
X7Y743D01*
X234Y743D02*
X263Y743D01*
X279Y743D02*
X285Y743D01*
X326Y743D02*
X332Y743D01*
X352Y743D02*
X358Y743D01*
X2219Y743D02*
X2226Y743D01*
X0Y742D02*
X7Y742D01*
X235Y742D02*
X263Y742D01*
X279Y742D02*
X285Y742D01*
X326Y742D02*
X332Y742D01*
X352Y742D02*
X358Y742D01*
X2219Y742D02*
X2226Y742D01*
X0Y741D02*
X7Y741D01*
X236Y741D02*
X256Y741D01*
X258Y741D02*
X263Y741D01*
X279Y741D02*
X285Y741D01*
X326Y741D02*
X332Y741D01*
X352Y741D02*
X358Y741D01*
X2219Y741D02*
X2226Y741D01*
X0Y740D02*
X7Y740D01*
X237Y740D02*
X254Y740D01*
X258Y740D02*
X263Y740D01*
X279Y740D02*
X285Y740D01*
X326Y740D02*
X332Y740D01*
X352Y740D02*
X358Y740D01*
X2219Y740D02*
X2226Y740D01*
X0Y739D02*
X7Y739D01*
X238Y739D02*
X253Y739D01*
X258Y739D02*
X263Y739D01*
X279Y739D02*
X285Y739D01*
X326Y739D02*
X332Y739D01*
X352Y739D02*
X358Y739D01*
X2219Y739D02*
X2226Y739D01*
X0Y738D02*
X7Y738D01*
X240Y738D02*
X251Y738D01*
X258Y738D02*
X263Y738D01*
X279Y738D02*
X285Y738D01*
X326Y738D02*
X332Y738D01*
X352Y738D02*
X358Y738D01*
X2219Y738D02*
X2226Y738D01*
X0Y737D02*
X7Y737D01*
X258Y737D02*
X263Y737D01*
X279Y737D02*
X284Y737D01*
X327Y737D02*
X332Y737D01*
X352Y737D02*
X357Y737D01*
X2219Y737D02*
X2226Y737D01*
X0Y736D02*
X7Y736D01*
X258Y736D02*
X263Y736D01*
X280Y736D02*
X284Y736D01*
X327Y736D02*
X331Y736D01*
X353Y736D02*
X357Y736D01*
X2219Y736D02*
X2226Y736D01*
X0Y735D02*
X7Y735D01*
X258Y735D02*
X263Y735D01*
X281Y735D02*
X283Y735D01*
X328Y735D02*
X330Y735D01*
X354Y735D02*
X356Y735D01*
X2219Y735D02*
X2226Y735D01*
X0Y734D02*
X7Y734D01*
X258Y734D02*
X263Y734D01*
X2219Y734D02*
X2226Y734D01*
X0Y733D02*
X7Y733D01*
X258Y733D02*
X263Y733D01*
X2219Y733D02*
X2226Y733D01*
X0Y732D02*
X7Y732D01*
X257Y732D02*
X263Y732D01*
X2219Y732D02*
X2226Y732D01*
X0Y731D02*
X7Y731D01*
X257Y731D02*
X263Y731D01*
X2219Y731D02*
X2226Y731D01*
X0Y730D02*
X7Y730D01*
X256Y730D02*
X263Y730D01*
X2219Y730D02*
X2226Y730D01*
X0Y729D02*
X7Y729D01*
X255Y729D02*
X262Y729D01*
X2219Y729D02*
X2226Y729D01*
X0Y728D02*
X7Y728D01*
X254Y728D02*
X262Y728D01*
X2219Y728D02*
X2226Y728D01*
X0Y727D02*
X7Y727D01*
X237Y727D02*
X261Y727D01*
X2219Y727D02*
X2226Y727D01*
X0Y726D02*
X7Y726D01*
X235Y726D02*
X260Y726D01*
X2219Y726D02*
X2226Y726D01*
X0Y725D02*
X7Y725D01*
X235Y725D02*
X259Y725D01*
X2219Y725D02*
X2226Y725D01*
X0Y724D02*
X7Y724D01*
X235Y724D02*
X258Y724D01*
X2219Y724D02*
X2226Y724D01*
X0Y723D02*
X7Y723D01*
X235Y723D02*
X257Y723D01*
X2219Y723D02*
X2226Y723D01*
X0Y722D02*
X7Y722D01*
X235Y722D02*
X256Y722D01*
X2219Y722D02*
X2226Y722D01*
X0Y721D02*
X7Y721D01*
X237Y721D02*
X253Y721D01*
X2219Y721D02*
X2226Y721D01*
X0Y720D02*
X7Y720D01*
X2219Y720D02*
X2226Y720D01*
X0Y719D02*
X7Y719D01*
X2219Y719D02*
X2226Y719D01*
X0Y718D02*
X7Y718D01*
X2219Y718D02*
X2226Y718D01*
X0Y717D02*
X7Y717D01*
X2219Y717D02*
X2226Y717D01*
X0Y716D02*
X7Y716D01*
X2219Y716D02*
X2226Y716D01*
X0Y715D02*
X7Y715D01*
X2219Y715D02*
X2226Y715D01*
X0Y714D02*
X7Y714D01*
X2219Y714D02*
X2226Y714D01*
X0Y713D02*
X7Y713D01*
X2219Y713D02*
X2226Y713D01*
X0Y712D02*
X7Y712D01*
X2219Y712D02*
X2226Y712D01*
X0Y711D02*
X7Y711D01*
X2219Y711D02*
X2226Y711D01*
X0Y710D02*
X7Y710D01*
X2219Y710D02*
X2226Y710D01*
X0Y709D02*
X7Y709D01*
X2219Y709D02*
X2226Y709D01*
X0Y708D02*
X7Y708D01*
X2219Y708D02*
X2226Y708D01*
X0Y707D02*
X7Y707D01*
X2219Y707D02*
X2226Y707D01*
X0Y706D02*
X7Y706D01*
X2219Y706D02*
X2226Y706D01*
X0Y705D02*
X7Y705D01*
X2219Y705D02*
X2226Y705D01*
X0Y704D02*
X7Y704D01*
X2219Y704D02*
X2226Y704D01*
X0Y703D02*
X7Y703D01*
X2219Y703D02*
X2226Y703D01*
X0Y702D02*
X7Y702D01*
X2219Y702D02*
X2226Y702D01*
X0Y701D02*
X7Y701D01*
X2219Y701D02*
X2226Y701D01*
X0Y700D02*
X7Y700D01*
X2219Y700D02*
X2226Y700D01*
X0Y699D02*
X7Y699D01*
X2219Y699D02*
X2226Y699D01*
X0Y698D02*
X7Y698D01*
X2219Y698D02*
X2226Y698D01*
X0Y697D02*
X7Y697D01*
X2219Y697D02*
X2226Y697D01*
X0Y696D02*
X7Y696D01*
X2219Y696D02*
X2226Y696D01*
X0Y695D02*
X7Y695D01*
X2219Y695D02*
X2226Y695D01*
X0Y694D02*
X7Y694D01*
X2219Y694D02*
X2226Y694D01*
X0Y693D02*
X7Y693D01*
X232Y693D02*
X264Y693D01*
X282Y693D02*
X316Y693D01*
X334Y693D02*
X351Y693D01*
X385Y693D02*
X414Y693D01*
X2219Y693D02*
X2226Y693D01*
X0Y692D02*
X7Y692D01*
X232Y692D02*
X265Y692D01*
X282Y692D02*
X316Y692D01*
X333Y692D02*
X353Y692D01*
X383Y692D02*
X416Y692D01*
X2219Y692D02*
X2226Y692D01*
X0Y691D02*
X7Y691D01*
X232Y691D02*
X265Y691D01*
X282Y691D02*
X316Y691D01*
X333Y691D02*
X354Y691D01*
X383Y691D02*
X416Y691D01*
X2219Y691D02*
X2226Y691D01*
X0Y690D02*
X7Y690D01*
X232Y690D02*
X266Y690D01*
X282Y690D02*
X316Y690D01*
X332Y690D02*
X356Y690D01*
X383Y690D02*
X416Y690D01*
X2219Y690D02*
X2226Y690D01*
X0Y689D02*
X7Y689D01*
X232Y689D02*
X266Y689D01*
X282Y689D02*
X316Y689D01*
X333Y689D02*
X356Y689D01*
X383Y689D02*
X416Y689D01*
X2219Y689D02*
X2226Y689D01*
X0Y688D02*
X7Y688D01*
X232Y688D02*
X265Y688D01*
X282Y688D02*
X316Y688D01*
X333Y688D02*
X357Y688D01*
X383Y688D02*
X416Y688D01*
X2219Y688D02*
X2226Y688D01*
X0Y687D02*
X7Y687D01*
X232Y687D02*
X264Y687D01*
X282Y687D02*
X316Y687D01*
X334Y687D02*
X358Y687D01*
X384Y687D02*
X415Y687D01*
X2219Y687D02*
X2226Y687D01*
X0Y686D02*
X7Y686D01*
X232Y686D02*
X238Y686D01*
X282Y686D02*
X288Y686D01*
X296Y686D02*
X302Y686D01*
X310Y686D02*
X316Y686D01*
X339Y686D02*
X345Y686D01*
X351Y686D02*
X358Y686D01*
X396Y686D02*
X403Y686D01*
X2219Y686D02*
X2226Y686D01*
X0Y685D02*
X7Y685D01*
X232Y685D02*
X238Y685D01*
X282Y685D02*
X288Y685D01*
X296Y685D02*
X302Y685D01*
X310Y685D02*
X316Y685D01*
X339Y685D02*
X345Y685D01*
X352Y685D02*
X359Y685D01*
X396Y685D02*
X402Y685D01*
X2219Y685D02*
X2226Y685D01*
X0Y684D02*
X7Y684D01*
X232Y684D02*
X238Y684D01*
X282Y684D02*
X288Y684D01*
X296Y684D02*
X302Y684D01*
X310Y684D02*
X316Y684D01*
X339Y684D02*
X345Y684D01*
X352Y684D02*
X359Y684D01*
X396Y684D02*
X402Y684D01*
X2219Y684D02*
X2226Y684D01*
X0Y683D02*
X7Y683D01*
X232Y683D02*
X238Y683D01*
X282Y683D02*
X288Y683D01*
X296Y683D02*
X302Y683D01*
X310Y683D02*
X316Y683D01*
X339Y683D02*
X345Y683D01*
X353Y683D02*
X360Y683D01*
X396Y683D02*
X402Y683D01*
X2219Y683D02*
X2226Y683D01*
X0Y682D02*
X7Y682D01*
X232Y682D02*
X238Y682D01*
X283Y682D02*
X288Y682D01*
X296Y682D02*
X302Y682D01*
X310Y682D02*
X315Y682D01*
X339Y682D02*
X345Y682D01*
X353Y682D02*
X360Y682D01*
X396Y682D02*
X402Y682D01*
X2219Y682D02*
X2226Y682D01*
X0Y681D02*
X7Y681D01*
X232Y681D02*
X238Y681D01*
X284Y681D02*
X287Y681D01*
X296Y681D02*
X302Y681D01*
X312Y681D02*
X314Y681D01*
X339Y681D02*
X345Y681D01*
X354Y681D02*
X361Y681D01*
X396Y681D02*
X402Y681D01*
X2219Y681D02*
X2226Y681D01*
X0Y680D02*
X7Y680D01*
X232Y680D02*
X238Y680D01*
X296Y680D02*
X302Y680D01*
X339Y680D02*
X345Y680D01*
X354Y680D02*
X361Y680D01*
X396Y680D02*
X402Y680D01*
X2219Y680D02*
X2226Y680D01*
X0Y679D02*
X7Y679D01*
X232Y679D02*
X238Y679D01*
X296Y679D02*
X302Y679D01*
X339Y679D02*
X345Y679D01*
X355Y679D02*
X362Y679D01*
X396Y679D02*
X402Y679D01*
X2219Y679D02*
X2226Y679D01*
X0Y678D02*
X7Y678D01*
X232Y678D02*
X238Y678D01*
X296Y678D02*
X302Y678D01*
X339Y678D02*
X345Y678D01*
X355Y678D02*
X362Y678D01*
X396Y678D02*
X402Y678D01*
X2219Y678D02*
X2226Y678D01*
X0Y677D02*
X7Y677D01*
X232Y677D02*
X238Y677D01*
X296Y677D02*
X302Y677D01*
X339Y677D02*
X345Y677D01*
X356Y677D02*
X363Y677D01*
X396Y677D02*
X402Y677D01*
X2219Y677D02*
X2226Y677D01*
X0Y676D02*
X7Y676D01*
X232Y676D02*
X238Y676D01*
X296Y676D02*
X302Y676D01*
X339Y676D02*
X345Y676D01*
X356Y676D02*
X363Y676D01*
X396Y676D02*
X402Y676D01*
X2075Y676D02*
X2173Y676D01*
X2219Y676D02*
X2226Y676D01*
X0Y675D02*
X7Y675D01*
X232Y675D02*
X257Y675D01*
X296Y675D02*
X302Y675D01*
X339Y675D02*
X345Y675D01*
X357Y675D02*
X364Y675D01*
X396Y675D02*
X402Y675D01*
X2074Y675D02*
X2173Y675D01*
X2219Y675D02*
X2226Y675D01*
X0Y674D02*
X7Y674D01*
X232Y674D02*
X258Y674D01*
X296Y674D02*
X302Y674D01*
X339Y674D02*
X345Y674D01*
X357Y674D02*
X364Y674D01*
X396Y674D02*
X402Y674D01*
X2074Y674D02*
X2173Y674D01*
X2219Y674D02*
X2226Y674D01*
X0Y673D02*
X7Y673D01*
X232Y673D02*
X259Y673D01*
X296Y673D02*
X302Y673D01*
X339Y673D02*
X345Y673D01*
X358Y673D02*
X365Y673D01*
X396Y673D02*
X402Y673D01*
X2074Y673D02*
X2173Y673D01*
X2219Y673D02*
X2226Y673D01*
X0Y672D02*
X7Y672D01*
X232Y672D02*
X259Y672D01*
X296Y672D02*
X302Y672D01*
X339Y672D02*
X345Y672D01*
X358Y672D02*
X365Y672D01*
X396Y672D02*
X402Y672D01*
X2074Y672D02*
X2173Y672D01*
X2219Y672D02*
X2226Y672D01*
X0Y671D02*
X7Y671D01*
X232Y671D02*
X259Y671D01*
X296Y671D02*
X302Y671D01*
X339Y671D02*
X345Y671D01*
X359Y671D02*
X365Y671D01*
X396Y671D02*
X402Y671D01*
X2074Y671D02*
X2173Y671D01*
X2219Y671D02*
X2226Y671D01*
X0Y670D02*
X7Y670D01*
X232Y670D02*
X258Y670D01*
X296Y670D02*
X302Y670D01*
X339Y670D02*
X345Y670D01*
X359Y670D02*
X366Y670D01*
X396Y670D02*
X402Y670D01*
X2074Y670D02*
X2173Y670D01*
X2219Y670D02*
X2226Y670D01*
X0Y669D02*
X7Y669D01*
X232Y669D02*
X257Y669D01*
X296Y669D02*
X302Y669D01*
X339Y669D02*
X345Y669D01*
X360Y669D02*
X366Y669D01*
X396Y669D02*
X402Y669D01*
X2074Y669D02*
X2173Y669D01*
X2219Y669D02*
X2226Y669D01*
X0Y668D02*
X7Y668D01*
X232Y668D02*
X238Y668D01*
X296Y668D02*
X302Y668D01*
X339Y668D02*
X345Y668D01*
X360Y668D02*
X366Y668D01*
X396Y668D02*
X402Y668D01*
X2074Y668D02*
X2173Y668D01*
X2219Y668D02*
X2226Y668D01*
X0Y667D02*
X7Y667D01*
X232Y667D02*
X238Y667D01*
X296Y667D02*
X302Y667D01*
X339Y667D02*
X345Y667D01*
X360Y667D02*
X366Y667D01*
X396Y667D02*
X402Y667D01*
X2074Y667D02*
X2173Y667D01*
X2219Y667D02*
X2226Y667D01*
X0Y666D02*
X7Y666D01*
X232Y666D02*
X238Y666D01*
X296Y666D02*
X302Y666D01*
X339Y666D02*
X345Y666D01*
X360Y666D02*
X366Y666D01*
X396Y666D02*
X402Y666D01*
X2065Y666D02*
X2183Y666D01*
X2219Y666D02*
X2226Y666D01*
X0Y665D02*
X7Y665D01*
X232Y665D02*
X238Y665D01*
X296Y665D02*
X302Y665D01*
X339Y665D02*
X345Y665D01*
X360Y665D02*
X366Y665D01*
X396Y665D02*
X402Y665D01*
X2064Y665D02*
X2183Y665D01*
X2219Y665D02*
X2226Y665D01*
X0Y664D02*
X7Y664D01*
X232Y664D02*
X238Y664D01*
X296Y664D02*
X302Y664D01*
X339Y664D02*
X345Y664D01*
X360Y664D02*
X366Y664D01*
X396Y664D02*
X402Y664D01*
X2064Y664D02*
X2183Y664D01*
X2219Y664D02*
X2226Y664D01*
X0Y663D02*
X7Y663D01*
X232Y663D02*
X238Y663D01*
X296Y663D02*
X302Y663D01*
X339Y663D02*
X345Y663D01*
X359Y663D02*
X366Y663D01*
X396Y663D02*
X402Y663D01*
X2064Y663D02*
X2183Y663D01*
X2219Y663D02*
X2226Y663D01*
X0Y662D02*
X7Y662D01*
X232Y662D02*
X238Y662D01*
X296Y662D02*
X302Y662D01*
X339Y662D02*
X345Y662D01*
X359Y662D02*
X365Y662D01*
X396Y662D02*
X402Y662D01*
X2064Y662D02*
X2183Y662D01*
X2219Y662D02*
X2226Y662D01*
X0Y661D02*
X7Y661D01*
X232Y661D02*
X238Y661D01*
X296Y661D02*
X302Y661D01*
X339Y661D02*
X345Y661D01*
X358Y661D02*
X365Y661D01*
X396Y661D02*
X402Y661D01*
X2064Y661D02*
X2183Y661D01*
X2219Y661D02*
X2226Y661D01*
X0Y660D02*
X7Y660D01*
X232Y660D02*
X238Y660D01*
X296Y660D02*
X302Y660D01*
X339Y660D02*
X345Y660D01*
X358Y660D02*
X365Y660D01*
X396Y660D02*
X402Y660D01*
X2064Y660D02*
X2183Y660D01*
X2219Y660D02*
X2226Y660D01*
X0Y659D02*
X7Y659D01*
X232Y659D02*
X238Y659D01*
X296Y659D02*
X302Y659D01*
X339Y659D02*
X345Y659D01*
X357Y659D02*
X364Y659D01*
X396Y659D02*
X402Y659D01*
X2064Y659D02*
X2183Y659D01*
X2219Y659D02*
X2226Y659D01*
X0Y658D02*
X7Y658D01*
X232Y658D02*
X238Y658D01*
X296Y658D02*
X302Y658D01*
X339Y658D02*
X345Y658D01*
X357Y658D02*
X364Y658D01*
X396Y658D02*
X402Y658D01*
X2064Y658D02*
X2117Y658D01*
X2131Y658D02*
X2183Y658D01*
X2219Y658D02*
X2226Y658D01*
X0Y657D02*
X7Y657D01*
X232Y657D02*
X238Y657D01*
X296Y657D02*
X302Y657D01*
X339Y657D02*
X345Y657D01*
X356Y657D02*
X363Y657D01*
X396Y657D02*
X402Y657D01*
X2064Y657D02*
X2113Y657D01*
X2135Y657D02*
X2183Y657D01*
X2219Y657D02*
X2226Y657D01*
X0Y656D02*
X7Y656D01*
X232Y656D02*
X238Y656D01*
X296Y656D02*
X302Y656D01*
X339Y656D02*
X345Y656D01*
X356Y656D02*
X363Y656D01*
X396Y656D02*
X402Y656D01*
X2064Y656D02*
X2083Y656D01*
X2164Y656D02*
X2183Y656D01*
X2219Y656D02*
X2226Y656D01*
X0Y655D02*
X7Y655D01*
X232Y655D02*
X238Y655D01*
X296Y655D02*
X302Y655D01*
X339Y655D02*
X345Y655D01*
X355Y655D02*
X362Y655D01*
X396Y655D02*
X402Y655D01*
X2064Y655D02*
X2083Y655D01*
X2164Y655D02*
X2183Y655D01*
X2219Y655D02*
X2226Y655D01*
X0Y654D02*
X7Y654D01*
X232Y654D02*
X238Y654D01*
X296Y654D02*
X302Y654D01*
X339Y654D02*
X345Y654D01*
X355Y654D02*
X362Y654D01*
X396Y654D02*
X402Y654D01*
X2064Y654D02*
X2083Y654D01*
X2164Y654D02*
X2183Y654D01*
X2219Y654D02*
X2226Y654D01*
X0Y653D02*
X7Y653D01*
X232Y653D02*
X238Y653D01*
X296Y653D02*
X302Y653D01*
X339Y653D02*
X345Y653D01*
X354Y653D02*
X361Y653D01*
X396Y653D02*
X402Y653D01*
X2064Y653D02*
X2083Y653D01*
X2164Y653D02*
X2183Y653D01*
X2219Y653D02*
X2226Y653D01*
X0Y652D02*
X7Y652D01*
X232Y652D02*
X238Y652D01*
X296Y652D02*
X302Y652D01*
X339Y652D02*
X345Y652D01*
X354Y652D02*
X361Y652D01*
X396Y652D02*
X402Y652D01*
X2064Y652D02*
X2083Y652D01*
X2164Y652D02*
X2183Y652D01*
X2219Y652D02*
X2226Y652D01*
X0Y651D02*
X7Y651D01*
X232Y651D02*
X238Y651D01*
X296Y651D02*
X302Y651D01*
X339Y651D02*
X345Y651D01*
X353Y651D02*
X360Y651D01*
X396Y651D02*
X402Y651D01*
X2064Y651D02*
X2083Y651D01*
X2164Y651D02*
X2183Y651D01*
X2219Y651D02*
X2226Y651D01*
X0Y650D02*
X7Y650D01*
X232Y650D02*
X238Y650D01*
X296Y650D02*
X302Y650D01*
X339Y650D02*
X345Y650D01*
X353Y650D02*
X360Y650D01*
X396Y650D02*
X402Y650D01*
X2064Y650D02*
X2083Y650D01*
X2164Y650D02*
X2183Y650D01*
X2219Y650D02*
X2226Y650D01*
X0Y649D02*
X7Y649D01*
X232Y649D02*
X238Y649D01*
X296Y649D02*
X302Y649D01*
X339Y649D02*
X345Y649D01*
X352Y649D02*
X359Y649D01*
X396Y649D02*
X402Y649D01*
X2064Y649D02*
X2083Y649D01*
X2164Y649D02*
X2183Y649D01*
X2219Y649D02*
X2226Y649D01*
X0Y648D02*
X7Y648D01*
X232Y648D02*
X238Y648D01*
X296Y648D02*
X302Y648D01*
X339Y648D02*
X345Y648D01*
X352Y648D02*
X359Y648D01*
X396Y648D02*
X402Y648D01*
X2064Y648D02*
X2083Y648D01*
X2164Y648D02*
X2183Y648D01*
X2219Y648D02*
X2226Y648D01*
X0Y647D02*
X7Y647D01*
X232Y647D02*
X238Y647D01*
X296Y647D02*
X302Y647D01*
X339Y647D02*
X345Y647D01*
X351Y647D02*
X358Y647D01*
X396Y647D02*
X402Y647D01*
X2064Y647D02*
X2083Y647D01*
X2164Y647D02*
X2183Y647D01*
X2219Y647D02*
X2226Y647D01*
X0Y646D02*
X7Y646D01*
X232Y646D02*
X238Y646D01*
X296Y646D02*
X302Y646D01*
X335Y646D02*
X358Y646D01*
X385Y646D02*
X414Y646D01*
X2064Y646D02*
X2083Y646D01*
X2164Y646D02*
X2183Y646D01*
X2219Y646D02*
X2226Y646D01*
X0Y645D02*
X7Y645D01*
X232Y645D02*
X238Y645D01*
X296Y645D02*
X302Y645D01*
X333Y645D02*
X357Y645D01*
X384Y645D02*
X415Y645D01*
X2064Y645D02*
X2083Y645D01*
X2164Y645D02*
X2183Y645D01*
X2219Y645D02*
X2226Y645D01*
X0Y644D02*
X7Y644D01*
X232Y644D02*
X238Y644D01*
X296Y644D02*
X302Y644D01*
X333Y644D02*
X357Y644D01*
X383Y644D02*
X416Y644D01*
X2064Y644D02*
X2083Y644D01*
X2164Y644D02*
X2183Y644D01*
X2219Y644D02*
X2226Y644D01*
X0Y643D02*
X7Y643D01*
X232Y643D02*
X238Y643D01*
X296Y643D02*
X302Y643D01*
X332Y643D02*
X356Y643D01*
X383Y643D02*
X416Y643D01*
X2064Y643D02*
X2083Y643D01*
X2164Y643D02*
X2183Y643D01*
X2219Y643D02*
X2226Y643D01*
X0Y642D02*
X7Y642D01*
X232Y642D02*
X238Y642D01*
X296Y642D02*
X302Y642D01*
X333Y642D02*
X355Y642D01*
X383Y642D02*
X416Y642D01*
X2064Y642D02*
X2083Y642D01*
X2164Y642D02*
X2183Y642D01*
X2219Y642D02*
X2226Y642D01*
X0Y641D02*
X7Y641D01*
X233Y641D02*
X238Y641D01*
X297Y641D02*
X302Y641D01*
X333Y641D02*
X354Y641D01*
X383Y641D02*
X416Y641D01*
X2064Y641D02*
X2083Y641D01*
X2164Y641D02*
X2183Y641D01*
X2219Y641D02*
X2226Y641D01*
X0Y640D02*
X7Y640D01*
X233Y640D02*
X237Y640D01*
X297Y640D02*
X301Y640D01*
X334Y640D02*
X352Y640D01*
X384Y640D02*
X415Y640D01*
X2064Y640D02*
X2083Y640D01*
X2164Y640D02*
X2183Y640D01*
X2219Y640D02*
X2226Y640D01*
X0Y639D02*
X7Y639D01*
X2064Y639D02*
X2083Y639D01*
X2164Y639D02*
X2183Y639D01*
X2219Y639D02*
X2226Y639D01*
X0Y638D02*
X7Y638D01*
X2064Y638D02*
X2083Y638D01*
X2164Y638D02*
X2183Y638D01*
X2219Y638D02*
X2226Y638D01*
X0Y637D02*
X7Y637D01*
X2064Y637D02*
X2083Y637D01*
X2164Y637D02*
X2183Y637D01*
X2219Y637D02*
X2226Y637D01*
X0Y636D02*
X7Y636D01*
X2064Y636D02*
X2083Y636D01*
X2164Y636D02*
X2183Y636D01*
X2219Y636D02*
X2226Y636D01*
X0Y635D02*
X7Y635D01*
X2064Y635D02*
X2083Y635D01*
X2164Y635D02*
X2183Y635D01*
X2219Y635D02*
X2226Y635D01*
X0Y634D02*
X7Y634D01*
X2064Y634D02*
X2083Y634D01*
X2164Y634D02*
X2183Y634D01*
X2219Y634D02*
X2226Y634D01*
X0Y633D02*
X7Y633D01*
X2064Y633D02*
X2083Y633D01*
X2164Y633D02*
X2183Y633D01*
X2219Y633D02*
X2226Y633D01*
X0Y632D02*
X7Y632D01*
X2064Y632D02*
X2083Y632D01*
X2164Y632D02*
X2183Y632D01*
X2219Y632D02*
X2226Y632D01*
X0Y631D02*
X7Y631D01*
X2064Y631D02*
X2083Y631D01*
X2164Y631D02*
X2183Y631D01*
X2219Y631D02*
X2226Y631D01*
X0Y630D02*
X7Y630D01*
X2064Y630D02*
X2083Y630D01*
X2164Y630D02*
X2183Y630D01*
X2219Y630D02*
X2226Y630D01*
X0Y629D02*
X7Y629D01*
X2064Y629D02*
X2083Y629D01*
X2165Y629D02*
X2183Y629D01*
X2219Y629D02*
X2226Y629D01*
X0Y628D02*
X7Y628D01*
X2064Y628D02*
X2083Y628D01*
X2165Y628D02*
X2183Y628D01*
X2219Y628D02*
X2226Y628D01*
X0Y627D02*
X7Y627D01*
X2064Y627D02*
X2083Y627D01*
X2165Y627D02*
X2183Y627D01*
X2219Y627D02*
X2226Y627D01*
X0Y626D02*
X7Y626D01*
X2064Y626D02*
X2082Y626D01*
X2166Y626D02*
X2183Y626D01*
X2219Y626D02*
X2226Y626D01*
X0Y625D02*
X7Y625D01*
X2064Y625D02*
X2082Y625D01*
X2166Y625D02*
X2183Y625D01*
X2219Y625D02*
X2226Y625D01*
X0Y624D02*
X7Y624D01*
X2064Y624D02*
X2082Y624D01*
X2166Y624D02*
X2183Y624D01*
X2219Y624D02*
X2226Y624D01*
X0Y623D02*
X7Y623D01*
X2064Y623D02*
X2082Y623D01*
X2166Y623D02*
X2183Y623D01*
X2219Y623D02*
X2226Y623D01*
X0Y622D02*
X7Y622D01*
X2064Y622D02*
X2081Y622D01*
X2166Y622D02*
X2183Y622D01*
X2219Y622D02*
X2226Y622D01*
X0Y621D02*
X7Y621D01*
X2064Y621D02*
X2081Y621D01*
X2167Y621D02*
X2183Y621D01*
X2219Y621D02*
X2226Y621D01*
X0Y620D02*
X7Y620D01*
X2064Y620D02*
X2081Y620D01*
X2167Y620D02*
X2183Y620D01*
X2219Y620D02*
X2226Y620D01*
X0Y619D02*
X7Y619D01*
X2064Y619D02*
X2081Y619D01*
X2167Y619D02*
X2183Y619D01*
X2219Y619D02*
X2226Y619D01*
X0Y618D02*
X7Y618D01*
X2064Y618D02*
X2081Y618D01*
X2167Y618D02*
X2183Y618D01*
X2219Y618D02*
X2226Y618D01*
X0Y617D02*
X7Y617D01*
X2064Y617D02*
X2081Y617D01*
X2167Y617D02*
X2183Y617D01*
X2219Y617D02*
X2226Y617D01*
X0Y616D02*
X7Y616D01*
X2064Y616D02*
X2081Y616D01*
X2167Y616D02*
X2183Y616D01*
X2219Y616D02*
X2226Y616D01*
X0Y615D02*
X7Y615D01*
X2064Y615D02*
X2081Y615D01*
X2167Y615D02*
X2183Y615D01*
X2219Y615D02*
X2226Y615D01*
X0Y614D02*
X7Y614D01*
X2064Y614D02*
X2081Y614D01*
X2167Y614D02*
X2183Y614D01*
X2219Y614D02*
X2226Y614D01*
X0Y613D02*
X7Y613D01*
X2064Y613D02*
X2081Y613D01*
X2167Y613D02*
X2183Y613D01*
X2219Y613D02*
X2226Y613D01*
X0Y612D02*
X7Y612D01*
X2064Y612D02*
X2081Y612D01*
X2167Y612D02*
X2183Y612D01*
X2219Y612D02*
X2226Y612D01*
X0Y611D02*
X7Y611D01*
X2064Y611D02*
X2081Y611D01*
X2167Y611D02*
X2183Y611D01*
X2219Y611D02*
X2226Y611D01*
X0Y610D02*
X7Y610D01*
X2064Y610D02*
X2082Y610D01*
X2166Y610D02*
X2183Y610D01*
X2219Y610D02*
X2226Y610D01*
X0Y609D02*
X7Y609D01*
X2064Y609D02*
X2082Y609D01*
X2166Y609D02*
X2183Y609D01*
X2219Y609D02*
X2226Y609D01*
X0Y608D02*
X7Y608D01*
X2064Y608D02*
X2082Y608D01*
X2166Y608D02*
X2183Y608D01*
X2219Y608D02*
X2226Y608D01*
X0Y607D02*
X7Y607D01*
X2064Y607D02*
X2082Y607D01*
X2166Y607D02*
X2183Y607D01*
X2219Y607D02*
X2226Y607D01*
X0Y606D02*
X7Y606D01*
X2064Y606D02*
X2083Y606D01*
X2165Y606D02*
X2183Y606D01*
X2219Y606D02*
X2226Y606D01*
X0Y605D02*
X7Y605D01*
X2064Y605D02*
X2083Y605D01*
X2165Y605D02*
X2183Y605D01*
X2219Y605D02*
X2226Y605D01*
X0Y604D02*
X7Y604D01*
X2064Y604D02*
X2083Y604D01*
X2165Y604D02*
X2183Y604D01*
X2219Y604D02*
X2226Y604D01*
X0Y603D02*
X7Y603D01*
X2064Y603D02*
X2083Y603D01*
X2164Y603D02*
X2183Y603D01*
X2219Y603D02*
X2226Y603D01*
X0Y602D02*
X7Y602D01*
X2064Y602D02*
X2083Y602D01*
X2164Y602D02*
X2183Y602D01*
X2219Y602D02*
X2226Y602D01*
X0Y601D02*
X7Y601D01*
X2064Y601D02*
X2083Y601D01*
X2164Y601D02*
X2183Y601D01*
X2219Y601D02*
X2226Y601D01*
X0Y600D02*
X7Y600D01*
X2064Y600D02*
X2083Y600D01*
X2164Y600D02*
X2183Y600D01*
X2219Y600D02*
X2226Y600D01*
X0Y599D02*
X7Y599D01*
X2064Y599D02*
X2083Y599D01*
X2164Y599D02*
X2183Y599D01*
X2219Y599D02*
X2226Y599D01*
X0Y598D02*
X7Y598D01*
X2064Y598D02*
X2083Y598D01*
X2164Y598D02*
X2183Y598D01*
X2219Y598D02*
X2226Y598D01*
X0Y597D02*
X7Y597D01*
X2064Y597D02*
X2083Y597D01*
X2164Y597D02*
X2183Y597D01*
X2219Y597D02*
X2226Y597D01*
X0Y596D02*
X7Y596D01*
X2064Y596D02*
X2083Y596D01*
X2164Y596D02*
X2183Y596D01*
X2219Y596D02*
X2226Y596D01*
X0Y595D02*
X7Y595D01*
X2064Y595D02*
X2083Y595D01*
X2164Y595D02*
X2183Y595D01*
X2219Y595D02*
X2226Y595D01*
X0Y594D02*
X7Y594D01*
X2064Y594D02*
X2083Y594D01*
X2164Y594D02*
X2183Y594D01*
X2219Y594D02*
X2226Y594D01*
X0Y593D02*
X7Y593D01*
X2064Y593D02*
X2083Y593D01*
X2164Y593D02*
X2183Y593D01*
X2219Y593D02*
X2226Y593D01*
X0Y592D02*
X7Y592D01*
X2064Y592D02*
X2083Y592D01*
X2164Y592D02*
X2183Y592D01*
X2219Y592D02*
X2226Y592D01*
X0Y591D02*
X7Y591D01*
X2064Y591D02*
X2083Y591D01*
X2164Y591D02*
X2183Y591D01*
X2219Y591D02*
X2226Y591D01*
X0Y590D02*
X7Y590D01*
X2064Y590D02*
X2083Y590D01*
X2164Y590D02*
X2183Y590D01*
X2219Y590D02*
X2226Y590D01*
X0Y589D02*
X7Y589D01*
X2064Y589D02*
X2083Y589D01*
X2164Y589D02*
X2183Y589D01*
X2219Y589D02*
X2226Y589D01*
X0Y588D02*
X7Y588D01*
X2064Y588D02*
X2083Y588D01*
X2164Y588D02*
X2183Y588D01*
X2219Y588D02*
X2226Y588D01*
X0Y587D02*
X7Y587D01*
X2064Y587D02*
X2083Y587D01*
X2164Y587D02*
X2183Y587D01*
X2219Y587D02*
X2226Y587D01*
X0Y586D02*
X7Y586D01*
X2064Y586D02*
X2083Y586D01*
X2164Y586D02*
X2183Y586D01*
X2219Y586D02*
X2226Y586D01*
X0Y585D02*
X7Y585D01*
X2064Y585D02*
X2083Y585D01*
X2164Y585D02*
X2183Y585D01*
X2219Y585D02*
X2226Y585D01*
X0Y584D02*
X7Y584D01*
X2064Y584D02*
X2083Y584D01*
X2164Y584D02*
X2183Y584D01*
X2219Y584D02*
X2226Y584D01*
X0Y583D02*
X7Y583D01*
X2064Y583D02*
X2083Y583D01*
X2164Y583D02*
X2183Y583D01*
X2219Y583D02*
X2226Y583D01*
X0Y582D02*
X7Y582D01*
X2064Y582D02*
X2083Y582D01*
X2164Y582D02*
X2183Y582D01*
X2219Y582D02*
X2226Y582D01*
X0Y581D02*
X7Y581D01*
X2064Y581D02*
X2083Y581D01*
X2164Y581D02*
X2183Y581D01*
X2219Y581D02*
X2226Y581D01*
X0Y580D02*
X7Y580D01*
X2064Y580D02*
X2083Y580D01*
X2164Y580D02*
X2183Y580D01*
X2219Y580D02*
X2226Y580D01*
X0Y579D02*
X7Y579D01*
X2064Y579D02*
X2083Y579D01*
X2164Y579D02*
X2183Y579D01*
X2219Y579D02*
X2226Y579D01*
X0Y578D02*
X7Y578D01*
X2064Y578D02*
X2083Y578D01*
X2164Y578D02*
X2183Y578D01*
X2219Y578D02*
X2226Y578D01*
X0Y577D02*
X7Y577D01*
X2064Y577D02*
X2083Y577D01*
X2164Y577D02*
X2183Y577D01*
X2219Y577D02*
X2226Y577D01*
X0Y576D02*
X7Y576D01*
X2064Y576D02*
X2083Y576D01*
X2164Y576D02*
X2183Y576D01*
X2219Y576D02*
X2226Y576D01*
X0Y575D02*
X7Y575D01*
X2064Y575D02*
X2083Y575D01*
X2164Y575D02*
X2183Y575D01*
X2219Y575D02*
X2226Y575D01*
X0Y574D02*
X7Y574D01*
X2064Y574D02*
X2083Y574D01*
X2164Y574D02*
X2183Y574D01*
X2219Y574D02*
X2226Y574D01*
X0Y573D02*
X7Y573D01*
X2064Y573D02*
X2083Y573D01*
X2164Y573D02*
X2183Y573D01*
X2219Y573D02*
X2226Y573D01*
X0Y572D02*
X7Y572D01*
X2064Y572D02*
X2083Y572D01*
X2164Y572D02*
X2183Y572D01*
X2219Y572D02*
X2226Y572D01*
X0Y571D02*
X7Y571D01*
X2064Y571D02*
X2083Y571D01*
X2164Y571D02*
X2183Y571D01*
X2219Y571D02*
X2226Y571D01*
X0Y570D02*
X7Y570D01*
X2064Y570D02*
X2083Y570D01*
X2164Y570D02*
X2183Y570D01*
X2219Y570D02*
X2226Y570D01*
X0Y569D02*
X7Y569D01*
X2064Y569D02*
X2083Y569D01*
X2164Y569D02*
X2183Y569D01*
X2219Y569D02*
X2226Y569D01*
X0Y568D02*
X7Y568D01*
X2064Y568D02*
X2083Y568D01*
X2164Y568D02*
X2183Y568D01*
X2219Y568D02*
X2226Y568D01*
X0Y567D02*
X7Y567D01*
X2064Y567D02*
X2083Y567D01*
X2164Y567D02*
X2183Y567D01*
X2219Y567D02*
X2226Y567D01*
X0Y566D02*
X7Y566D01*
X2064Y566D02*
X2083Y566D01*
X2164Y566D02*
X2183Y566D01*
X2219Y566D02*
X2226Y566D01*
X0Y565D02*
X7Y565D01*
X2064Y565D02*
X2083Y565D01*
X2164Y565D02*
X2183Y565D01*
X2219Y565D02*
X2226Y565D01*
X0Y564D02*
X7Y564D01*
X2064Y564D02*
X2083Y564D01*
X2164Y564D02*
X2183Y564D01*
X2219Y564D02*
X2226Y564D01*
X0Y563D02*
X7Y563D01*
X2064Y563D02*
X2083Y563D01*
X2164Y563D02*
X2183Y563D01*
X2219Y563D02*
X2226Y563D01*
X0Y562D02*
X7Y562D01*
X2064Y562D02*
X2083Y562D01*
X2164Y562D02*
X2183Y562D01*
X2219Y562D02*
X2226Y562D01*
X0Y561D02*
X7Y561D01*
X2064Y561D02*
X2083Y561D01*
X2164Y561D02*
X2183Y561D01*
X2219Y561D02*
X2226Y561D01*
X0Y560D02*
X7Y560D01*
X2064Y560D02*
X2083Y560D01*
X2164Y560D02*
X2183Y560D01*
X2219Y560D02*
X2226Y560D01*
X0Y559D02*
X7Y559D01*
X2064Y559D02*
X2083Y559D01*
X2164Y559D02*
X2183Y559D01*
X2219Y559D02*
X2226Y559D01*
X0Y558D02*
X7Y558D01*
X2064Y558D02*
X2081Y558D01*
X2167Y558D02*
X2183Y558D01*
X2219Y558D02*
X2226Y558D01*
X0Y557D02*
X7Y557D01*
X2064Y557D02*
X2081Y557D01*
X2167Y557D02*
X2183Y557D01*
X2219Y557D02*
X2226Y557D01*
X0Y556D02*
X7Y556D01*
X2064Y556D02*
X2081Y556D01*
X2167Y556D02*
X2183Y556D01*
X2219Y556D02*
X2226Y556D01*
X0Y555D02*
X7Y555D01*
X2064Y555D02*
X2081Y555D01*
X2167Y555D02*
X2183Y555D01*
X2219Y555D02*
X2226Y555D01*
X0Y554D02*
X7Y554D01*
X2064Y554D02*
X2081Y554D01*
X2167Y554D02*
X2183Y554D01*
X2219Y554D02*
X2226Y554D01*
X0Y553D02*
X7Y553D01*
X2064Y553D02*
X2081Y553D01*
X2167Y553D02*
X2183Y553D01*
X2219Y553D02*
X2226Y553D01*
X0Y552D02*
X7Y552D01*
X2064Y552D02*
X2081Y552D01*
X2167Y552D02*
X2183Y552D01*
X2219Y552D02*
X2226Y552D01*
X0Y551D02*
X7Y551D01*
X2064Y551D02*
X2081Y551D01*
X2167Y551D02*
X2183Y551D01*
X2219Y551D02*
X2226Y551D01*
X0Y550D02*
X7Y550D01*
X2064Y550D02*
X2081Y550D01*
X2167Y550D02*
X2183Y550D01*
X2219Y550D02*
X2226Y550D01*
X0Y549D02*
X7Y549D01*
X2064Y549D02*
X2081Y549D01*
X2167Y549D02*
X2183Y549D01*
X2219Y549D02*
X2226Y549D01*
X0Y548D02*
X7Y548D01*
X2064Y548D02*
X2081Y548D01*
X2167Y548D02*
X2183Y548D01*
X2219Y548D02*
X2226Y548D01*
X0Y547D02*
X7Y547D01*
X2064Y547D02*
X2081Y547D01*
X2167Y547D02*
X2183Y547D01*
X2219Y547D02*
X2226Y547D01*
X0Y546D02*
X7Y546D01*
X2064Y546D02*
X2081Y546D01*
X2167Y546D02*
X2183Y546D01*
X2219Y546D02*
X2226Y546D01*
X0Y545D02*
X7Y545D01*
X2064Y545D02*
X2081Y545D01*
X2167Y545D02*
X2183Y545D01*
X2219Y545D02*
X2226Y545D01*
X0Y544D02*
X7Y544D01*
X2064Y544D02*
X2081Y544D01*
X2167Y544D02*
X2183Y544D01*
X2219Y544D02*
X2226Y544D01*
X0Y543D02*
X7Y543D01*
X2064Y543D02*
X2081Y543D01*
X2167Y543D02*
X2183Y543D01*
X2219Y543D02*
X2226Y543D01*
X0Y542D02*
X7Y542D01*
X2064Y542D02*
X2081Y542D01*
X2167Y542D02*
X2183Y542D01*
X2219Y542D02*
X2226Y542D01*
X0Y541D02*
X7Y541D01*
X2064Y541D02*
X2081Y541D01*
X2167Y541D02*
X2183Y541D01*
X2219Y541D02*
X2226Y541D01*
X0Y540D02*
X7Y540D01*
X2064Y540D02*
X2081Y540D01*
X2167Y540D02*
X2183Y540D01*
X2219Y540D02*
X2226Y540D01*
X0Y539D02*
X7Y539D01*
X2064Y539D02*
X2081Y539D01*
X2167Y539D02*
X2183Y539D01*
X2219Y539D02*
X2226Y539D01*
X0Y538D02*
X7Y538D01*
X2064Y538D02*
X2081Y538D01*
X2167Y538D02*
X2183Y538D01*
X2219Y538D02*
X2226Y538D01*
X0Y537D02*
X7Y537D01*
X2064Y537D02*
X2081Y537D01*
X2167Y537D02*
X2183Y537D01*
X2219Y537D02*
X2226Y537D01*
X0Y536D02*
X7Y536D01*
X2064Y536D02*
X2081Y536D01*
X2167Y536D02*
X2183Y536D01*
X2219Y536D02*
X2226Y536D01*
X0Y535D02*
X7Y535D01*
X2064Y535D02*
X2081Y535D01*
X2167Y535D02*
X2183Y535D01*
X2219Y535D02*
X2226Y535D01*
X0Y534D02*
X7Y534D01*
X2064Y534D02*
X2081Y534D01*
X2167Y534D02*
X2183Y534D01*
X2219Y534D02*
X2226Y534D01*
X0Y533D02*
X7Y533D01*
X2064Y533D02*
X2081Y533D01*
X2167Y533D02*
X2183Y533D01*
X2219Y533D02*
X2226Y533D01*
X0Y532D02*
X7Y532D01*
X2064Y532D02*
X2081Y532D01*
X2167Y532D02*
X2183Y532D01*
X2219Y532D02*
X2226Y532D01*
X0Y531D02*
X7Y531D01*
X2064Y531D02*
X2081Y531D01*
X2167Y531D02*
X2183Y531D01*
X2219Y531D02*
X2226Y531D01*
X0Y530D02*
X7Y530D01*
X2064Y530D02*
X2081Y530D01*
X2167Y530D02*
X2183Y530D01*
X2219Y530D02*
X2226Y530D01*
X0Y529D02*
X7Y529D01*
X2064Y529D02*
X2081Y529D01*
X2167Y529D02*
X2183Y529D01*
X2219Y529D02*
X2226Y529D01*
X0Y528D02*
X7Y528D01*
X2064Y528D02*
X2081Y528D01*
X2167Y528D02*
X2183Y528D01*
X2219Y528D02*
X2226Y528D01*
X0Y527D02*
X7Y527D01*
X2064Y527D02*
X2081Y527D01*
X2167Y527D02*
X2183Y527D01*
X2219Y527D02*
X2226Y527D01*
X0Y526D02*
X7Y526D01*
X2064Y526D02*
X2081Y526D01*
X2167Y526D02*
X2183Y526D01*
X2219Y526D02*
X2226Y526D01*
X0Y525D02*
X7Y525D01*
X2064Y525D02*
X2081Y525D01*
X2167Y525D02*
X2183Y525D01*
X2219Y525D02*
X2226Y525D01*
X0Y524D02*
X7Y524D01*
X2064Y524D02*
X2081Y524D01*
X2167Y524D02*
X2183Y524D01*
X2219Y524D02*
X2226Y524D01*
X0Y523D02*
X7Y523D01*
X2064Y523D02*
X2081Y523D01*
X2167Y523D02*
X2183Y523D01*
X2219Y523D02*
X2226Y523D01*
X0Y522D02*
X7Y522D01*
X2064Y522D02*
X2081Y522D01*
X2167Y522D02*
X2183Y522D01*
X2219Y522D02*
X2226Y522D01*
X0Y521D02*
X7Y521D01*
X2064Y521D02*
X2081Y521D01*
X2167Y521D02*
X2183Y521D01*
X2219Y521D02*
X2226Y521D01*
X0Y520D02*
X7Y520D01*
X2064Y520D02*
X2081Y520D01*
X2167Y520D02*
X2183Y520D01*
X2219Y520D02*
X2226Y520D01*
X0Y519D02*
X7Y519D01*
X2064Y519D02*
X2081Y519D01*
X2167Y519D02*
X2183Y519D01*
X2219Y519D02*
X2226Y519D01*
X0Y518D02*
X7Y518D01*
X2064Y518D02*
X2081Y518D01*
X2167Y518D02*
X2183Y518D01*
X2219Y518D02*
X2226Y518D01*
X0Y517D02*
X7Y517D01*
X2064Y517D02*
X2081Y517D01*
X2167Y517D02*
X2183Y517D01*
X2219Y517D02*
X2226Y517D01*
X0Y516D02*
X7Y516D01*
X2064Y516D02*
X2081Y516D01*
X2167Y516D02*
X2183Y516D01*
X2219Y516D02*
X2226Y516D01*
X0Y515D02*
X7Y515D01*
X2064Y515D02*
X2081Y515D01*
X2167Y515D02*
X2183Y515D01*
X2219Y515D02*
X2226Y515D01*
X0Y514D02*
X7Y514D01*
X2064Y514D02*
X2081Y514D01*
X2167Y514D02*
X2183Y514D01*
X2219Y514D02*
X2226Y514D01*
X0Y513D02*
X7Y513D01*
X2064Y513D02*
X2081Y513D01*
X2167Y513D02*
X2183Y513D01*
X2219Y513D02*
X2226Y513D01*
X0Y512D02*
X7Y512D01*
X2064Y512D02*
X2081Y512D01*
X2167Y512D02*
X2183Y512D01*
X2219Y512D02*
X2226Y512D01*
X0Y511D02*
X7Y511D01*
X2064Y511D02*
X2081Y511D01*
X2167Y511D02*
X2183Y511D01*
X2219Y511D02*
X2226Y511D01*
X0Y510D02*
X7Y510D01*
X2064Y510D02*
X2081Y510D01*
X2167Y510D02*
X2183Y510D01*
X2219Y510D02*
X2226Y510D01*
X0Y509D02*
X7Y509D01*
X2064Y509D02*
X2081Y509D01*
X2167Y509D02*
X2183Y509D01*
X2219Y509D02*
X2226Y509D01*
X0Y508D02*
X7Y508D01*
X2064Y508D02*
X2081Y508D01*
X2167Y508D02*
X2183Y508D01*
X2219Y508D02*
X2226Y508D01*
X0Y507D02*
X7Y507D01*
X2064Y507D02*
X2081Y507D01*
X2167Y507D02*
X2183Y507D01*
X2219Y507D02*
X2226Y507D01*
X0Y506D02*
X7Y506D01*
X2064Y506D02*
X2081Y506D01*
X2167Y506D02*
X2183Y506D01*
X2219Y506D02*
X2226Y506D01*
X0Y505D02*
X7Y505D01*
X2064Y505D02*
X2081Y505D01*
X2167Y505D02*
X2183Y505D01*
X2219Y505D02*
X2226Y505D01*
X0Y504D02*
X7Y504D01*
X2064Y504D02*
X2081Y504D01*
X2167Y504D02*
X2183Y504D01*
X2219Y504D02*
X2226Y504D01*
X0Y503D02*
X7Y503D01*
X2064Y503D02*
X2081Y503D01*
X2167Y503D02*
X2183Y503D01*
X2219Y503D02*
X2226Y503D01*
X0Y502D02*
X7Y502D01*
X2064Y502D02*
X2081Y502D01*
X2167Y502D02*
X2183Y502D01*
X2219Y502D02*
X2226Y502D01*
X0Y501D02*
X7Y501D01*
X2064Y501D02*
X2081Y501D01*
X2167Y501D02*
X2183Y501D01*
X2219Y501D02*
X2226Y501D01*
X0Y500D02*
X7Y500D01*
X2064Y500D02*
X2081Y500D01*
X2167Y500D02*
X2183Y500D01*
X2219Y500D02*
X2226Y500D01*
X0Y499D02*
X7Y499D01*
X2064Y499D02*
X2081Y499D01*
X2167Y499D02*
X2183Y499D01*
X2219Y499D02*
X2226Y499D01*
X0Y498D02*
X7Y498D01*
X2064Y498D02*
X2081Y498D01*
X2167Y498D02*
X2183Y498D01*
X2219Y498D02*
X2226Y498D01*
X0Y497D02*
X7Y497D01*
X2064Y497D02*
X2081Y497D01*
X2167Y497D02*
X2183Y497D01*
X2219Y497D02*
X2226Y497D01*
X0Y496D02*
X7Y496D01*
X2064Y496D02*
X2081Y496D01*
X2167Y496D02*
X2183Y496D01*
X2219Y496D02*
X2226Y496D01*
X0Y495D02*
X7Y495D01*
X2064Y495D02*
X2081Y495D01*
X2167Y495D02*
X2183Y495D01*
X2219Y495D02*
X2226Y495D01*
X0Y494D02*
X7Y494D01*
X2064Y494D02*
X2081Y494D01*
X2167Y494D02*
X2183Y494D01*
X2219Y494D02*
X2226Y494D01*
X0Y493D02*
X7Y493D01*
X2064Y493D02*
X2081Y493D01*
X2167Y493D02*
X2183Y493D01*
X2219Y493D02*
X2226Y493D01*
X0Y492D02*
X7Y492D01*
X2064Y492D02*
X2081Y492D01*
X2167Y492D02*
X2183Y492D01*
X2219Y492D02*
X2226Y492D01*
X0Y491D02*
X7Y491D01*
X2064Y491D02*
X2081Y491D01*
X2167Y491D02*
X2183Y491D01*
X2219Y491D02*
X2226Y491D01*
X0Y490D02*
X7Y490D01*
X2064Y490D02*
X2081Y490D01*
X2167Y490D02*
X2183Y490D01*
X2219Y490D02*
X2226Y490D01*
X0Y489D02*
X7Y489D01*
X2064Y489D02*
X2081Y489D01*
X2167Y489D02*
X2183Y489D01*
X2219Y489D02*
X2226Y489D01*
X0Y488D02*
X7Y488D01*
X2064Y488D02*
X2081Y488D01*
X2167Y488D02*
X2183Y488D01*
X2219Y488D02*
X2226Y488D01*
X0Y487D02*
X7Y487D01*
X2064Y487D02*
X2081Y487D01*
X2167Y487D02*
X2183Y487D01*
X2219Y487D02*
X2226Y487D01*
X0Y486D02*
X7Y486D01*
X2064Y486D02*
X2081Y486D01*
X2167Y486D02*
X2183Y486D01*
X2219Y486D02*
X2226Y486D01*
X0Y485D02*
X7Y485D01*
X2064Y485D02*
X2081Y485D01*
X2167Y485D02*
X2183Y485D01*
X2219Y485D02*
X2226Y485D01*
X0Y484D02*
X7Y484D01*
X2064Y484D02*
X2081Y484D01*
X2167Y484D02*
X2183Y484D01*
X2219Y484D02*
X2226Y484D01*
X0Y483D02*
X7Y483D01*
X2064Y483D02*
X2081Y483D01*
X2167Y483D02*
X2183Y483D01*
X2219Y483D02*
X2226Y483D01*
X0Y482D02*
X7Y482D01*
X2064Y482D02*
X2081Y482D01*
X2167Y482D02*
X2183Y482D01*
X2219Y482D02*
X2226Y482D01*
X0Y481D02*
X7Y481D01*
X2064Y481D02*
X2081Y481D01*
X2167Y481D02*
X2183Y481D01*
X2219Y481D02*
X2226Y481D01*
X0Y480D02*
X7Y480D01*
X2064Y480D02*
X2081Y480D01*
X2167Y480D02*
X2183Y480D01*
X2219Y480D02*
X2226Y480D01*
X0Y479D02*
X7Y479D01*
X2064Y479D02*
X2081Y479D01*
X2167Y479D02*
X2183Y479D01*
X2219Y479D02*
X2226Y479D01*
X0Y478D02*
X7Y478D01*
X2064Y478D02*
X2081Y478D01*
X2167Y478D02*
X2183Y478D01*
X2219Y478D02*
X2226Y478D01*
X0Y477D02*
X7Y477D01*
X2064Y477D02*
X2081Y477D01*
X2167Y477D02*
X2183Y477D01*
X2219Y477D02*
X2226Y477D01*
X0Y476D02*
X7Y476D01*
X2064Y476D02*
X2081Y476D01*
X2167Y476D02*
X2183Y476D01*
X2219Y476D02*
X2226Y476D01*
X0Y475D02*
X7Y475D01*
X2064Y475D02*
X2081Y475D01*
X2167Y475D02*
X2183Y475D01*
X2219Y475D02*
X2226Y475D01*
X0Y474D02*
X7Y474D01*
X2064Y474D02*
X2081Y474D01*
X2167Y474D02*
X2183Y474D01*
X2219Y474D02*
X2226Y474D01*
X0Y473D02*
X7Y473D01*
X2064Y473D02*
X2083Y473D01*
X2164Y473D02*
X2183Y473D01*
X2219Y473D02*
X2226Y473D01*
X0Y472D02*
X7Y472D01*
X2064Y472D02*
X2083Y472D01*
X2164Y472D02*
X2183Y472D01*
X2219Y472D02*
X2226Y472D01*
X0Y471D02*
X7Y471D01*
X2064Y471D02*
X2083Y471D01*
X2164Y471D02*
X2183Y471D01*
X2219Y471D02*
X2226Y471D01*
X0Y470D02*
X7Y470D01*
X509Y470D02*
X511Y470D01*
X2064Y470D02*
X2083Y470D01*
X2164Y470D02*
X2183Y470D01*
X2219Y470D02*
X2226Y470D01*
X0Y469D02*
X7Y469D01*
X476Y469D02*
X480Y469D01*
X507Y469D02*
X512Y469D01*
X2064Y469D02*
X2083Y469D01*
X2164Y469D02*
X2183Y469D01*
X2219Y469D02*
X2226Y469D01*
X0Y468D02*
X7Y468D01*
X475Y468D02*
X481Y468D01*
X507Y468D02*
X513Y468D01*
X2064Y468D02*
X2083Y468D01*
X2164Y468D02*
X2183Y468D01*
X2219Y468D02*
X2226Y468D01*
X0Y467D02*
X7Y467D01*
X474Y467D02*
X481Y467D01*
X506Y467D02*
X514Y467D01*
X2064Y467D02*
X2083Y467D01*
X2164Y467D02*
X2183Y467D01*
X2219Y467D02*
X2226Y467D01*
X0Y466D02*
X7Y466D01*
X473Y466D02*
X481Y466D01*
X506Y466D02*
X515Y466D01*
X2064Y466D02*
X2083Y466D01*
X2164Y466D02*
X2183Y466D01*
X2219Y466D02*
X2226Y466D01*
X0Y465D02*
X7Y465D01*
X473Y465D02*
X481Y465D01*
X507Y465D02*
X516Y465D01*
X2064Y465D02*
X2083Y465D01*
X2164Y465D02*
X2183Y465D01*
X2219Y465D02*
X2226Y465D01*
X0Y464D02*
X7Y464D01*
X472Y464D02*
X481Y464D01*
X507Y464D02*
X516Y464D01*
X2064Y464D02*
X2083Y464D01*
X2164Y464D02*
X2183Y464D01*
X2219Y464D02*
X2226Y464D01*
X0Y463D02*
X7Y463D01*
X471Y463D02*
X480Y463D01*
X508Y463D02*
X517Y463D01*
X2064Y463D02*
X2083Y463D01*
X2164Y463D02*
X2183Y463D01*
X2219Y463D02*
X2226Y463D01*
X0Y462D02*
X7Y462D01*
X470Y462D02*
X479Y462D01*
X509Y462D02*
X518Y462D01*
X2064Y462D02*
X2083Y462D01*
X2164Y462D02*
X2183Y462D01*
X2219Y462D02*
X2226Y462D01*
X0Y461D02*
X7Y461D01*
X470Y461D02*
X479Y461D01*
X510Y461D02*
X519Y461D01*
X582Y461D02*
X595Y461D01*
X618Y461D02*
X634Y461D01*
X2064Y461D02*
X2083Y461D01*
X2164Y461D02*
X2183Y461D01*
X2219Y461D02*
X2226Y461D01*
X0Y460D02*
X7Y460D01*
X469Y460D02*
X478Y460D01*
X510Y460D02*
X519Y460D01*
X578Y460D02*
X597Y460D01*
X616Y460D02*
X635Y460D01*
X2064Y460D02*
X2083Y460D01*
X2164Y460D02*
X2183Y460D01*
X2219Y460D02*
X2226Y460D01*
X0Y459D02*
X7Y459D01*
X468Y459D02*
X477Y459D01*
X511Y459D02*
X520Y459D01*
X576Y459D02*
X598Y459D01*
X615Y459D02*
X635Y459D01*
X988Y459D02*
X991Y459D01*
X1016Y459D02*
X1019Y459D01*
X1038Y459D02*
X1057Y459D01*
X2064Y459D02*
X2083Y459D01*
X2164Y459D02*
X2183Y459D01*
X2219Y459D02*
X2226Y459D01*
X0Y458D02*
X7Y458D01*
X468Y458D02*
X476Y458D01*
X512Y458D02*
X521Y458D01*
X575Y458D02*
X598Y458D01*
X615Y458D02*
X635Y458D01*
X987Y458D02*
X992Y458D01*
X1015Y458D02*
X1020Y458D01*
X1038Y458D02*
X1057Y458D01*
X2064Y458D02*
X2083Y458D01*
X2164Y458D02*
X2183Y458D01*
X2219Y458D02*
X2226Y458D01*
X0Y457D02*
X7Y457D01*
X467Y457D02*
X475Y457D01*
X513Y457D02*
X521Y457D01*
X574Y457D02*
X598Y457D01*
X615Y457D02*
X635Y457D01*
X987Y457D02*
X993Y457D01*
X1015Y457D02*
X1020Y457D01*
X1037Y457D02*
X1057Y457D01*
X2064Y457D02*
X2083Y457D01*
X2164Y457D02*
X2183Y457D01*
X2219Y457D02*
X2226Y457D01*
X0Y456D02*
X7Y456D01*
X466Y456D02*
X475Y456D01*
X513Y456D02*
X522Y456D01*
X574Y456D02*
X598Y456D01*
X615Y456D02*
X635Y456D01*
X987Y456D02*
X993Y456D01*
X1014Y456D02*
X1020Y456D01*
X1037Y456D02*
X1057Y456D01*
X2064Y456D02*
X2083Y456D01*
X2164Y456D02*
X2183Y456D01*
X2219Y456D02*
X2226Y456D01*
X0Y455D02*
X7Y455D01*
X466Y455D02*
X474Y455D01*
X514Y455D02*
X522Y455D01*
X573Y455D02*
X597Y455D01*
X616Y455D02*
X635Y455D01*
X987Y455D02*
X993Y455D01*
X1014Y455D02*
X1020Y455D01*
X1037Y455D02*
X1057Y455D01*
X2064Y455D02*
X2083Y455D01*
X2164Y455D02*
X2183Y455D01*
X2219Y455D02*
X2226Y455D01*
X0Y454D02*
X7Y454D01*
X465Y454D02*
X473Y454D01*
X515Y454D02*
X523Y454D01*
X573Y454D02*
X582Y454D01*
X628Y454D02*
X635Y454D01*
X987Y454D02*
X993Y454D01*
X1014Y454D02*
X1020Y454D01*
X1038Y454D02*
X1057Y454D01*
X2064Y454D02*
X2083Y454D01*
X2164Y454D02*
X2183Y454D01*
X2219Y454D02*
X2226Y454D01*
X0Y453D02*
X7Y453D01*
X465Y453D02*
X473Y453D01*
X515Y453D02*
X523Y453D01*
X572Y453D02*
X579Y453D01*
X629Y453D02*
X635Y453D01*
X987Y453D02*
X993Y453D01*
X1014Y453D02*
X1020Y453D01*
X1039Y453D02*
X1057Y453D01*
X2064Y453D02*
X2083Y453D01*
X2164Y453D02*
X2183Y453D01*
X2219Y453D02*
X2226Y453D01*
X0Y452D02*
X7Y452D01*
X464Y452D02*
X472Y452D01*
X516Y452D02*
X524Y452D01*
X572Y452D02*
X579Y452D01*
X629Y452D02*
X635Y452D01*
X987Y452D02*
X993Y452D01*
X1014Y452D02*
X1020Y452D01*
X1051Y452D02*
X1057Y452D01*
X2064Y452D02*
X2083Y452D01*
X2164Y452D02*
X2183Y452D01*
X2219Y452D02*
X2226Y452D01*
X0Y451D02*
X7Y451D01*
X464Y451D02*
X472Y451D01*
X517Y451D02*
X524Y451D01*
X571Y451D02*
X578Y451D01*
X629Y451D02*
X635Y451D01*
X987Y451D02*
X993Y451D01*
X1014Y451D02*
X1020Y451D01*
X1051Y451D02*
X1057Y451D01*
X2064Y451D02*
X2083Y451D01*
X2164Y451D02*
X2183Y451D01*
X2219Y451D02*
X2226Y451D01*
X0Y450D02*
X7Y450D01*
X463Y450D02*
X471Y450D01*
X517Y450D02*
X525Y450D01*
X571Y450D02*
X578Y450D01*
X629Y450D02*
X635Y450D01*
X987Y450D02*
X993Y450D01*
X1014Y450D02*
X1020Y450D01*
X1051Y450D02*
X1057Y450D01*
X2064Y450D02*
X2083Y450D01*
X2164Y450D02*
X2183Y450D01*
X2219Y450D02*
X2226Y450D01*
X0Y449D02*
X7Y449D01*
X463Y449D02*
X471Y449D01*
X518Y449D02*
X525Y449D01*
X570Y449D02*
X577Y449D01*
X629Y449D02*
X635Y449D01*
X987Y449D02*
X993Y449D01*
X1014Y449D02*
X1020Y449D01*
X1051Y449D02*
X1057Y449D01*
X2064Y449D02*
X2083Y449D01*
X2164Y449D02*
X2183Y449D01*
X2219Y449D02*
X2226Y449D01*
X0Y448D02*
X7Y448D01*
X462Y448D02*
X470Y448D01*
X518Y448D02*
X526Y448D01*
X570Y448D02*
X577Y448D01*
X629Y448D02*
X635Y448D01*
X987Y448D02*
X993Y448D01*
X1014Y448D02*
X1020Y448D01*
X1051Y448D02*
X1057Y448D01*
X2064Y448D02*
X2083Y448D01*
X2164Y448D02*
X2183Y448D01*
X2219Y448D02*
X2226Y448D01*
X0Y447D02*
X7Y447D01*
X462Y447D02*
X470Y447D01*
X519Y447D02*
X526Y447D01*
X569Y447D02*
X576Y447D01*
X629Y447D02*
X635Y447D01*
X987Y447D02*
X993Y447D01*
X1014Y447D02*
X1020Y447D01*
X1051Y447D02*
X1057Y447D01*
X2064Y447D02*
X2083Y447D01*
X2164Y447D02*
X2183Y447D01*
X2219Y447D02*
X2226Y447D01*
X0Y446D02*
X7Y446D01*
X462Y446D02*
X469Y446D01*
X519Y446D02*
X527Y446D01*
X569Y446D02*
X576Y446D01*
X629Y446D02*
X635Y446D01*
X987Y446D02*
X993Y446D01*
X1014Y446D02*
X1020Y446D01*
X1051Y446D02*
X1057Y446D01*
X2064Y446D02*
X2083Y446D01*
X2164Y446D02*
X2183Y446D01*
X2219Y446D02*
X2226Y446D01*
X0Y445D02*
X7Y445D01*
X461Y445D02*
X469Y445D01*
X520Y445D02*
X527Y445D01*
X568Y445D02*
X575Y445D01*
X629Y445D02*
X635Y445D01*
X987Y445D02*
X993Y445D01*
X1014Y445D02*
X1020Y445D01*
X1051Y445D02*
X1057Y445D01*
X2064Y445D02*
X2083Y445D01*
X2164Y445D02*
X2183Y445D01*
X2219Y445D02*
X2226Y445D01*
X0Y444D02*
X7Y444D01*
X461Y444D02*
X468Y444D01*
X520Y444D02*
X527Y444D01*
X568Y444D02*
X575Y444D01*
X629Y444D02*
X635Y444D01*
X987Y444D02*
X993Y444D01*
X1014Y444D02*
X1020Y444D01*
X1051Y444D02*
X1057Y444D01*
X2064Y444D02*
X2083Y444D01*
X2164Y444D02*
X2183Y444D01*
X2219Y444D02*
X2226Y444D01*
X0Y443D02*
X7Y443D01*
X460Y443D02*
X468Y443D01*
X520Y443D02*
X528Y443D01*
X567Y443D02*
X574Y443D01*
X629Y443D02*
X635Y443D01*
X987Y443D02*
X993Y443D01*
X1014Y443D02*
X1020Y443D01*
X1051Y443D02*
X1057Y443D01*
X2064Y443D02*
X2083Y443D01*
X2164Y443D02*
X2183Y443D01*
X2219Y443D02*
X2226Y443D01*
X0Y442D02*
X7Y442D01*
X460Y442D02*
X467Y442D01*
X521Y442D02*
X528Y442D01*
X567Y442D02*
X574Y442D01*
X629Y442D02*
X635Y442D01*
X987Y442D02*
X993Y442D01*
X1014Y442D02*
X1020Y442D01*
X1051Y442D02*
X1057Y442D01*
X2064Y442D02*
X2083Y442D01*
X2164Y442D02*
X2183Y442D01*
X2219Y442D02*
X2226Y442D01*
X0Y441D02*
X7Y441D01*
X460Y441D02*
X467Y441D01*
X521Y441D02*
X528Y441D01*
X566Y441D02*
X573Y441D01*
X629Y441D02*
X635Y441D01*
X987Y441D02*
X993Y441D01*
X1014Y441D02*
X1020Y441D01*
X1051Y441D02*
X1057Y441D01*
X2064Y441D02*
X2083Y441D01*
X2164Y441D02*
X2183Y441D01*
X2219Y441D02*
X2226Y441D01*
X0Y440D02*
X7Y440D01*
X459Y440D02*
X467Y440D01*
X522Y440D02*
X529Y440D01*
X566Y440D02*
X573Y440D01*
X629Y440D02*
X635Y440D01*
X987Y440D02*
X993Y440D01*
X1014Y440D02*
X1020Y440D01*
X1051Y440D02*
X1057Y440D01*
X2064Y440D02*
X2083Y440D01*
X2164Y440D02*
X2183Y440D01*
X2219Y440D02*
X2226Y440D01*
X0Y439D02*
X7Y439D01*
X459Y439D02*
X466Y439D01*
X522Y439D02*
X529Y439D01*
X565Y439D02*
X572Y439D01*
X629Y439D02*
X635Y439D01*
X987Y439D02*
X993Y439D01*
X1014Y439D02*
X1020Y439D01*
X1051Y439D02*
X1057Y439D01*
X2064Y439D02*
X2083Y439D01*
X2164Y439D02*
X2183Y439D01*
X2219Y439D02*
X2226Y439D01*
X0Y438D02*
X7Y438D01*
X459Y438D02*
X466Y438D01*
X522Y438D02*
X529Y438D01*
X565Y438D02*
X572Y438D01*
X629Y438D02*
X635Y438D01*
X987Y438D02*
X993Y438D01*
X1014Y438D02*
X1020Y438D01*
X1051Y438D02*
X1057Y438D01*
X2064Y438D02*
X2083Y438D01*
X2164Y438D02*
X2183Y438D01*
X2219Y438D02*
X2226Y438D01*
X0Y437D02*
X7Y437D01*
X459Y437D02*
X466Y437D01*
X523Y437D02*
X530Y437D01*
X565Y437D02*
X571Y437D01*
X629Y437D02*
X635Y437D01*
X987Y437D02*
X993Y437D01*
X1014Y437D02*
X1020Y437D01*
X1051Y437D02*
X1057Y437D01*
X2064Y437D02*
X2083Y437D01*
X2164Y437D02*
X2183Y437D01*
X2219Y437D02*
X2226Y437D01*
X0Y436D02*
X7Y436D01*
X458Y436D02*
X465Y436D01*
X523Y436D02*
X530Y436D01*
X565Y436D02*
X571Y436D01*
X629Y436D02*
X635Y436D01*
X987Y436D02*
X993Y436D01*
X1014Y436D02*
X1020Y436D01*
X1051Y436D02*
X1057Y436D01*
X2064Y436D02*
X2083Y436D01*
X2164Y436D02*
X2183Y436D01*
X2219Y436D02*
X2226Y436D01*
X0Y435D02*
X7Y435D01*
X258Y435D02*
X280Y435D01*
X305Y435D02*
X323Y435D01*
X458Y435D02*
X465Y435D01*
X523Y435D02*
X530Y435D01*
X565Y435D02*
X571Y435D01*
X629Y435D02*
X635Y435D01*
X987Y435D02*
X993Y435D01*
X1014Y435D02*
X1020Y435D01*
X1051Y435D02*
X1057Y435D01*
X2064Y435D02*
X2083Y435D01*
X2164Y435D02*
X2183Y435D01*
X2219Y435D02*
X2226Y435D01*
X0Y434D02*
X7Y434D01*
X256Y434D02*
X282Y434D01*
X304Y434D02*
X323Y434D01*
X458Y434D02*
X465Y434D01*
X523Y434D02*
X530Y434D01*
X565Y434D02*
X571Y434D01*
X629Y434D02*
X635Y434D01*
X987Y434D02*
X993Y434D01*
X1014Y434D02*
X1020Y434D01*
X1051Y434D02*
X1057Y434D01*
X2064Y434D02*
X2083Y434D01*
X2164Y434D02*
X2183Y434D01*
X2219Y434D02*
X2226Y434D01*
X0Y433D02*
X7Y433D01*
X255Y433D02*
X284Y433D01*
X303Y433D02*
X323Y433D01*
X458Y433D02*
X464Y433D01*
X524Y433D02*
X531Y433D01*
X565Y433D02*
X571Y433D01*
X629Y433D02*
X635Y433D01*
X987Y433D02*
X993Y433D01*
X1014Y433D02*
X1020Y433D01*
X1051Y433D02*
X1057Y433D01*
X2064Y433D02*
X2083Y433D01*
X2164Y433D02*
X2183Y433D01*
X2219Y433D02*
X2226Y433D01*
X0Y432D02*
X7Y432D01*
X254Y432D02*
X285Y432D01*
X303Y432D02*
X323Y432D01*
X457Y432D02*
X464Y432D01*
X524Y432D02*
X531Y432D01*
X565Y432D02*
X571Y432D01*
X629Y432D02*
X635Y432D01*
X987Y432D02*
X993Y432D01*
X1014Y432D02*
X1020Y432D01*
X1051Y432D02*
X1057Y432D01*
X2064Y432D02*
X2083Y432D01*
X2164Y432D02*
X2183Y432D01*
X2219Y432D02*
X2226Y432D01*
X0Y431D02*
X7Y431D01*
X254Y431D02*
X285Y431D01*
X303Y431D02*
X323Y431D01*
X457Y431D02*
X464Y431D01*
X524Y431D02*
X531Y431D01*
X565Y431D02*
X571Y431D01*
X629Y431D02*
X635Y431D01*
X644Y431D02*
X647Y431D01*
X987Y431D02*
X993Y431D01*
X1014Y431D02*
X1020Y431D01*
X1051Y431D02*
X1057Y431D01*
X2064Y431D02*
X2083Y431D01*
X2164Y431D02*
X2183Y431D01*
X2219Y431D02*
X2226Y431D01*
X0Y430D02*
X7Y430D01*
X253Y430D02*
X286Y430D01*
X304Y430D02*
X323Y430D01*
X457Y430D02*
X464Y430D01*
X524Y430D02*
X531Y430D01*
X565Y430D02*
X572Y430D01*
X629Y430D02*
X635Y430D01*
X643Y430D02*
X648Y430D01*
X987Y430D02*
X993Y430D01*
X1014Y430D02*
X1020Y430D01*
X1051Y430D02*
X1057Y430D01*
X1067Y430D02*
X1069Y430D01*
X2064Y430D02*
X2083Y430D01*
X2164Y430D02*
X2183Y430D01*
X2219Y430D02*
X2226Y430D01*
X0Y429D02*
X7Y429D01*
X253Y429D02*
X286Y429D01*
X305Y429D02*
X323Y429D01*
X457Y429D02*
X464Y429D01*
X525Y429D02*
X531Y429D01*
X565Y429D02*
X572Y429D01*
X629Y429D02*
X635Y429D01*
X643Y429D02*
X648Y429D01*
X987Y429D02*
X993Y429D01*
X1014Y429D02*
X1020Y429D01*
X1051Y429D02*
X1057Y429D01*
X1065Y429D02*
X1070Y429D01*
X2064Y429D02*
X2083Y429D01*
X2165Y429D02*
X2183Y429D01*
X2219Y429D02*
X2226Y429D01*
X0Y428D02*
X7Y428D01*
X253Y428D02*
X259Y428D01*
X280Y428D02*
X286Y428D01*
X317Y428D02*
X323Y428D01*
X457Y428D02*
X463Y428D01*
X525Y428D02*
X531Y428D01*
X566Y428D02*
X573Y428D01*
X629Y428D02*
X635Y428D01*
X642Y428D02*
X648Y428D01*
X987Y428D02*
X993Y428D01*
X1014Y428D02*
X1020Y428D01*
X1051Y428D02*
X1057Y428D01*
X1065Y428D02*
X1070Y428D01*
X2064Y428D02*
X2083Y428D01*
X2165Y428D02*
X2183Y428D01*
X2219Y428D02*
X2226Y428D01*
X0Y427D02*
X7Y427D01*
X253Y427D02*
X259Y427D01*
X280Y427D02*
X287Y427D01*
X317Y427D02*
X323Y427D01*
X457Y427D02*
X463Y427D01*
X525Y427D02*
X532Y427D01*
X566Y427D02*
X573Y427D01*
X629Y427D02*
X635Y427D01*
X642Y427D02*
X648Y427D01*
X987Y427D02*
X993Y427D01*
X1014Y427D02*
X1020Y427D01*
X1051Y427D02*
X1057Y427D01*
X1065Y427D02*
X1071Y427D01*
X2064Y427D02*
X2083Y427D01*
X2165Y427D02*
X2183Y427D01*
X2219Y427D02*
X2226Y427D01*
X0Y426D02*
X7Y426D01*
X253Y426D02*
X260Y426D01*
X281Y426D02*
X287Y426D01*
X317Y426D02*
X323Y426D01*
X456Y426D02*
X463Y426D01*
X525Y426D02*
X532Y426D01*
X567Y426D02*
X574Y426D01*
X629Y426D02*
X635Y426D01*
X642Y426D02*
X648Y426D01*
X987Y426D02*
X993Y426D01*
X1014Y426D02*
X1020Y426D01*
X1051Y426D02*
X1057Y426D01*
X1065Y426D02*
X1071Y426D01*
X2064Y426D02*
X2082Y426D01*
X2166Y426D02*
X2183Y426D01*
X2219Y426D02*
X2226Y426D01*
X0Y425D02*
X7Y425D01*
X253Y425D02*
X261Y425D01*
X281Y425D02*
X286Y425D01*
X317Y425D02*
X323Y425D01*
X456Y425D02*
X463Y425D01*
X525Y425D02*
X532Y425D01*
X567Y425D02*
X574Y425D01*
X629Y425D02*
X635Y425D01*
X642Y425D02*
X648Y425D01*
X987Y425D02*
X993Y425D01*
X1014Y425D02*
X1020Y425D01*
X1051Y425D02*
X1057Y425D01*
X1065Y425D02*
X1071Y425D01*
X2064Y425D02*
X2082Y425D01*
X2166Y425D02*
X2183Y425D01*
X2219Y425D02*
X2226Y425D01*
X0Y424D02*
X7Y424D01*
X254Y424D02*
X262Y424D01*
X281Y424D02*
X286Y424D01*
X317Y424D02*
X323Y424D01*
X456Y424D02*
X463Y424D01*
X525Y424D02*
X532Y424D01*
X568Y424D02*
X575Y424D01*
X629Y424D02*
X635Y424D01*
X642Y424D02*
X648Y424D01*
X987Y424D02*
X993Y424D01*
X1014Y424D02*
X1020Y424D01*
X1051Y424D02*
X1057Y424D01*
X1065Y424D02*
X1071Y424D01*
X2064Y424D02*
X2082Y424D01*
X2166Y424D02*
X2183Y424D01*
X2219Y424D02*
X2226Y424D01*
X0Y423D02*
X7Y423D01*
X254Y423D02*
X262Y423D01*
X283Y423D02*
X284Y423D01*
X317Y423D02*
X323Y423D01*
X456Y423D02*
X463Y423D01*
X525Y423D02*
X532Y423D01*
X568Y423D02*
X575Y423D01*
X629Y423D02*
X635Y423D01*
X642Y423D02*
X648Y423D01*
X987Y423D02*
X993Y423D01*
X1014Y423D02*
X1020Y423D01*
X1051Y423D02*
X1057Y423D01*
X1065Y423D02*
X1071Y423D01*
X2064Y423D02*
X2082Y423D01*
X2166Y423D02*
X2183Y423D01*
X2219Y423D02*
X2226Y423D01*
X0Y422D02*
X7Y422D01*
X255Y422D02*
X263Y422D01*
X317Y422D02*
X323Y422D01*
X456Y422D02*
X463Y422D01*
X526Y422D02*
X532Y422D01*
X569Y422D02*
X576Y422D01*
X629Y422D02*
X635Y422D01*
X642Y422D02*
X648Y422D01*
X987Y422D02*
X993Y422D01*
X1014Y422D02*
X1020Y422D01*
X1051Y422D02*
X1057Y422D01*
X1065Y422D02*
X1071Y422D01*
X2064Y422D02*
X2081Y422D01*
X2166Y422D02*
X2183Y422D01*
X2219Y422D02*
X2226Y422D01*
X0Y421D02*
X7Y421D01*
X256Y421D02*
X264Y421D01*
X317Y421D02*
X323Y421D01*
X456Y421D02*
X463Y421D01*
X526Y421D02*
X532Y421D01*
X569Y421D02*
X576Y421D01*
X629Y421D02*
X635Y421D01*
X642Y421D02*
X648Y421D01*
X987Y421D02*
X993Y421D01*
X1014Y421D02*
X1020Y421D01*
X1051Y421D02*
X1057Y421D01*
X1065Y421D02*
X1071Y421D01*
X2064Y421D02*
X2081Y421D01*
X2167Y421D02*
X2183Y421D01*
X2219Y421D02*
X2226Y421D01*
X0Y420D02*
X7Y420D01*
X257Y420D02*
X265Y420D01*
X317Y420D02*
X323Y420D01*
X456Y420D02*
X462Y420D01*
X526Y420D02*
X532Y420D01*
X570Y420D02*
X577Y420D01*
X629Y420D02*
X635Y420D01*
X642Y420D02*
X648Y420D01*
X987Y420D02*
X993Y420D01*
X1014Y420D02*
X1020Y420D01*
X1051Y420D02*
X1057Y420D01*
X1065Y420D02*
X1071Y420D01*
X2064Y420D02*
X2081Y420D01*
X2167Y420D02*
X2183Y420D01*
X2219Y420D02*
X2226Y420D01*
X0Y419D02*
X7Y419D01*
X258Y419D02*
X266Y419D01*
X317Y419D02*
X323Y419D01*
X456Y419D02*
X462Y419D01*
X526Y419D02*
X532Y419D01*
X570Y419D02*
X577Y419D01*
X629Y419D02*
X635Y419D01*
X642Y419D02*
X648Y419D01*
X987Y419D02*
X993Y419D01*
X1014Y419D02*
X1020Y419D01*
X1051Y419D02*
X1057Y419D01*
X1065Y419D02*
X1071Y419D01*
X2064Y419D02*
X2081Y419D01*
X2167Y419D02*
X2183Y419D01*
X2219Y419D02*
X2226Y419D01*
X0Y418D02*
X7Y418D01*
X258Y418D02*
X266Y418D01*
X317Y418D02*
X323Y418D01*
X456Y418D02*
X462Y418D01*
X526Y418D02*
X532Y418D01*
X571Y418D02*
X578Y418D01*
X629Y418D02*
X635Y418D01*
X642Y418D02*
X648Y418D01*
X987Y418D02*
X993Y418D01*
X1014Y418D02*
X1020Y418D01*
X1051Y418D02*
X1057Y418D01*
X1065Y418D02*
X1071Y418D01*
X2064Y418D02*
X2081Y418D01*
X2167Y418D02*
X2183Y418D01*
X2219Y418D02*
X2226Y418D01*
X0Y417D02*
X7Y417D01*
X259Y417D02*
X267Y417D01*
X317Y417D02*
X323Y417D01*
X456Y417D02*
X462Y417D01*
X526Y417D02*
X532Y417D01*
X571Y417D02*
X578Y417D01*
X629Y417D02*
X635Y417D01*
X642Y417D02*
X648Y417D01*
X987Y417D02*
X993Y417D01*
X1014Y417D02*
X1020Y417D01*
X1051Y417D02*
X1057Y417D01*
X1065Y417D02*
X1071Y417D01*
X2064Y417D02*
X2081Y417D01*
X2167Y417D02*
X2183Y417D01*
X2219Y417D02*
X2226Y417D01*
X0Y416D02*
X7Y416D01*
X260Y416D02*
X268Y416D01*
X317Y416D02*
X323Y416D01*
X456Y416D02*
X462Y416D01*
X526Y416D02*
X532Y416D01*
X572Y416D02*
X579Y416D01*
X629Y416D02*
X635Y416D01*
X642Y416D02*
X648Y416D01*
X987Y416D02*
X993Y416D01*
X1014Y416D02*
X1020Y416D01*
X1051Y416D02*
X1057Y416D01*
X1065Y416D02*
X1071Y416D01*
X2064Y416D02*
X2081Y416D01*
X2167Y416D02*
X2183Y416D01*
X2219Y416D02*
X2226Y416D01*
X0Y415D02*
X7Y415D01*
X261Y415D02*
X269Y415D01*
X317Y415D02*
X323Y415D01*
X456Y415D02*
X462Y415D01*
X526Y415D02*
X532Y415D01*
X572Y415D02*
X579Y415D01*
X629Y415D02*
X635Y415D01*
X642Y415D02*
X648Y415D01*
X987Y415D02*
X993Y415D01*
X1014Y415D02*
X1020Y415D01*
X1051Y415D02*
X1057Y415D01*
X1065Y415D02*
X1071Y415D01*
X2064Y415D02*
X2081Y415D01*
X2167Y415D02*
X2183Y415D01*
X2219Y415D02*
X2226Y415D01*
X0Y414D02*
X7Y414D01*
X261Y414D02*
X269Y414D01*
X317Y414D02*
X323Y414D01*
X456Y414D02*
X462Y414D01*
X526Y414D02*
X532Y414D01*
X573Y414D02*
X581Y414D01*
X628Y414D02*
X635Y414D01*
X642Y414D02*
X648Y414D01*
X987Y414D02*
X994Y414D01*
X1014Y414D02*
X1020Y414D01*
X1051Y414D02*
X1057Y414D01*
X1065Y414D02*
X1071Y414D01*
X2064Y414D02*
X2081Y414D01*
X2167Y414D02*
X2183Y414D01*
X2219Y414D02*
X2226Y414D01*
X0Y413D02*
X7Y413D01*
X262Y413D02*
X270Y413D01*
X317Y413D02*
X323Y413D01*
X456Y413D02*
X462Y413D01*
X526Y413D02*
X532Y413D01*
X573Y413D02*
X597Y413D01*
X616Y413D02*
X648Y413D01*
X987Y413D02*
X995Y413D01*
X1012Y413D02*
X1020Y413D01*
X1051Y413D02*
X1057Y413D01*
X1065Y413D02*
X1071Y413D01*
X2064Y413D02*
X2081Y413D01*
X2167Y413D02*
X2183Y413D01*
X2219Y413D02*
X2226Y413D01*
X0Y412D02*
X7Y412D01*
X263Y412D02*
X271Y412D01*
X317Y412D02*
X323Y412D01*
X456Y412D02*
X462Y412D01*
X526Y412D02*
X532Y412D01*
X574Y412D02*
X598Y412D01*
X615Y412D02*
X648Y412D01*
X988Y412D02*
X1020Y412D01*
X1039Y412D02*
X1071Y412D01*
X2064Y412D02*
X2081Y412D01*
X2167Y412D02*
X2183Y412D01*
X2219Y412D02*
X2226Y412D01*
X0Y411D02*
X7Y411D01*
X264Y411D02*
X272Y411D01*
X317Y411D02*
X323Y411D01*
X456Y411D02*
X463Y411D01*
X526Y411D02*
X532Y411D01*
X574Y411D02*
X598Y411D01*
X615Y411D02*
X648Y411D01*
X988Y411D02*
X1019Y411D01*
X1038Y411D02*
X1071Y411D01*
X2064Y411D02*
X2081Y411D01*
X2167Y411D02*
X2183Y411D01*
X2219Y411D02*
X2226Y411D01*
X0Y410D02*
X7Y410D01*
X265Y410D02*
X273Y410D01*
X317Y410D02*
X323Y410D01*
X456Y410D02*
X463Y410D01*
X526Y410D02*
X532Y410D01*
X575Y410D02*
X598Y410D01*
X615Y410D02*
X648Y410D01*
X989Y410D02*
X1018Y410D01*
X1037Y410D02*
X1071Y410D01*
X2064Y410D02*
X2082Y410D01*
X2166Y410D02*
X2183Y410D01*
X2219Y410D02*
X2226Y410D01*
X0Y409D02*
X7Y409D01*
X265Y409D02*
X273Y409D01*
X317Y409D02*
X323Y409D01*
X456Y409D02*
X463Y409D01*
X525Y409D02*
X532Y409D01*
X577Y409D02*
X598Y409D01*
X615Y409D02*
X648Y409D01*
X990Y409D02*
X1018Y409D01*
X1037Y409D02*
X1071Y409D01*
X2064Y409D02*
X2082Y409D01*
X2166Y409D02*
X2183Y409D01*
X2219Y409D02*
X2226Y409D01*
X0Y408D02*
X7Y408D01*
X266Y408D02*
X274Y408D01*
X317Y408D02*
X323Y408D01*
X456Y408D02*
X463Y408D01*
X525Y408D02*
X532Y408D01*
X578Y408D02*
X597Y408D01*
X616Y408D02*
X647Y408D01*
X991Y408D02*
X1017Y408D01*
X1037Y408D02*
X1070Y408D01*
X2064Y408D02*
X2082Y408D01*
X2166Y408D02*
X2183Y408D01*
X2219Y408D02*
X2226Y408D01*
X0Y407D02*
X7Y407D01*
X267Y407D02*
X275Y407D01*
X317Y407D02*
X323Y407D01*
X456Y407D02*
X463Y407D01*
X525Y407D02*
X532Y407D01*
X581Y407D02*
X596Y407D01*
X617Y407D02*
X646Y407D01*
X992Y407D02*
X1015Y407D01*
X1038Y407D02*
X1070Y407D01*
X2064Y407D02*
X2082Y407D01*
X2166Y407D02*
X2183Y407D01*
X2219Y407D02*
X2226Y407D01*
X0Y406D02*
X7Y406D01*
X268Y406D02*
X276Y406D01*
X317Y406D02*
X323Y406D01*
X333Y406D02*
X334Y406D01*
X456Y406D02*
X463Y406D01*
X525Y406D02*
X532Y406D01*
X994Y406D02*
X1013Y406D01*
X1039Y406D02*
X1069Y406D01*
X2064Y406D02*
X2083Y406D01*
X2165Y406D02*
X2183Y406D01*
X2219Y406D02*
X2226Y406D01*
X0Y405D02*
X7Y405D01*
X268Y405D02*
X276Y405D01*
X317Y405D02*
X323Y405D01*
X332Y405D02*
X336Y405D01*
X457Y405D02*
X463Y405D01*
X525Y405D02*
X532Y405D01*
X2064Y405D02*
X2083Y405D01*
X2165Y405D02*
X2183Y405D01*
X2219Y405D02*
X2226Y405D01*
X0Y404D02*
X7Y404D01*
X269Y404D02*
X277Y404D01*
X317Y404D02*
X323Y404D01*
X331Y404D02*
X336Y404D01*
X457Y404D02*
X463Y404D01*
X525Y404D02*
X531Y404D01*
X2064Y404D02*
X2083Y404D01*
X2165Y404D02*
X2183Y404D01*
X2219Y404D02*
X2226Y404D01*
X0Y403D02*
X7Y403D01*
X270Y403D02*
X278Y403D01*
X317Y403D02*
X323Y403D01*
X331Y403D02*
X337Y403D01*
X457Y403D02*
X464Y403D01*
X525Y403D02*
X531Y403D01*
X2064Y403D02*
X2083Y403D01*
X2164Y403D02*
X2183Y403D01*
X2219Y403D02*
X2226Y403D01*
X0Y402D02*
X7Y402D01*
X271Y402D02*
X279Y402D01*
X317Y402D02*
X323Y402D01*
X331Y402D02*
X337Y402D01*
X457Y402D02*
X464Y402D01*
X524Y402D02*
X531Y402D01*
X2064Y402D02*
X2083Y402D01*
X2164Y402D02*
X2183Y402D01*
X2219Y402D02*
X2226Y402D01*
X0Y401D02*
X7Y401D01*
X272Y401D02*
X280Y401D01*
X317Y401D02*
X323Y401D01*
X331Y401D02*
X337Y401D01*
X457Y401D02*
X464Y401D01*
X524Y401D02*
X531Y401D01*
X2064Y401D02*
X2083Y401D01*
X2164Y401D02*
X2183Y401D01*
X2219Y401D02*
X2226Y401D01*
X0Y400D02*
X7Y400D01*
X272Y400D02*
X280Y400D01*
X317Y400D02*
X323Y400D01*
X331Y400D02*
X337Y400D01*
X457Y400D02*
X464Y400D01*
X524Y400D02*
X531Y400D01*
X2064Y400D02*
X2083Y400D01*
X2164Y400D02*
X2183Y400D01*
X2219Y400D02*
X2226Y400D01*
X0Y399D02*
X7Y399D01*
X273Y399D02*
X281Y399D01*
X317Y399D02*
X323Y399D01*
X331Y399D02*
X337Y399D01*
X458Y399D02*
X465Y399D01*
X524Y399D02*
X530Y399D01*
X2064Y399D02*
X2083Y399D01*
X2164Y399D02*
X2183Y399D01*
X2219Y399D02*
X2226Y399D01*
X0Y398D02*
X7Y398D01*
X274Y398D02*
X282Y398D01*
X317Y398D02*
X323Y398D01*
X331Y398D02*
X337Y398D01*
X458Y398D02*
X465Y398D01*
X523Y398D02*
X530Y398D01*
X2064Y398D02*
X2083Y398D01*
X2164Y398D02*
X2183Y398D01*
X2219Y398D02*
X2226Y398D01*
X0Y397D02*
X7Y397D01*
X275Y397D02*
X283Y397D01*
X317Y397D02*
X323Y397D01*
X331Y397D02*
X337Y397D01*
X458Y397D02*
X465Y397D01*
X523Y397D02*
X530Y397D01*
X2064Y397D02*
X2083Y397D01*
X2164Y397D02*
X2183Y397D01*
X2219Y397D02*
X2226Y397D01*
X0Y396D02*
X7Y396D01*
X275Y396D02*
X283Y396D01*
X317Y396D02*
X323Y396D01*
X331Y396D02*
X337Y396D01*
X458Y396D02*
X465Y396D01*
X523Y396D02*
X530Y396D01*
X2064Y396D02*
X2083Y396D01*
X2164Y396D02*
X2183Y396D01*
X2219Y396D02*
X2226Y396D01*
X0Y395D02*
X7Y395D01*
X276Y395D02*
X284Y395D01*
X317Y395D02*
X323Y395D01*
X331Y395D02*
X337Y395D01*
X459Y395D02*
X466Y395D01*
X523Y395D02*
X530Y395D01*
X2064Y395D02*
X2083Y395D01*
X2164Y395D02*
X2183Y395D01*
X2219Y395D02*
X2226Y395D01*
X0Y394D02*
X7Y394D01*
X255Y394D02*
X257Y394D01*
X277Y394D02*
X285Y394D01*
X317Y394D02*
X323Y394D01*
X331Y394D02*
X337Y394D01*
X459Y394D02*
X466Y394D01*
X522Y394D02*
X529Y394D01*
X2064Y394D02*
X2083Y394D01*
X2164Y394D02*
X2183Y394D01*
X2219Y394D02*
X2226Y394D01*
X0Y393D02*
X7Y393D01*
X254Y393D02*
X258Y393D01*
X278Y393D02*
X286Y393D01*
X317Y393D02*
X323Y393D01*
X331Y393D02*
X337Y393D01*
X459Y393D02*
X466Y393D01*
X522Y393D02*
X529Y393D01*
X2064Y393D02*
X2083Y393D01*
X2164Y393D02*
X2183Y393D01*
X2219Y393D02*
X2226Y393D01*
X0Y392D02*
X7Y392D01*
X253Y392D02*
X259Y392D01*
X279Y392D02*
X286Y392D01*
X317Y392D02*
X323Y392D01*
X331Y392D02*
X337Y392D01*
X460Y392D02*
X467Y392D01*
X521Y392D02*
X529Y392D01*
X2064Y392D02*
X2083Y392D01*
X2164Y392D02*
X2183Y392D01*
X2219Y392D02*
X2226Y392D01*
X0Y391D02*
X7Y391D01*
X253Y391D02*
X259Y391D01*
X279Y391D02*
X286Y391D01*
X317Y391D02*
X323Y391D01*
X331Y391D02*
X337Y391D01*
X460Y391D02*
X467Y391D01*
X521Y391D02*
X528Y391D01*
X2064Y391D02*
X2083Y391D01*
X2164Y391D02*
X2183Y391D01*
X2219Y391D02*
X2226Y391D01*
X0Y390D02*
X7Y390D01*
X253Y390D02*
X259Y390D01*
X280Y390D02*
X286Y390D01*
X317Y390D02*
X323Y390D01*
X331Y390D02*
X337Y390D01*
X460Y390D02*
X467Y390D01*
X521Y390D02*
X528Y390D01*
X2064Y390D02*
X2083Y390D01*
X2164Y390D02*
X2183Y390D01*
X2219Y390D02*
X2226Y390D01*
X0Y389D02*
X7Y389D01*
X253Y389D02*
X260Y389D01*
X280Y389D02*
X286Y389D01*
X317Y389D02*
X323Y389D01*
X331Y389D02*
X337Y389D01*
X461Y389D02*
X468Y389D01*
X520Y389D02*
X528Y389D01*
X2064Y389D02*
X2083Y389D01*
X2164Y389D02*
X2183Y389D01*
X2219Y389D02*
X2226Y389D01*
X0Y388D02*
X7Y388D01*
X253Y388D02*
X286Y388D01*
X305Y388D02*
X337Y388D01*
X461Y388D02*
X468Y388D01*
X520Y388D02*
X527Y388D01*
X2064Y388D02*
X2083Y388D01*
X2164Y388D02*
X2183Y388D01*
X2219Y388D02*
X2226Y388D01*
X0Y387D02*
X7Y387D01*
X254Y387D02*
X286Y387D01*
X304Y387D02*
X337Y387D01*
X461Y387D02*
X469Y387D01*
X519Y387D02*
X527Y387D01*
X2064Y387D02*
X2083Y387D01*
X2164Y387D02*
X2183Y387D01*
X2219Y387D02*
X2226Y387D01*
X0Y386D02*
X7Y386D01*
X254Y386D02*
X286Y386D01*
X303Y386D02*
X337Y386D01*
X462Y386D02*
X469Y386D01*
X519Y386D02*
X526Y386D01*
X2064Y386D02*
X2083Y386D01*
X2164Y386D02*
X2183Y386D01*
X2219Y386D02*
X2226Y386D01*
X0Y385D02*
X7Y385D01*
X255Y385D02*
X285Y385D01*
X303Y385D02*
X337Y385D01*
X462Y385D02*
X470Y385D01*
X518Y385D02*
X526Y385D01*
X2064Y385D02*
X2083Y385D01*
X2164Y385D02*
X2183Y385D01*
X2219Y385D02*
X2226Y385D01*
X0Y384D02*
X7Y384D01*
X256Y384D02*
X284Y384D01*
X303Y384D02*
X337Y384D01*
X463Y384D02*
X470Y384D01*
X518Y384D02*
X526Y384D01*
X2064Y384D02*
X2083Y384D01*
X2164Y384D02*
X2183Y384D01*
X2219Y384D02*
X2226Y384D01*
X0Y383D02*
X7Y383D01*
X257Y383D02*
X283Y383D01*
X304Y383D02*
X336Y383D01*
X463Y383D02*
X471Y383D01*
X517Y383D02*
X525Y383D01*
X2064Y383D02*
X2083Y383D01*
X2164Y383D02*
X2183Y383D01*
X2219Y383D02*
X2226Y383D01*
X0Y382D02*
X7Y382D01*
X259Y382D02*
X282Y382D01*
X305Y382D02*
X335Y382D01*
X463Y382D02*
X471Y382D01*
X517Y382D02*
X525Y382D01*
X2064Y382D02*
X2083Y382D01*
X2164Y382D02*
X2183Y382D01*
X2219Y382D02*
X2226Y382D01*
X0Y381D02*
X7Y381D01*
X464Y381D02*
X472Y381D01*
X516Y381D02*
X524Y381D01*
X2064Y381D02*
X2083Y381D01*
X2164Y381D02*
X2183Y381D01*
X2219Y381D02*
X2226Y381D01*
X0Y380D02*
X7Y380D01*
X464Y380D02*
X472Y380D01*
X516Y380D02*
X524Y380D01*
X2064Y380D02*
X2083Y380D01*
X2164Y380D02*
X2183Y380D01*
X2219Y380D02*
X2226Y380D01*
X0Y379D02*
X7Y379D01*
X465Y379D02*
X473Y379D01*
X515Y379D02*
X523Y379D01*
X2064Y379D02*
X2083Y379D01*
X2164Y379D02*
X2183Y379D01*
X2219Y379D02*
X2226Y379D01*
X0Y378D02*
X7Y378D01*
X465Y378D02*
X474Y378D01*
X514Y378D02*
X523Y378D01*
X2064Y378D02*
X2083Y378D01*
X2164Y378D02*
X2183Y378D01*
X2219Y378D02*
X2226Y378D01*
X0Y377D02*
X7Y377D01*
X466Y377D02*
X474Y377D01*
X514Y377D02*
X522Y377D01*
X2064Y377D02*
X2083Y377D01*
X2164Y377D02*
X2183Y377D01*
X2219Y377D02*
X2226Y377D01*
X0Y376D02*
X7Y376D01*
X467Y376D02*
X475Y376D01*
X513Y376D02*
X522Y376D01*
X2064Y376D02*
X2111Y376D01*
X2137Y376D02*
X2183Y376D01*
X2219Y376D02*
X2226Y376D01*
X0Y375D02*
X7Y375D01*
X467Y375D02*
X476Y375D01*
X512Y375D02*
X521Y375D01*
X2064Y375D02*
X2114Y375D01*
X2134Y375D02*
X2183Y375D01*
X2219Y375D02*
X2226Y375D01*
X0Y374D02*
X7Y374D01*
X468Y374D02*
X476Y374D01*
X512Y374D02*
X520Y374D01*
X2064Y374D02*
X2119Y374D01*
X2129Y374D02*
X2183Y374D01*
X2219Y374D02*
X2226Y374D01*
X0Y373D02*
X7Y373D01*
X468Y373D02*
X477Y373D01*
X511Y373D02*
X520Y373D01*
X2064Y373D02*
X2183Y373D01*
X2219Y373D02*
X2226Y373D01*
X0Y372D02*
X7Y372D01*
X469Y372D02*
X478Y372D01*
X510Y372D02*
X519Y372D01*
X2064Y372D02*
X2183Y372D01*
X2219Y372D02*
X2226Y372D01*
X0Y371D02*
X7Y371D01*
X470Y371D02*
X479Y371D01*
X509Y371D02*
X518Y371D01*
X2064Y371D02*
X2183Y371D01*
X2219Y371D02*
X2226Y371D01*
X0Y370D02*
X7Y370D01*
X471Y370D02*
X480Y370D01*
X508Y370D02*
X518Y370D01*
X2064Y370D02*
X2183Y370D01*
X2219Y370D02*
X2226Y370D01*
X0Y369D02*
X7Y369D01*
X471Y369D02*
X481Y369D01*
X508Y369D02*
X517Y369D01*
X2064Y369D02*
X2183Y369D01*
X2219Y369D02*
X2226Y369D01*
X0Y368D02*
X7Y368D01*
X472Y368D02*
X481Y368D01*
X507Y368D02*
X516Y368D01*
X2064Y368D02*
X2183Y368D01*
X2219Y368D02*
X2226Y368D01*
X0Y367D02*
X7Y367D01*
X473Y367D02*
X482Y367D01*
X507Y367D02*
X515Y367D01*
X2064Y367D02*
X2183Y367D01*
X2219Y367D02*
X2226Y367D01*
X0Y366D02*
X7Y366D01*
X474Y366D02*
X482Y366D01*
X507Y366D02*
X515Y366D01*
X2074Y366D02*
X2173Y366D01*
X2219Y366D02*
X2226Y366D01*
X0Y365D02*
X7Y365D01*
X474Y365D02*
X482Y365D01*
X507Y365D02*
X514Y365D01*
X2074Y365D02*
X2173Y365D01*
X2219Y365D02*
X2226Y365D01*
X0Y364D02*
X7Y364D01*
X475Y364D02*
X481Y364D01*
X508Y364D02*
X513Y364D01*
X2074Y364D02*
X2173Y364D01*
X2219Y364D02*
X2226Y364D01*
X0Y363D02*
X7Y363D01*
X476Y363D02*
X481Y363D01*
X509Y363D02*
X512Y363D01*
X2074Y363D02*
X2173Y363D01*
X2219Y363D02*
X2226Y363D01*
X0Y362D02*
X7Y362D01*
X2074Y362D02*
X2173Y362D01*
X2219Y362D02*
X2226Y362D01*
X0Y361D02*
X7Y361D01*
X2074Y361D02*
X2173Y361D01*
X2219Y361D02*
X2226Y361D01*
X0Y360D02*
X7Y360D01*
X2074Y360D02*
X2173Y360D01*
X2219Y360D02*
X2226Y360D01*
X0Y359D02*
X7Y359D01*
X2074Y359D02*
X2173Y359D01*
X2219Y359D02*
X2226Y359D01*
X0Y358D02*
X7Y358D01*
X2074Y358D02*
X2173Y358D01*
X2219Y358D02*
X2226Y358D01*
X0Y357D02*
X7Y357D01*
X2074Y357D02*
X2173Y357D01*
X2219Y357D02*
X2226Y357D01*
X0Y356D02*
X7Y356D01*
X2219Y356D02*
X2226Y356D01*
X0Y355D02*
X7Y355D01*
X2219Y355D02*
X2226Y355D01*
X0Y354D02*
X7Y354D01*
X2219Y354D02*
X2226Y354D01*
X0Y353D02*
X7Y353D01*
X2219Y353D02*
X2226Y353D01*
X0Y352D02*
X7Y352D01*
X2219Y352D02*
X2226Y352D01*
X0Y351D02*
X7Y351D01*
X2219Y351D02*
X2226Y351D01*
X0Y350D02*
X7Y350D01*
X2219Y350D02*
X2226Y350D01*
X0Y349D02*
X7Y349D01*
X2219Y349D02*
X2226Y349D01*
X0Y348D02*
X7Y348D01*
X2219Y348D02*
X2226Y348D01*
X0Y347D02*
X7Y347D01*
X2219Y347D02*
X2226Y347D01*
X0Y346D02*
X7Y346D01*
X2219Y346D02*
X2226Y346D01*
X0Y345D02*
X7Y345D01*
X2219Y345D02*
X2226Y345D01*
X0Y344D02*
X7Y344D01*
X2219Y344D02*
X2226Y344D01*
X0Y343D02*
X7Y343D01*
X2219Y343D02*
X2226Y343D01*
X0Y342D02*
X7Y342D01*
X2219Y342D02*
X2226Y342D01*
X0Y341D02*
X7Y341D01*
X2219Y341D02*
X2226Y341D01*
X0Y340D02*
X7Y340D01*
X2219Y340D02*
X2226Y340D01*
X0Y339D02*
X7Y339D01*
X2219Y339D02*
X2226Y339D01*
X0Y338D02*
X7Y338D01*
X2219Y338D02*
X2226Y338D01*
X0Y337D02*
X7Y337D01*
X2219Y337D02*
X2226Y337D01*
X0Y336D02*
X7Y336D01*
X2219Y336D02*
X2226Y336D01*
X0Y335D02*
X7Y335D01*
X2219Y335D02*
X2226Y335D01*
X0Y334D02*
X7Y334D01*
X2219Y334D02*
X2226Y334D01*
X0Y333D02*
X7Y333D01*
X2219Y333D02*
X2226Y333D01*
X0Y332D02*
X7Y332D01*
X2219Y332D02*
X2226Y332D01*
X0Y331D02*
X7Y331D01*
X2219Y331D02*
X2226Y331D01*
X0Y330D02*
X7Y330D01*
X2219Y330D02*
X2226Y330D01*
X0Y329D02*
X7Y329D01*
X2219Y329D02*
X2226Y329D01*
X0Y328D02*
X7Y328D01*
X2219Y328D02*
X2226Y328D01*
X0Y327D02*
X7Y327D01*
X2219Y327D02*
X2226Y327D01*
X0Y326D02*
X7Y326D01*
X2219Y326D02*
X2226Y326D01*
X0Y325D02*
X7Y325D01*
X2219Y325D02*
X2226Y325D01*
X0Y324D02*
X7Y324D01*
X2219Y324D02*
X2226Y324D01*
X0Y323D02*
X7Y323D01*
X2219Y323D02*
X2226Y323D01*
X0Y322D02*
X7Y322D01*
X2219Y322D02*
X2226Y322D01*
X0Y321D02*
X7Y321D01*
X2219Y321D02*
X2226Y321D01*
X0Y320D02*
X7Y320D01*
X2219Y320D02*
X2226Y320D01*
X0Y319D02*
X7Y319D01*
X2219Y319D02*
X2226Y319D01*
X0Y318D02*
X7Y318D01*
X2219Y318D02*
X2226Y318D01*
X0Y317D02*
X7Y317D01*
X2219Y317D02*
X2226Y317D01*
X0Y316D02*
X7Y316D01*
X2219Y316D02*
X2226Y316D01*
X0Y315D02*
X7Y315D01*
X2219Y315D02*
X2226Y315D01*
X0Y314D02*
X7Y314D01*
X2219Y314D02*
X2226Y314D01*
X0Y313D02*
X7Y313D01*
X2219Y313D02*
X2226Y313D01*
X0Y312D02*
X7Y312D01*
X2219Y312D02*
X2226Y312D01*
X0Y311D02*
X7Y311D01*
X2219Y311D02*
X2226Y311D01*
X0Y310D02*
X7Y310D01*
X2219Y310D02*
X2226Y310D01*
X0Y309D02*
X7Y309D01*
X2219Y309D02*
X2226Y309D01*
X0Y308D02*
X7Y308D01*
X2219Y308D02*
X2226Y308D01*
X0Y307D02*
X7Y307D01*
X2219Y307D02*
X2226Y307D01*
X0Y306D02*
X7Y306D01*
X2219Y306D02*
X2226Y306D01*
X0Y305D02*
X7Y305D01*
X2219Y305D02*
X2226Y305D01*
X0Y304D02*
X7Y304D01*
X2219Y304D02*
X2226Y304D01*
X0Y303D02*
X7Y303D01*
X2219Y303D02*
X2226Y303D01*
X0Y302D02*
X7Y302D01*
X2219Y302D02*
X2226Y302D01*
X0Y301D02*
X7Y301D01*
X2219Y301D02*
X2226Y301D01*
X0Y300D02*
X7Y300D01*
X2219Y300D02*
X2226Y300D01*
X0Y299D02*
X7Y299D01*
X2219Y299D02*
X2226Y299D01*
X0Y298D02*
X7Y298D01*
X2219Y298D02*
X2226Y298D01*
X0Y297D02*
X7Y297D01*
X2219Y297D02*
X2226Y297D01*
X0Y296D02*
X7Y296D01*
X2219Y296D02*
X2226Y296D01*
X0Y295D02*
X7Y295D01*
X2219Y295D02*
X2226Y295D01*
X0Y294D02*
X7Y294D01*
X2219Y294D02*
X2226Y294D01*
X0Y293D02*
X7Y293D01*
X2219Y293D02*
X2226Y293D01*
X0Y292D02*
X7Y292D01*
X2219Y292D02*
X2226Y292D01*
X0Y291D02*
X7Y291D01*
X2219Y291D02*
X2226Y291D01*
X0Y290D02*
X7Y290D01*
X2219Y290D02*
X2226Y290D01*
X0Y289D02*
X7Y289D01*
X2219Y289D02*
X2226Y289D01*
X0Y288D02*
X7Y288D01*
X2219Y288D02*
X2226Y288D01*
X0Y287D02*
X7Y287D01*
X2219Y287D02*
X2226Y287D01*
X0Y286D02*
X7Y286D01*
X2219Y286D02*
X2226Y286D01*
X0Y285D02*
X7Y285D01*
X2219Y285D02*
X2226Y285D01*
X0Y284D02*
X7Y284D01*
X2219Y284D02*
X2226Y284D01*
X0Y283D02*
X7Y283D01*
X2219Y283D02*
X2226Y283D01*
X0Y282D02*
X7Y282D01*
X2219Y282D02*
X2226Y282D01*
X0Y281D02*
X7Y281D01*
X2219Y281D02*
X2226Y281D01*
X0Y280D02*
X7Y280D01*
X2219Y280D02*
X2226Y280D01*
X0Y279D02*
X7Y279D01*
X2219Y279D02*
X2226Y279D01*
X0Y278D02*
X7Y278D01*
X2219Y278D02*
X2226Y278D01*
X0Y277D02*
X7Y277D01*
X2219Y277D02*
X2226Y277D01*
X0Y276D02*
X7Y276D01*
X2219Y276D02*
X2226Y276D01*
X0Y275D02*
X7Y275D01*
X2219Y275D02*
X2226Y275D01*
X0Y274D02*
X7Y274D01*
X579Y274D02*
X579Y274D01*
X2219Y274D02*
X2226Y274D01*
X0Y273D02*
X7Y273D01*
X570Y273D02*
X579Y273D01*
X2219Y273D02*
X2226Y273D01*
X0Y272D02*
X7Y272D01*
X570Y272D02*
X579Y272D01*
X2219Y272D02*
X2226Y272D01*
X0Y271D02*
X7Y271D01*
X570Y271D02*
X579Y271D01*
X2219Y271D02*
X2226Y271D01*
X0Y270D02*
X7Y270D01*
X570Y270D02*
X579Y270D01*
X2219Y270D02*
X2226Y270D01*
X0Y269D02*
X7Y269D01*
X570Y269D02*
X579Y269D01*
X2219Y269D02*
X2226Y269D01*
X0Y268D02*
X7Y268D01*
X570Y268D02*
X579Y268D01*
X2219Y268D02*
X2226Y268D01*
X0Y267D02*
X7Y267D01*
X570Y267D02*
X579Y267D01*
X2219Y267D02*
X2226Y267D01*
X0Y266D02*
X7Y266D01*
X570Y266D02*
X579Y266D01*
X2219Y266D02*
X2226Y266D01*
X0Y265D02*
X7Y265D01*
X570Y265D02*
X579Y265D01*
X2219Y265D02*
X2226Y265D01*
X0Y264D02*
X7Y264D01*
X570Y264D02*
X579Y264D01*
X2219Y264D02*
X2226Y264D01*
X0Y263D02*
X7Y263D01*
X570Y263D02*
X579Y263D01*
X2219Y263D02*
X2226Y263D01*
X0Y262D02*
X7Y262D01*
X570Y262D02*
X579Y262D01*
X2219Y262D02*
X2226Y262D01*
X0Y261D02*
X7Y261D01*
X570Y261D02*
X579Y261D01*
X2219Y261D02*
X2226Y261D01*
X0Y260D02*
X7Y260D01*
X570Y260D02*
X579Y260D01*
X2219Y260D02*
X2226Y260D01*
X0Y259D02*
X7Y259D01*
X570Y259D02*
X579Y259D01*
X2219Y259D02*
X2226Y259D01*
X0Y258D02*
X7Y258D01*
X570Y258D02*
X579Y258D01*
X2219Y258D02*
X2226Y258D01*
X0Y257D02*
X7Y257D01*
X570Y257D02*
X579Y257D01*
X2219Y257D02*
X2226Y257D01*
X0Y256D02*
X7Y256D01*
X570Y256D02*
X579Y256D01*
X2219Y256D02*
X2226Y256D01*
X0Y255D02*
X7Y255D01*
X570Y255D02*
X579Y255D01*
X2219Y255D02*
X2226Y255D01*
X0Y254D02*
X7Y254D01*
X570Y254D02*
X579Y254D01*
X2219Y254D02*
X2226Y254D01*
X0Y253D02*
X7Y253D01*
X570Y253D02*
X579Y253D01*
X2219Y253D02*
X2226Y253D01*
X0Y252D02*
X7Y252D01*
X570Y252D02*
X579Y252D01*
X2219Y252D02*
X2226Y252D01*
X0Y251D02*
X7Y251D01*
X570Y251D02*
X579Y251D01*
X2219Y251D02*
X2226Y251D01*
X0Y250D02*
X7Y250D01*
X570Y250D02*
X579Y250D01*
X2219Y250D02*
X2226Y250D01*
X0Y249D02*
X7Y249D01*
X570Y249D02*
X579Y249D01*
X2219Y249D02*
X2226Y249D01*
X0Y248D02*
X7Y248D01*
X570Y248D02*
X579Y248D01*
X2219Y248D02*
X2226Y248D01*
X0Y247D02*
X7Y247D01*
X570Y247D02*
X579Y247D01*
X2219Y247D02*
X2226Y247D01*
X0Y246D02*
X7Y246D01*
X570Y246D02*
X579Y246D01*
X2219Y246D02*
X2226Y246D01*
X0Y245D02*
X7Y245D01*
X570Y245D02*
X579Y245D01*
X2219Y245D02*
X2226Y245D01*
X0Y244D02*
X7Y244D01*
X570Y244D02*
X579Y244D01*
X2219Y244D02*
X2226Y244D01*
X0Y243D02*
X7Y243D01*
X570Y243D02*
X579Y243D01*
X2219Y243D02*
X2226Y243D01*
X0Y242D02*
X7Y242D01*
X570Y242D02*
X579Y242D01*
X2219Y242D02*
X2226Y242D01*
X0Y241D02*
X7Y241D01*
X570Y241D02*
X579Y241D01*
X2219Y241D02*
X2226Y241D01*
X0Y240D02*
X7Y240D01*
X2219Y240D02*
X2226Y240D01*
X0Y239D02*
X7Y239D01*
X2219Y239D02*
X2226Y239D01*
X0Y238D02*
X7Y238D01*
X2219Y238D02*
X2226Y238D01*
X0Y237D02*
X7Y237D01*
X2219Y237D02*
X2226Y237D01*
X0Y236D02*
X7Y236D01*
X2219Y236D02*
X2226Y236D01*
X0Y235D02*
X7Y235D01*
X2219Y235D02*
X2226Y235D01*
X0Y234D02*
X7Y234D01*
X2219Y234D02*
X2226Y234D01*
X0Y233D02*
X7Y233D01*
X2219Y233D02*
X2226Y233D01*
X0Y232D02*
X7Y232D01*
X2219Y232D02*
X2226Y232D01*
X0Y231D02*
X7Y231D01*
X2219Y231D02*
X2226Y231D01*
X0Y230D02*
X7Y230D01*
X2219Y230D02*
X2226Y230D01*
X0Y229D02*
X7Y229D01*
X2219Y229D02*
X2226Y229D01*
X0Y228D02*
X7Y228D01*
X2219Y228D02*
X2226Y228D01*
X0Y227D02*
X7Y227D01*
X2219Y227D02*
X2226Y227D01*
X0Y226D02*
X7Y226D01*
X2219Y226D02*
X2226Y226D01*
X0Y225D02*
X7Y225D01*
X2219Y225D02*
X2226Y225D01*
X0Y224D02*
X7Y224D01*
X2219Y224D02*
X2226Y224D01*
X0Y223D02*
X7Y223D01*
X2219Y223D02*
X2226Y223D01*
X0Y222D02*
X7Y222D01*
X2219Y222D02*
X2226Y222D01*
X0Y221D02*
X7Y221D01*
X2219Y221D02*
X2226Y221D01*
X0Y220D02*
X7Y220D01*
X2219Y220D02*
X2226Y220D01*
X0Y219D02*
X7Y219D01*
X2219Y219D02*
X2226Y219D01*
X0Y218D02*
X7Y218D01*
X719Y218D02*
X722Y218D01*
X2219Y218D02*
X2226Y218D01*
X0Y217D02*
X7Y217D01*
X719Y217D02*
X724Y217D01*
X2219Y217D02*
X2226Y217D01*
X0Y216D02*
X7Y216D01*
X719Y216D02*
X726Y216D01*
X2219Y216D02*
X2226Y216D01*
X0Y215D02*
X7Y215D01*
X719Y215D02*
X727Y215D01*
X2219Y215D02*
X2226Y215D01*
X0Y214D02*
X7Y214D01*
X718Y214D02*
X728Y214D01*
X2219Y214D02*
X2226Y214D01*
X0Y213D02*
X7Y213D01*
X718Y213D02*
X728Y213D01*
X2219Y213D02*
X2226Y213D01*
X0Y212D02*
X7Y212D01*
X718Y212D02*
X729Y212D01*
X2219Y212D02*
X2226Y212D01*
X0Y211D02*
X7Y211D01*
X722Y211D02*
X729Y211D01*
X2219Y211D02*
X2226Y211D01*
X0Y210D02*
X7Y210D01*
X723Y210D02*
X730Y210D01*
X2219Y210D02*
X2226Y210D01*
X0Y209D02*
X7Y209D01*
X724Y209D02*
X730Y209D01*
X2219Y209D02*
X2226Y209D01*
X0Y208D02*
X7Y208D01*
X724Y208D02*
X730Y208D01*
X2219Y208D02*
X2226Y208D01*
X0Y207D02*
X7Y207D01*
X724Y207D02*
X730Y207D01*
X2219Y207D02*
X2226Y207D01*
X0Y206D02*
X7Y206D01*
X724Y206D02*
X730Y206D01*
X2219Y206D02*
X2226Y206D01*
X0Y205D02*
X7Y205D01*
X724Y205D02*
X730Y205D01*
X2219Y205D02*
X2226Y205D01*
X0Y204D02*
X7Y204D01*
X724Y204D02*
X730Y204D01*
X2219Y204D02*
X2226Y204D01*
X0Y203D02*
X7Y203D01*
X724Y203D02*
X730Y203D01*
X2219Y203D02*
X2226Y203D01*
X0Y202D02*
X7Y202D01*
X723Y202D02*
X730Y202D01*
X2219Y202D02*
X2226Y202D01*
X0Y201D02*
X7Y201D01*
X722Y201D02*
X729Y201D01*
X2219Y201D02*
X2226Y201D01*
X0Y200D02*
X7Y200D01*
X715Y200D02*
X729Y200D01*
X2219Y200D02*
X2226Y200D01*
X0Y199D02*
X7Y199D01*
X714Y199D02*
X729Y199D01*
X2219Y199D02*
X2226Y199D01*
X0Y198D02*
X7Y198D01*
X714Y198D02*
X728Y198D01*
X2219Y198D02*
X2226Y198D01*
X0Y197D02*
X7Y197D01*
X713Y197D02*
X727Y197D01*
X2219Y197D02*
X2226Y197D01*
X0Y196D02*
X7Y196D01*
X713Y196D02*
X726Y196D01*
X2219Y196D02*
X2226Y196D01*
X0Y195D02*
X7Y195D01*
X712Y195D02*
X725Y195D01*
X2219Y195D02*
X2226Y195D01*
X0Y194D02*
X7Y194D01*
X711Y194D02*
X722Y194D01*
X2219Y194D02*
X2226Y194D01*
X0Y193D02*
X7Y193D01*
X711Y193D02*
X716Y193D01*
X2219Y193D02*
X2226Y193D01*
X0Y192D02*
X7Y192D01*
X710Y192D02*
X716Y192D01*
X2219Y192D02*
X2226Y192D01*
X0Y191D02*
X7Y191D01*
X710Y191D02*
X717Y191D01*
X2219Y191D02*
X2226Y191D01*
X0Y190D02*
X7Y190D01*
X570Y190D02*
X579Y190D01*
X710Y190D02*
X717Y190D01*
X2219Y190D02*
X2226Y190D01*
X0Y189D02*
X7Y189D01*
X570Y189D02*
X579Y189D01*
X711Y189D02*
X718Y189D01*
X2219Y189D02*
X2226Y189D01*
X0Y188D02*
X7Y188D01*
X570Y188D02*
X579Y188D01*
X711Y188D02*
X719Y188D01*
X2219Y188D02*
X2226Y188D01*
X0Y187D02*
X7Y187D01*
X570Y187D02*
X579Y187D01*
X712Y187D02*
X719Y187D01*
X2219Y187D02*
X2226Y187D01*
X0Y186D02*
X7Y186D01*
X570Y186D02*
X579Y186D01*
X713Y186D02*
X720Y186D01*
X2219Y186D02*
X2226Y186D01*
X0Y185D02*
X7Y185D01*
X570Y185D02*
X579Y185D01*
X713Y185D02*
X720Y185D01*
X2219Y185D02*
X2226Y185D01*
X0Y184D02*
X7Y184D01*
X570Y184D02*
X579Y184D01*
X714Y184D02*
X721Y184D01*
X2219Y184D02*
X2226Y184D01*
X0Y183D02*
X7Y183D01*
X570Y183D02*
X579Y183D01*
X702Y183D02*
X702Y183D01*
X714Y183D02*
X721Y183D01*
X2219Y183D02*
X2226Y183D01*
X0Y182D02*
X7Y182D01*
X570Y182D02*
X579Y182D01*
X701Y182D02*
X702Y182D01*
X715Y182D02*
X722Y182D01*
X2219Y182D02*
X2226Y182D01*
X0Y181D02*
X7Y181D01*
X570Y181D02*
X579Y181D01*
X699Y181D02*
X702Y181D01*
X715Y181D02*
X723Y181D01*
X2219Y181D02*
X2226Y181D01*
X0Y180D02*
X7Y180D01*
X570Y180D02*
X579Y180D01*
X698Y180D02*
X702Y180D01*
X716Y180D02*
X723Y180D01*
X2219Y180D02*
X2226Y180D01*
X0Y179D02*
X7Y179D01*
X570Y179D02*
X579Y179D01*
X696Y179D02*
X702Y179D01*
X717Y179D02*
X724Y179D01*
X2219Y179D02*
X2226Y179D01*
X0Y178D02*
X7Y178D01*
X570Y178D02*
X579Y178D01*
X696Y178D02*
X702Y178D01*
X717Y178D02*
X724Y178D01*
X2219Y178D02*
X2226Y178D01*
X0Y177D02*
X7Y177D01*
X570Y177D02*
X579Y177D01*
X696Y177D02*
X702Y177D01*
X718Y177D02*
X725Y177D01*
X2219Y177D02*
X2226Y177D01*
X0Y176D02*
X7Y176D01*
X570Y176D02*
X579Y176D01*
X696Y176D02*
X702Y176D01*
X718Y176D02*
X726Y176D01*
X2219Y176D02*
X2226Y176D01*
X0Y175D02*
X7Y175D01*
X570Y175D02*
X579Y175D01*
X696Y175D02*
X702Y175D01*
X719Y175D02*
X726Y175D01*
X760Y175D02*
X760Y175D01*
X2219Y175D02*
X2226Y175D01*
X0Y174D02*
X7Y174D01*
X570Y174D02*
X579Y174D01*
X696Y174D02*
X702Y174D01*
X720Y174D02*
X727Y174D01*
X760Y174D02*
X762Y174D01*
X2219Y174D02*
X2226Y174D01*
X0Y173D02*
X7Y173D01*
X570Y173D02*
X579Y173D01*
X696Y173D02*
X702Y173D01*
X720Y173D02*
X727Y173D01*
X760Y173D02*
X766Y173D01*
X2219Y173D02*
X2226Y173D01*
X0Y172D02*
X7Y172D01*
X570Y172D02*
X579Y172D01*
X696Y172D02*
X702Y172D01*
X721Y172D02*
X728Y172D01*
X760Y172D02*
X766Y172D01*
X774Y172D02*
X780Y172D01*
X2219Y172D02*
X2226Y172D01*
X0Y171D02*
X7Y171D01*
X570Y171D02*
X579Y171D01*
X696Y171D02*
X702Y171D01*
X721Y171D02*
X728Y171D01*
X749Y171D02*
X780Y171D01*
X2219Y171D02*
X2226Y171D01*
X0Y170D02*
X7Y170D01*
X570Y170D02*
X579Y170D01*
X696Y170D02*
X702Y170D01*
X722Y170D02*
X729Y170D01*
X747Y170D02*
X780Y170D01*
X2219Y170D02*
X2226Y170D01*
X0Y169D02*
X7Y169D01*
X570Y169D02*
X579Y169D01*
X696Y169D02*
X702Y169D01*
X722Y169D02*
X730Y169D01*
X747Y169D02*
X780Y169D01*
X2219Y169D02*
X2226Y169D01*
X0Y168D02*
X7Y168D01*
X570Y168D02*
X579Y168D01*
X696Y168D02*
X702Y168D01*
X723Y168D02*
X730Y168D01*
X747Y168D02*
X780Y168D01*
X2219Y168D02*
X2226Y168D01*
X0Y167D02*
X7Y167D01*
X570Y167D02*
X579Y167D01*
X696Y167D02*
X702Y167D01*
X724Y167D02*
X730Y167D01*
X747Y167D02*
X780Y167D01*
X2219Y167D02*
X2226Y167D01*
X0Y166D02*
X7Y166D01*
X570Y166D02*
X579Y166D01*
X697Y166D02*
X702Y166D01*
X724Y166D02*
X729Y166D01*
X747Y166D02*
X780Y166D01*
X2219Y166D02*
X2226Y166D01*
X0Y165D02*
X7Y165D01*
X570Y165D02*
X579Y165D01*
X698Y165D02*
X701Y165D01*
X725Y165D02*
X729Y165D01*
X748Y165D02*
X779Y165D01*
X2219Y165D02*
X2226Y165D01*
X0Y164D02*
X7Y164D01*
X570Y164D02*
X579Y164D01*
X2219Y164D02*
X2226Y164D01*
X0Y163D02*
X7Y163D01*
X570Y163D02*
X579Y163D01*
X2219Y163D02*
X2226Y163D01*
X0Y162D02*
X7Y162D01*
X570Y162D02*
X579Y162D01*
X2219Y162D02*
X2226Y162D01*
X0Y161D02*
X7Y161D01*
X570Y161D02*
X579Y161D01*
X2219Y161D02*
X2226Y161D01*
X0Y160D02*
X7Y160D01*
X570Y160D02*
X579Y160D01*
X2219Y160D02*
X2226Y160D01*
X0Y159D02*
X7Y159D01*
X570Y159D02*
X579Y159D01*
X2219Y159D02*
X2226Y159D01*
X0Y158D02*
X7Y158D01*
X2219Y158D02*
X2226Y158D01*
X0Y157D02*
X7Y157D01*
X2219Y157D02*
X2226Y157D01*
X0Y156D02*
X7Y156D01*
X2219Y156D02*
X2226Y156D01*
X0Y155D02*
X7Y155D01*
X2219Y155D02*
X2226Y155D01*
X0Y154D02*
X7Y154D01*
X2219Y154D02*
X2226Y154D01*
X0Y153D02*
X7Y153D01*
X2219Y153D02*
X2226Y153D01*
X0Y152D02*
X7Y152D01*
X2219Y152D02*
X2226Y152D01*
X0Y151D02*
X7Y151D01*
X2219Y151D02*
X2226Y151D01*
X0Y150D02*
X7Y150D01*
X2219Y150D02*
X2226Y150D01*
X0Y149D02*
X7Y149D01*
X2219Y149D02*
X2226Y149D01*
X0Y148D02*
X7Y148D01*
X2219Y148D02*
X2226Y148D01*
X0Y147D02*
X7Y147D01*
X2219Y147D02*
X2226Y147D01*
X0Y146D02*
X7Y146D01*
X2219Y146D02*
X2226Y146D01*
X0Y145D02*
X7Y145D01*
X2219Y145D02*
X2226Y145D01*
X0Y144D02*
X7Y144D01*
X2219Y144D02*
X2226Y144D01*
X0Y143D02*
X7Y143D01*
X2219Y143D02*
X2226Y143D01*
X0Y142D02*
X7Y142D01*
X2219Y142D02*
X2226Y142D01*
X0Y141D02*
X7Y141D01*
X2219Y141D02*
X2226Y141D01*
X0Y140D02*
X7Y140D01*
X2219Y140D02*
X2226Y140D01*
X0Y139D02*
X7Y139D01*
X2219Y139D02*
X2226Y139D01*
X0Y138D02*
X7Y138D01*
X2219Y138D02*
X2226Y138D01*
X0Y137D02*
X7Y137D01*
X2219Y137D02*
X2226Y137D01*
X0Y136D02*
X7Y136D01*
X2219Y136D02*
X2226Y136D01*
X0Y135D02*
X7Y135D01*
X2219Y135D02*
X2226Y135D01*
X0Y134D02*
X7Y134D01*
X2219Y134D02*
X2226Y134D01*
X0Y133D02*
X7Y133D01*
X2219Y133D02*
X2226Y133D01*
X0Y132D02*
X7Y132D01*
X45Y132D02*
X46Y132D01*
X96Y132D02*
X107Y132D01*
X140Y132D02*
X141Y132D01*
X2219Y132D02*
X2226Y132D01*
X0Y131D02*
X7Y131D01*
X44Y131D02*
X48Y131D01*
X94Y131D02*
X108Y131D01*
X138Y131D02*
X143Y131D01*
X2219Y131D02*
X2226Y131D01*
X0Y130D02*
X7Y130D01*
X43Y130D02*
X48Y130D01*
X94Y130D02*
X109Y130D01*
X138Y130D02*
X143Y130D01*
X2219Y130D02*
X2226Y130D01*
X0Y129D02*
X7Y129D01*
X43Y129D02*
X48Y129D01*
X93Y129D02*
X109Y129D01*
X138Y129D02*
X143Y129D01*
X1355Y129D02*
X1368Y129D01*
X1460Y129D02*
X1463Y129D01*
X1792Y129D02*
X1818Y129D01*
X1898Y129D02*
X1928Y129D01*
X2008Y129D02*
X2027Y129D01*
X2219Y129D02*
X2226Y129D01*
X0Y128D02*
X7Y128D01*
X43Y128D02*
X48Y128D01*
X94Y128D02*
X109Y128D01*
X138Y128D02*
X143Y128D01*
X1353Y128D02*
X1370Y128D01*
X1459Y128D02*
X1464Y128D01*
X1790Y128D02*
X1820Y128D01*
X1897Y128D02*
X1930Y128D01*
X2007Y128D02*
X2027Y128D01*
X2219Y128D02*
X2226Y128D01*
X0Y127D02*
X7Y127D01*
X43Y127D02*
X48Y127D01*
X94Y127D02*
X109Y127D01*
X138Y127D02*
X143Y127D01*
X1353Y127D02*
X1370Y127D01*
X1459Y127D02*
X1465Y127D01*
X1789Y127D02*
X1821Y127D01*
X1896Y127D02*
X1931Y127D01*
X2006Y127D02*
X2027Y127D01*
X2219Y127D02*
X2226Y127D01*
X0Y126D02*
X7Y126D01*
X43Y126D02*
X48Y126D01*
X95Y126D02*
X109Y126D01*
X138Y126D02*
X143Y126D01*
X1353Y126D02*
X1370Y126D01*
X1458Y126D02*
X1465Y126D01*
X1578Y126D02*
X1579Y126D01*
X1788Y126D02*
X1822Y126D01*
X1896Y126D02*
X1932Y126D01*
X2006Y126D02*
X2027Y126D01*
X2219Y126D02*
X2226Y126D01*
X0Y125D02*
X7Y125D01*
X43Y125D02*
X48Y125D01*
X103Y125D02*
X109Y125D01*
X138Y125D02*
X143Y125D01*
X1353Y125D02*
X1371Y125D01*
X1458Y125D02*
X1465Y125D01*
X1576Y125D02*
X1581Y125D01*
X1787Y125D02*
X1823Y125D01*
X1896Y125D02*
X1932Y125D01*
X2006Y125D02*
X2027Y125D01*
X2219Y125D02*
X2226Y125D01*
X0Y124D02*
X7Y124D01*
X43Y124D02*
X48Y124D01*
X103Y124D02*
X109Y124D01*
X138Y124D02*
X143Y124D01*
X1353Y124D02*
X1371Y124D01*
X1458Y124D02*
X1465Y124D01*
X1576Y124D02*
X1582Y124D01*
X1787Y124D02*
X1823Y124D01*
X1897Y124D02*
X1933Y124D01*
X2006Y124D02*
X2027Y124D01*
X2219Y124D02*
X2226Y124D01*
X0Y123D02*
X7Y123D01*
X43Y123D02*
X48Y123D01*
X103Y123D02*
X109Y123D01*
X138Y123D02*
X143Y123D01*
X1354Y123D02*
X1371Y123D01*
X1458Y123D02*
X1465Y123D01*
X1575Y123D02*
X1582Y123D01*
X1787Y123D02*
X1823Y123D01*
X1897Y123D02*
X1933Y123D01*
X2007Y123D02*
X2027Y123D01*
X2219Y123D02*
X2226Y123D01*
X0Y122D02*
X7Y122D01*
X43Y122D02*
X48Y122D01*
X103Y122D02*
X109Y122D01*
X138Y122D02*
X143Y122D01*
X1355Y122D02*
X1371Y122D01*
X1458Y122D02*
X1465Y122D01*
X1575Y122D02*
X1582Y122D01*
X1787Y122D02*
X1823Y122D01*
X1899Y122D02*
X1933Y122D01*
X2008Y122D02*
X2027Y122D01*
X2219Y122D02*
X2226Y122D01*
X0Y121D02*
X7Y121D01*
X43Y121D02*
X48Y121D01*
X103Y121D02*
X109Y121D01*
X138Y121D02*
X143Y121D01*
X1364Y121D02*
X1371Y121D01*
X1458Y121D02*
X1465Y121D01*
X1575Y121D02*
X1582Y121D01*
X1787Y121D02*
X1793Y121D01*
X1817Y121D02*
X1823Y121D01*
X1926Y121D02*
X1933Y121D01*
X2021Y121D02*
X2027Y121D01*
X2219Y121D02*
X2226Y121D01*
X0Y120D02*
X7Y120D01*
X43Y120D02*
X48Y120D01*
X103Y120D02*
X109Y120D01*
X138Y120D02*
X143Y120D01*
X1364Y120D02*
X1371Y120D01*
X1458Y120D02*
X1465Y120D01*
X1575Y120D02*
X1582Y120D01*
X1787Y120D02*
X1793Y120D01*
X1817Y120D02*
X1823Y120D01*
X1926Y120D02*
X1933Y120D01*
X2021Y120D02*
X2027Y120D01*
X2219Y120D02*
X2226Y120D01*
X0Y119D02*
X7Y119D01*
X43Y119D02*
X48Y119D01*
X103Y119D02*
X109Y119D01*
X138Y119D02*
X143Y119D01*
X1364Y119D02*
X1371Y119D01*
X1458Y119D02*
X1465Y119D01*
X1575Y119D02*
X1582Y119D01*
X1787Y119D02*
X1793Y119D01*
X1817Y119D02*
X1823Y119D01*
X1926Y119D02*
X1933Y119D01*
X2021Y119D02*
X2027Y119D01*
X2219Y119D02*
X2226Y119D01*
X0Y118D02*
X7Y118D01*
X43Y118D02*
X48Y118D01*
X56Y118D02*
X65Y118D01*
X103Y118D02*
X109Y118D01*
X138Y118D02*
X143Y118D01*
X162Y118D02*
X164Y118D01*
X1364Y118D02*
X1371Y118D01*
X1458Y118D02*
X1465Y118D01*
X1575Y118D02*
X1582Y118D01*
X1787Y118D02*
X1793Y118D01*
X1817Y118D02*
X1823Y118D01*
X1926Y118D02*
X1933Y118D01*
X2021Y118D02*
X2027Y118D01*
X2219Y118D02*
X2226Y118D01*
X0Y117D02*
X7Y117D01*
X43Y117D02*
X48Y117D01*
X53Y117D02*
X67Y117D01*
X103Y117D02*
X109Y117D01*
X138Y117D02*
X143Y117D01*
X161Y117D02*
X165Y117D01*
X1364Y117D02*
X1371Y117D01*
X1458Y117D02*
X1465Y117D01*
X1575Y117D02*
X1582Y117D01*
X1787Y117D02*
X1793Y117D01*
X1817Y117D02*
X1823Y117D01*
X1926Y117D02*
X1933Y117D01*
X2021Y117D02*
X2027Y117D01*
X2219Y117D02*
X2226Y117D01*
X0Y116D02*
X7Y116D01*
X43Y116D02*
X48Y116D01*
X52Y116D02*
X69Y116D01*
X103Y116D02*
X109Y116D01*
X138Y116D02*
X143Y116D01*
X160Y116D02*
X166Y116D01*
X1364Y116D02*
X1371Y116D01*
X1458Y116D02*
X1465Y116D01*
X1575Y116D02*
X1582Y116D01*
X1787Y116D02*
X1793Y116D01*
X1817Y116D02*
X1823Y116D01*
X1926Y116D02*
X1933Y116D01*
X2021Y116D02*
X2027Y116D01*
X2219Y116D02*
X2226Y116D01*
X0Y115D02*
X7Y115D01*
X43Y115D02*
X48Y115D01*
X50Y115D02*
X70Y115D01*
X103Y115D02*
X109Y115D01*
X138Y115D02*
X143Y115D01*
X159Y115D02*
X166Y115D01*
X1364Y115D02*
X1371Y115D01*
X1458Y115D02*
X1465Y115D01*
X1575Y115D02*
X1582Y115D01*
X1787Y115D02*
X1793Y115D01*
X1817Y115D02*
X1823Y115D01*
X1926Y115D02*
X1933Y115D01*
X2021Y115D02*
X2027Y115D01*
X2219Y115D02*
X2226Y115D01*
X0Y114D02*
X7Y114D01*
X43Y114D02*
X71Y114D01*
X103Y114D02*
X109Y114D01*
X138Y114D02*
X143Y114D01*
X157Y114D02*
X166Y114D01*
X1364Y114D02*
X1371Y114D01*
X1458Y114D02*
X1465Y114D01*
X1575Y114D02*
X1582Y114D01*
X1787Y114D02*
X1793Y114D01*
X1817Y114D02*
X1823Y114D01*
X1926Y114D02*
X1933Y114D01*
X2021Y114D02*
X2027Y114D01*
X2219Y114D02*
X2226Y114D01*
X0Y113D02*
X7Y113D01*
X43Y113D02*
X72Y113D01*
X103Y113D02*
X109Y113D01*
X138Y113D02*
X143Y113D01*
X156Y113D02*
X165Y113D01*
X1364Y113D02*
X1371Y113D01*
X1415Y113D02*
X1429Y113D01*
X1458Y113D02*
X1465Y113D01*
X1474Y113D02*
X1484Y113D01*
X1521Y113D02*
X1542Y113D01*
X1570Y113D02*
X1598Y113D01*
X1632Y113D02*
X1650Y113D01*
X1680Y113D02*
X1682Y113D01*
X1694Y113D02*
X1705Y113D01*
X1787Y113D02*
X1793Y113D01*
X1817Y113D02*
X1823Y113D01*
X1926Y113D02*
X1933Y113D01*
X2021Y113D02*
X2027Y113D01*
X2219Y113D02*
X2226Y113D01*
X0Y112D02*
X7Y112D01*
X43Y112D02*
X73Y112D01*
X103Y112D02*
X109Y112D01*
X138Y112D02*
X143Y112D01*
X155Y112D02*
X164Y112D01*
X1364Y112D02*
X1371Y112D01*
X1412Y112D02*
X1431Y112D01*
X1458Y112D02*
X1465Y112D01*
X1471Y112D02*
X1486Y112D01*
X1519Y112D02*
X1544Y112D01*
X1569Y112D02*
X1600Y112D01*
X1631Y112D02*
X1653Y112D01*
X1678Y112D02*
X1683Y112D01*
X1693Y112D02*
X1708Y112D01*
X1787Y112D02*
X1793Y112D01*
X1817Y112D02*
X1823Y112D01*
X1926Y112D02*
X1933Y112D01*
X2021Y112D02*
X2027Y112D01*
X2219Y112D02*
X2226Y112D01*
X0Y111D02*
X7Y111D01*
X43Y111D02*
X55Y111D01*
X65Y111D02*
X73Y111D01*
X103Y111D02*
X109Y111D01*
X138Y111D02*
X143Y111D01*
X154Y111D02*
X163Y111D01*
X1364Y111D02*
X1371Y111D01*
X1411Y111D02*
X1433Y111D01*
X1458Y111D02*
X1465Y111D01*
X1469Y111D02*
X1488Y111D01*
X1517Y111D02*
X1546Y111D01*
X1568Y111D02*
X1600Y111D01*
X1630Y111D02*
X1654Y111D01*
X1678Y111D02*
X1684Y111D01*
X1692Y111D02*
X1709Y111D01*
X1787Y111D02*
X1793Y111D01*
X1817Y111D02*
X1823Y111D01*
X1926Y111D02*
X1933Y111D01*
X2021Y111D02*
X2027Y111D01*
X2219Y111D02*
X2226Y111D01*
X0Y110D02*
X7Y110D01*
X43Y110D02*
X54Y110D01*
X66Y110D02*
X74Y110D01*
X103Y110D02*
X109Y110D01*
X138Y110D02*
X143Y110D01*
X153Y110D02*
X162Y110D01*
X1364Y110D02*
X1371Y110D01*
X1410Y110D02*
X1434Y110D01*
X1458Y110D02*
X1465Y110D01*
X1468Y110D02*
X1489Y110D01*
X1516Y110D02*
X1547Y110D01*
X1568Y110D02*
X1601Y110D01*
X1630Y110D02*
X1655Y110D01*
X1677Y110D02*
X1684Y110D01*
X1691Y110D02*
X1711Y110D01*
X1787Y110D02*
X1793Y110D01*
X1817Y110D02*
X1823Y110D01*
X1926Y110D02*
X1933Y110D01*
X2021Y110D02*
X2027Y110D01*
X2219Y110D02*
X2226Y110D01*
X0Y109D02*
X7Y109D01*
X43Y109D02*
X53Y109D01*
X68Y109D02*
X74Y109D01*
X103Y109D02*
X109Y109D01*
X138Y109D02*
X143Y109D01*
X152Y109D02*
X161Y109D01*
X1364Y109D02*
X1371Y109D01*
X1408Y109D02*
X1435Y109D01*
X1458Y109D02*
X1465Y109D01*
X1467Y109D02*
X1490Y109D01*
X1516Y109D02*
X1548Y109D01*
X1568Y109D02*
X1601Y109D01*
X1630Y109D02*
X1656Y109D01*
X1677Y109D02*
X1684Y109D01*
X1690Y109D02*
X1711Y109D01*
X1787Y109D02*
X1793Y109D01*
X1817Y109D02*
X1823Y109D01*
X1926Y109D02*
X1933Y109D01*
X2021Y109D02*
X2027Y109D01*
X2219Y109D02*
X2226Y109D01*
X0Y108D02*
X7Y108D01*
X43Y108D02*
X52Y108D01*
X68Y108D02*
X74Y108D01*
X103Y108D02*
X109Y108D01*
X138Y108D02*
X143Y108D01*
X150Y108D02*
X160Y108D01*
X1364Y108D02*
X1371Y108D01*
X1407Y108D02*
X1437Y108D01*
X1458Y108D02*
X1491Y108D01*
X1515Y108D02*
X1549Y108D01*
X1569Y108D02*
X1600Y108D01*
X1630Y108D02*
X1657Y108D01*
X1677Y108D02*
X1684Y108D01*
X1688Y108D02*
X1712Y108D01*
X1787Y108D02*
X1793Y108D01*
X1817Y108D02*
X1823Y108D01*
X1926Y108D02*
X1933Y108D01*
X2021Y108D02*
X2027Y108D01*
X2219Y108D02*
X2226Y108D01*
X0Y107D02*
X7Y107D01*
X43Y107D02*
X51Y107D01*
X69Y107D02*
X74Y107D01*
X103Y107D02*
X109Y107D01*
X138Y107D02*
X143Y107D01*
X149Y107D02*
X158Y107D01*
X1364Y107D02*
X1371Y107D01*
X1406Y107D02*
X1438Y107D01*
X1458Y107D02*
X1492Y107D01*
X1514Y107D02*
X1549Y107D01*
X1569Y107D02*
X1600Y107D01*
X1631Y107D02*
X1658Y107D01*
X1677Y107D02*
X1684Y107D01*
X1687Y107D02*
X1713Y107D01*
X1787Y107D02*
X1793Y107D01*
X1817Y107D02*
X1823Y107D01*
X1926Y107D02*
X1933Y107D01*
X2021Y107D02*
X2027Y107D01*
X2219Y107D02*
X2226Y107D01*
X0Y106D02*
X7Y106D01*
X43Y106D02*
X49Y106D01*
X69Y106D02*
X75Y106D01*
X103Y106D02*
X109Y106D01*
X138Y106D02*
X143Y106D01*
X148Y106D02*
X157Y106D01*
X1364Y106D02*
X1371Y106D01*
X1406Y106D02*
X1438Y106D01*
X1458Y106D02*
X1493Y106D01*
X1514Y106D02*
X1549Y106D01*
X1570Y106D02*
X1598Y106D01*
X1632Y106D02*
X1658Y106D01*
X1677Y106D02*
X1684Y106D01*
X1686Y106D02*
X1713Y106D01*
X1787Y106D02*
X1793Y106D01*
X1817Y106D02*
X1823Y106D01*
X1926Y106D02*
X1933Y106D01*
X2021Y106D02*
X2027Y106D01*
X2219Y106D02*
X2226Y106D01*
X0Y105D02*
X7Y105D01*
X43Y105D02*
X49Y105D01*
X69Y105D02*
X75Y105D01*
X103Y105D02*
X109Y105D01*
X138Y105D02*
X143Y105D01*
X147Y105D02*
X156Y105D01*
X1364Y105D02*
X1371Y105D01*
X1405Y105D02*
X1414Y105D01*
X1429Y105D02*
X1439Y105D01*
X1458Y105D02*
X1473Y105D01*
X1484Y105D02*
X1494Y105D01*
X1514Y105D02*
X1521Y105D01*
X1542Y105D02*
X1549Y105D01*
X1575Y105D02*
X1582Y105D01*
X1650Y105D02*
X1658Y105D01*
X1677Y105D02*
X1696Y105D01*
X1706Y105D02*
X1714Y105D01*
X1787Y105D02*
X1793Y105D01*
X1817Y105D02*
X1823Y105D01*
X1926Y105D02*
X1933Y105D01*
X2021Y105D02*
X2027Y105D01*
X2219Y105D02*
X2226Y105D01*
X0Y104D02*
X7Y104D01*
X43Y104D02*
X48Y104D01*
X69Y104D02*
X75Y104D01*
X103Y104D02*
X109Y104D01*
X138Y104D02*
X143Y104D01*
X146Y104D02*
X155Y104D01*
X1364Y104D02*
X1371Y104D01*
X1405Y104D02*
X1413Y104D01*
X1431Y104D02*
X1439Y104D01*
X1458Y104D02*
X1472Y104D01*
X1485Y104D02*
X1494Y104D01*
X1514Y104D02*
X1521Y104D01*
X1543Y104D02*
X1548Y104D01*
X1575Y104D02*
X1582Y104D01*
X1651Y104D02*
X1658Y104D01*
X1677Y104D02*
X1695Y104D01*
X1707Y104D02*
X1714Y104D01*
X1787Y104D02*
X1793Y104D01*
X1817Y104D02*
X1823Y104D01*
X1926Y104D02*
X1933Y104D01*
X2021Y104D02*
X2027Y104D01*
X2219Y104D02*
X2226Y104D01*
X0Y103D02*
X7Y103D01*
X43Y103D02*
X48Y103D01*
X69Y103D02*
X75Y103D01*
X103Y103D02*
X109Y103D01*
X138Y103D02*
X154Y103D01*
X1364Y103D02*
X1371Y103D01*
X1404Y103D02*
X1412Y103D01*
X1432Y103D02*
X1440Y103D01*
X1458Y103D02*
X1471Y103D01*
X1486Y103D02*
X1495Y103D01*
X1514Y103D02*
X1521Y103D01*
X1544Y103D02*
X1547Y103D01*
X1575Y103D02*
X1582Y103D01*
X1651Y103D02*
X1659Y103D01*
X1677Y103D02*
X1693Y103D01*
X1707Y103D02*
X1714Y103D01*
X1787Y103D02*
X1793Y103D01*
X1817Y103D02*
X1823Y103D01*
X1901Y103D02*
X1933Y103D01*
X2021Y103D02*
X2027Y103D01*
X2219Y103D02*
X2226Y103D01*
X0Y102D02*
X7Y102D01*
X43Y102D02*
X48Y102D01*
X69Y102D02*
X75Y102D01*
X103Y102D02*
X109Y102D01*
X138Y102D02*
X153Y102D01*
X1364Y102D02*
X1371Y102D01*
X1404Y102D02*
X1411Y102D01*
X1433Y102D02*
X1440Y102D01*
X1458Y102D02*
X1470Y102D01*
X1487Y102D02*
X1495Y102D01*
X1514Y102D02*
X1521Y102D01*
X1575Y102D02*
X1582Y102D01*
X1652Y102D02*
X1659Y102D01*
X1677Y102D02*
X1692Y102D01*
X1707Y102D02*
X1714Y102D01*
X1787Y102D02*
X1793Y102D01*
X1817Y102D02*
X1823Y102D01*
X1899Y102D02*
X1933Y102D01*
X2021Y102D02*
X2027Y102D01*
X2219Y102D02*
X2226Y102D01*
X0Y101D02*
X7Y101D01*
X43Y101D02*
X48Y101D01*
X69Y101D02*
X75Y101D01*
X103Y101D02*
X109Y101D01*
X138Y101D02*
X152Y101D01*
X1364Y101D02*
X1371Y101D01*
X1404Y101D02*
X1410Y101D01*
X1433Y101D02*
X1440Y101D01*
X1458Y101D02*
X1468Y101D01*
X1488Y101D02*
X1495Y101D01*
X1514Y101D02*
X1523Y101D01*
X1575Y101D02*
X1582Y101D01*
X1652Y101D02*
X1659Y101D01*
X1677Y101D02*
X1691Y101D01*
X1707Y101D02*
X1714Y101D01*
X1787Y101D02*
X1793Y101D01*
X1817Y101D02*
X1823Y101D01*
X1898Y101D02*
X1932Y101D01*
X2021Y101D02*
X2027Y101D01*
X2219Y101D02*
X2226Y101D01*
X0Y100D02*
X7Y100D01*
X43Y100D02*
X48Y100D01*
X69Y100D02*
X75Y100D01*
X103Y100D02*
X109Y100D01*
X138Y100D02*
X153Y100D01*
X1364Y100D02*
X1371Y100D01*
X1404Y100D02*
X1410Y100D01*
X1434Y100D02*
X1440Y100D01*
X1458Y100D02*
X1467Y100D01*
X1488Y100D02*
X1495Y100D01*
X1515Y100D02*
X1526Y100D01*
X1575Y100D02*
X1582Y100D01*
X1652Y100D02*
X1659Y100D01*
X1677Y100D02*
X1690Y100D01*
X1707Y100D02*
X1714Y100D01*
X1787Y100D02*
X1793Y100D01*
X1817Y100D02*
X1823Y100D01*
X1897Y100D02*
X1932Y100D01*
X2021Y100D02*
X2027Y100D01*
X2219Y100D02*
X2226Y100D01*
X0Y99D02*
X7Y99D01*
X43Y99D02*
X48Y99D01*
X69Y99D02*
X75Y99D01*
X103Y99D02*
X109Y99D01*
X138Y99D02*
X154Y99D01*
X1364Y99D02*
X1371Y99D01*
X1404Y99D02*
X1410Y99D01*
X1434Y99D02*
X1440Y99D01*
X1458Y99D02*
X1466Y99D01*
X1488Y99D02*
X1495Y99D01*
X1515Y99D02*
X1528Y99D01*
X1575Y99D02*
X1582Y99D01*
X1652Y99D02*
X1659Y99D01*
X1677Y99D02*
X1689Y99D01*
X1707Y99D02*
X1714Y99D01*
X1787Y99D02*
X1793Y99D01*
X1817Y99D02*
X1823Y99D01*
X1897Y99D02*
X1931Y99D01*
X2021Y99D02*
X2027Y99D01*
X2219Y99D02*
X2226Y99D01*
X0Y98D02*
X7Y98D01*
X43Y98D02*
X48Y98D01*
X69Y98D02*
X75Y98D01*
X103Y98D02*
X109Y98D01*
X138Y98D02*
X155Y98D01*
X1364Y98D02*
X1371Y98D01*
X1404Y98D02*
X1410Y98D01*
X1434Y98D02*
X1440Y98D01*
X1458Y98D02*
X1465Y98D01*
X1488Y98D02*
X1495Y98D01*
X1516Y98D02*
X1530Y98D01*
X1575Y98D02*
X1582Y98D01*
X1652Y98D02*
X1659Y98D01*
X1677Y98D02*
X1688Y98D01*
X1708Y98D02*
X1713Y98D01*
X1787Y98D02*
X1793Y98D01*
X1817Y98D02*
X1823Y98D01*
X1896Y98D02*
X1930Y98D01*
X2021Y98D02*
X2027Y98D01*
X2219Y98D02*
X2226Y98D01*
X0Y97D02*
X7Y97D01*
X43Y97D02*
X48Y97D01*
X69Y97D02*
X75Y97D01*
X103Y97D02*
X109Y97D01*
X138Y97D02*
X156Y97D01*
X1364Y97D02*
X1371Y97D01*
X1404Y97D02*
X1410Y97D01*
X1434Y97D02*
X1440Y97D01*
X1458Y97D02*
X1465Y97D01*
X1488Y97D02*
X1495Y97D01*
X1517Y97D02*
X1533Y97D01*
X1575Y97D02*
X1582Y97D01*
X1631Y97D02*
X1659Y97D01*
X1677Y97D02*
X1686Y97D01*
X1709Y97D02*
X1713Y97D01*
X1787Y97D02*
X1793Y97D01*
X1817Y97D02*
X1823Y97D01*
X1896Y97D02*
X1929Y97D01*
X2021Y97D02*
X2027Y97D01*
X2038Y97D02*
X2040Y97D01*
X2219Y97D02*
X2226Y97D01*
X0Y96D02*
X7Y96D01*
X43Y96D02*
X48Y96D01*
X69Y96D02*
X75Y96D01*
X103Y96D02*
X109Y96D01*
X138Y96D02*
X146Y96D01*
X148Y96D02*
X158Y96D01*
X1364Y96D02*
X1371Y96D01*
X1404Y96D02*
X1410Y96D01*
X1434Y96D02*
X1440Y96D01*
X1458Y96D02*
X1465Y96D01*
X1488Y96D02*
X1495Y96D01*
X1518Y96D02*
X1535Y96D01*
X1575Y96D02*
X1582Y96D01*
X1629Y96D02*
X1659Y96D01*
X1677Y96D02*
X1685Y96D01*
X1787Y96D02*
X1793Y96D01*
X1817Y96D02*
X1823Y96D01*
X1896Y96D02*
X1903Y96D01*
X2021Y96D02*
X2027Y96D01*
X2037Y96D02*
X2041Y96D01*
X2219Y96D02*
X2226Y96D01*
X0Y95D02*
X7Y95D01*
X43Y95D02*
X49Y95D01*
X69Y95D02*
X75Y95D01*
X103Y95D02*
X109Y95D01*
X138Y95D02*
X144Y95D01*
X150Y95D02*
X159Y95D01*
X1364Y95D02*
X1371Y95D01*
X1404Y95D02*
X1410Y95D01*
X1434Y95D02*
X1440Y95D01*
X1458Y95D02*
X1465Y95D01*
X1488Y95D02*
X1495Y95D01*
X1519Y95D02*
X1537Y95D01*
X1575Y95D02*
X1582Y95D01*
X1627Y95D02*
X1659Y95D01*
X1677Y95D02*
X1684Y95D01*
X1787Y95D02*
X1793Y95D01*
X1817Y95D02*
X1823Y95D01*
X1896Y95D02*
X1903Y95D01*
X2021Y95D02*
X2027Y95D01*
X2036Y95D02*
X2042Y95D01*
X2219Y95D02*
X2226Y95D01*
X0Y94D02*
X7Y94D01*
X43Y94D02*
X49Y94D01*
X69Y94D02*
X75Y94D01*
X103Y94D02*
X109Y94D01*
X138Y94D02*
X143Y94D01*
X151Y94D02*
X160Y94D01*
X1364Y94D02*
X1371Y94D01*
X1404Y94D02*
X1410Y94D01*
X1434Y94D02*
X1440Y94D01*
X1458Y94D02*
X1465Y94D01*
X1488Y94D02*
X1495Y94D01*
X1521Y94D02*
X1539Y94D01*
X1575Y94D02*
X1582Y94D01*
X1626Y94D02*
X1659Y94D01*
X1677Y94D02*
X1684Y94D01*
X1787Y94D02*
X1793Y94D01*
X1817Y94D02*
X1823Y94D01*
X1856Y94D02*
X1863Y94D01*
X1896Y94D02*
X1903Y94D01*
X1966Y94D02*
X1973Y94D01*
X2021Y94D02*
X2027Y94D01*
X2036Y94D02*
X2042Y94D01*
X2219Y94D02*
X2226Y94D01*
X0Y93D02*
X7Y93D01*
X43Y93D02*
X50Y93D01*
X69Y93D02*
X75Y93D01*
X103Y93D02*
X109Y93D01*
X138Y93D02*
X143Y93D01*
X152Y93D02*
X161Y93D01*
X1364Y93D02*
X1371Y93D01*
X1404Y93D02*
X1410Y93D01*
X1434Y93D02*
X1440Y93D01*
X1458Y93D02*
X1465Y93D01*
X1488Y93D02*
X1495Y93D01*
X1524Y93D02*
X1542Y93D01*
X1575Y93D02*
X1582Y93D01*
X1625Y93D02*
X1659Y93D01*
X1677Y93D02*
X1684Y93D01*
X1787Y93D02*
X1793Y93D01*
X1817Y93D02*
X1823Y93D01*
X1854Y93D02*
X1866Y93D01*
X1896Y93D02*
X1903Y93D01*
X1963Y93D02*
X1975Y93D01*
X2021Y93D02*
X2027Y93D01*
X2036Y93D02*
X2042Y93D01*
X2219Y93D02*
X2226Y93D01*
X0Y92D02*
X7Y92D01*
X43Y92D02*
X51Y92D01*
X69Y92D02*
X74Y92D01*
X103Y92D02*
X109Y92D01*
X138Y92D02*
X143Y92D01*
X153Y92D02*
X162Y92D01*
X1364Y92D02*
X1371Y92D01*
X1404Y92D02*
X1410Y92D01*
X1434Y92D02*
X1440Y92D01*
X1458Y92D02*
X1465Y92D01*
X1488Y92D02*
X1495Y92D01*
X1526Y92D02*
X1544Y92D01*
X1575Y92D02*
X1582Y92D01*
X1624Y92D02*
X1659Y92D01*
X1677Y92D02*
X1684Y92D01*
X1787Y92D02*
X1793Y92D01*
X1817Y92D02*
X1823Y92D01*
X1853Y92D02*
X1866Y92D01*
X1896Y92D02*
X1903Y92D01*
X1963Y92D02*
X1976Y92D01*
X2021Y92D02*
X2027Y92D01*
X2036Y92D02*
X2042Y92D01*
X2219Y92D02*
X2226Y92D01*
X0Y91D02*
X7Y91D01*
X43Y91D02*
X52Y91D01*
X68Y91D02*
X74Y91D01*
X103Y91D02*
X109Y91D01*
X138Y91D02*
X143Y91D01*
X154Y91D02*
X163Y91D01*
X1364Y91D02*
X1371Y91D01*
X1404Y91D02*
X1410Y91D01*
X1434Y91D02*
X1440Y91D01*
X1458Y91D02*
X1465Y91D01*
X1488Y91D02*
X1495Y91D01*
X1528Y91D02*
X1545Y91D01*
X1575Y91D02*
X1582Y91D01*
X1624Y91D02*
X1659Y91D01*
X1677Y91D02*
X1684Y91D01*
X1787Y91D02*
X1793Y91D01*
X1817Y91D02*
X1823Y91D01*
X1853Y91D02*
X1867Y91D01*
X1896Y91D02*
X1903Y91D01*
X1962Y91D02*
X1976Y91D01*
X2021Y91D02*
X2027Y91D01*
X2036Y91D02*
X2042Y91D01*
X2219Y91D02*
X2226Y91D01*
X0Y90D02*
X7Y90D01*
X43Y90D02*
X53Y90D01*
X67Y90D02*
X74Y90D01*
X103Y90D02*
X109Y90D01*
X138Y90D02*
X143Y90D01*
X155Y90D02*
X165Y90D01*
X1364Y90D02*
X1371Y90D01*
X1404Y90D02*
X1410Y90D01*
X1434Y90D02*
X1440Y90D01*
X1458Y90D02*
X1465Y90D01*
X1488Y90D02*
X1495Y90D01*
X1531Y90D02*
X1546Y90D01*
X1575Y90D02*
X1582Y90D01*
X1623Y90D02*
X1659Y90D01*
X1677Y90D02*
X1684Y90D01*
X1787Y90D02*
X1793Y90D01*
X1817Y90D02*
X1823Y90D01*
X1853Y90D02*
X1867Y90D01*
X1896Y90D02*
X1903Y90D01*
X1962Y90D02*
X1976Y90D01*
X2021Y90D02*
X2027Y90D01*
X2036Y90D02*
X2042Y90D01*
X2219Y90D02*
X2226Y90D01*
X0Y89D02*
X7Y89D01*
X43Y89D02*
X55Y89D01*
X66Y89D02*
X74Y89D01*
X103Y89D02*
X109Y89D01*
X138Y89D02*
X143Y89D01*
X157Y89D02*
X166Y89D01*
X1364Y89D02*
X1371Y89D01*
X1404Y89D02*
X1410Y89D01*
X1434Y89D02*
X1440Y89D01*
X1458Y89D02*
X1465Y89D01*
X1488Y89D02*
X1495Y89D01*
X1533Y89D02*
X1547Y89D01*
X1575Y89D02*
X1582Y89D01*
X1623Y89D02*
X1631Y89D01*
X1650Y89D02*
X1659Y89D01*
X1677Y89D02*
X1684Y89D01*
X1787Y89D02*
X1793Y89D01*
X1817Y89D02*
X1823Y89D01*
X1853Y89D02*
X1867Y89D01*
X1896Y89D02*
X1903Y89D01*
X1962Y89D02*
X1976Y89D01*
X2021Y89D02*
X2027Y89D01*
X2036Y89D02*
X2042Y89D01*
X2219Y89D02*
X2226Y89D01*
X0Y88D02*
X7Y88D01*
X43Y88D02*
X56Y88D01*
X65Y88D02*
X73Y88D01*
X103Y88D02*
X109Y88D01*
X138Y88D02*
X143Y88D01*
X158Y88D02*
X167Y88D01*
X1364Y88D02*
X1371Y88D01*
X1404Y88D02*
X1410Y88D01*
X1434Y88D02*
X1440Y88D01*
X1458Y88D02*
X1465Y88D01*
X1488Y88D02*
X1495Y88D01*
X1535Y88D02*
X1548Y88D01*
X1575Y88D02*
X1582Y88D01*
X1623Y88D02*
X1630Y88D01*
X1651Y88D02*
X1659Y88D01*
X1677Y88D02*
X1684Y88D01*
X1787Y88D02*
X1793Y88D01*
X1817Y88D02*
X1823Y88D01*
X1853Y88D02*
X1867Y88D01*
X1896Y88D02*
X1903Y88D01*
X1962Y88D02*
X1976Y88D01*
X2021Y88D02*
X2027Y88D01*
X2036Y88D02*
X2042Y88D01*
X2219Y88D02*
X2226Y88D01*
X0Y87D02*
X7Y87D01*
X43Y87D02*
X72Y87D01*
X95Y87D02*
X117Y87D01*
X138Y87D02*
X143Y87D01*
X159Y87D02*
X168Y87D01*
X1364Y87D02*
X1371Y87D01*
X1404Y87D02*
X1410Y87D01*
X1434Y87D02*
X1440Y87D01*
X1458Y87D02*
X1465Y87D01*
X1488Y87D02*
X1495Y87D01*
X1537Y87D02*
X1548Y87D01*
X1575Y87D02*
X1582Y87D01*
X1623Y87D02*
X1629Y87D01*
X1652Y87D02*
X1659Y87D01*
X1677Y87D02*
X1684Y87D01*
X1787Y87D02*
X1793Y87D01*
X1817Y87D02*
X1823Y87D01*
X1853Y87D02*
X1867Y87D01*
X1896Y87D02*
X1903Y87D01*
X1962Y87D02*
X1976Y87D01*
X2021Y87D02*
X2027Y87D01*
X2036Y87D02*
X2042Y87D01*
X2219Y87D02*
X2226Y87D01*
X0Y86D02*
X7Y86D01*
X43Y86D02*
X71Y86D01*
X94Y86D02*
X118Y86D01*
X138Y86D02*
X143Y86D01*
X160Y86D02*
X169Y86D01*
X1364Y86D02*
X1371Y86D01*
X1404Y86D02*
X1410Y86D01*
X1434Y86D02*
X1440Y86D01*
X1458Y86D02*
X1465Y86D01*
X1488Y86D02*
X1495Y86D01*
X1540Y86D02*
X1549Y86D01*
X1575Y86D02*
X1582Y86D01*
X1623Y86D02*
X1629Y86D01*
X1652Y86D02*
X1659Y86D01*
X1677Y86D02*
X1684Y86D01*
X1787Y86D02*
X1793Y86D01*
X1817Y86D02*
X1823Y86D01*
X1853Y86D02*
X1867Y86D01*
X1896Y86D02*
X1903Y86D01*
X1962Y86D02*
X1976Y86D01*
X2021Y86D02*
X2027Y86D01*
X2036Y86D02*
X2042Y86D01*
X2219Y86D02*
X2226Y86D01*
X0Y85D02*
X7Y85D01*
X43Y85D02*
X70Y85D01*
X94Y85D02*
X119Y85D01*
X138Y85D02*
X143Y85D01*
X161Y85D02*
X169Y85D01*
X1364Y85D02*
X1371Y85D01*
X1404Y85D02*
X1410Y85D01*
X1434Y85D02*
X1440Y85D01*
X1458Y85D02*
X1466Y85D01*
X1488Y85D02*
X1495Y85D01*
X1542Y85D02*
X1549Y85D01*
X1575Y85D02*
X1582Y85D01*
X1623Y85D02*
X1629Y85D01*
X1652Y85D02*
X1659Y85D01*
X1677Y85D02*
X1684Y85D01*
X1787Y85D02*
X1793Y85D01*
X1817Y85D02*
X1823Y85D01*
X1853Y85D02*
X1867Y85D01*
X1896Y85D02*
X1903Y85D01*
X1962Y85D02*
X1976Y85D01*
X2021Y85D02*
X2027Y85D01*
X2036Y85D02*
X2042Y85D01*
X2219Y85D02*
X2226Y85D01*
X0Y84D02*
X7Y84D01*
X43Y84D02*
X48Y84D01*
X51Y84D02*
X69Y84D01*
X93Y84D02*
X119Y84D01*
X138Y84D02*
X143Y84D01*
X162Y84D02*
X169Y84D01*
X1364Y84D02*
X1371Y84D01*
X1404Y84D02*
X1410Y84D01*
X1434Y84D02*
X1440Y84D01*
X1458Y84D02*
X1467Y84D01*
X1488Y84D02*
X1495Y84D01*
X1542Y84D02*
X1549Y84D01*
X1575Y84D02*
X1582Y84D01*
X1600Y84D02*
X1602Y84D01*
X1623Y84D02*
X1629Y84D01*
X1652Y84D02*
X1659Y84D01*
X1677Y84D02*
X1684Y84D01*
X1787Y84D02*
X1793Y84D01*
X1817Y84D02*
X1823Y84D01*
X1853Y84D02*
X1867Y84D01*
X1896Y84D02*
X1903Y84D01*
X1962Y84D02*
X1976Y84D01*
X2021Y84D02*
X2027Y84D01*
X2036Y84D02*
X2042Y84D01*
X2219Y84D02*
X2226Y84D01*
X0Y83D02*
X7Y83D01*
X43Y83D02*
X48Y83D01*
X52Y83D02*
X68Y83D01*
X94Y83D02*
X118Y83D01*
X138Y83D02*
X143Y83D01*
X164Y83D02*
X169Y83D01*
X1364Y83D02*
X1371Y83D01*
X1404Y83D02*
X1410Y83D01*
X1433Y83D02*
X1440Y83D01*
X1458Y83D02*
X1468Y83D01*
X1488Y83D02*
X1495Y83D01*
X1543Y83D02*
X1550Y83D01*
X1575Y83D02*
X1582Y83D01*
X1599Y83D02*
X1604Y83D01*
X1623Y83D02*
X1629Y83D01*
X1652Y83D02*
X1659Y83D01*
X1677Y83D02*
X1684Y83D01*
X1787Y83D02*
X1793Y83D01*
X1817Y83D02*
X1823Y83D01*
X1853Y83D02*
X1867Y83D01*
X1896Y83D02*
X1903Y83D01*
X1962Y83D02*
X1976Y83D01*
X2021Y83D02*
X2027Y83D01*
X2036Y83D02*
X2042Y83D01*
X2219Y83D02*
X2226Y83D01*
X0Y82D02*
X7Y82D01*
X44Y82D02*
X47Y82D01*
X54Y82D02*
X66Y82D01*
X95Y82D02*
X118Y82D01*
X139Y82D02*
X142Y82D01*
X165Y82D02*
X168Y82D01*
X1364Y82D02*
X1371Y82D01*
X1404Y82D02*
X1411Y82D01*
X1433Y82D02*
X1440Y82D01*
X1458Y82D02*
X1469Y82D01*
X1488Y82D02*
X1495Y82D01*
X1543Y82D02*
X1550Y82D01*
X1575Y82D02*
X1582Y82D01*
X1598Y82D02*
X1604Y82D01*
X1623Y82D02*
X1629Y82D01*
X1651Y82D02*
X1659Y82D01*
X1677Y82D02*
X1684Y82D01*
X1787Y82D02*
X1793Y82D01*
X1817Y82D02*
X1823Y82D01*
X1853Y82D02*
X1866Y82D01*
X1896Y82D02*
X1903Y82D01*
X1963Y82D02*
X1976Y82D01*
X2021Y82D02*
X2027Y82D01*
X2036Y82D02*
X2042Y82D01*
X2219Y82D02*
X2226Y82D01*
X0Y81D02*
X7Y81D01*
X1364Y81D02*
X1371Y81D01*
X1404Y81D02*
X1412Y81D01*
X1432Y81D02*
X1440Y81D01*
X1458Y81D02*
X1470Y81D01*
X1487Y81D02*
X1495Y81D01*
X1516Y81D02*
X1517Y81D01*
X1543Y81D02*
X1550Y81D01*
X1575Y81D02*
X1582Y81D01*
X1598Y81D02*
X1604Y81D01*
X1623Y81D02*
X1629Y81D01*
X1649Y81D02*
X1659Y81D01*
X1677Y81D02*
X1684Y81D01*
X1787Y81D02*
X1793Y81D01*
X1817Y81D02*
X1823Y81D01*
X1854Y81D02*
X1866Y81D01*
X1896Y81D02*
X1903Y81D01*
X1963Y81D02*
X1975Y81D01*
X2021Y81D02*
X2027Y81D01*
X2036Y81D02*
X2042Y81D01*
X2219Y81D02*
X2226Y81D01*
X0Y80D02*
X7Y80D01*
X1364Y80D02*
X1371Y80D01*
X1404Y80D02*
X1413Y80D01*
X1431Y80D02*
X1440Y80D01*
X1458Y80D02*
X1471Y80D01*
X1486Y80D02*
X1494Y80D01*
X1514Y80D02*
X1519Y80D01*
X1542Y80D02*
X1549Y80D01*
X1575Y80D02*
X1582Y80D01*
X1597Y80D02*
X1604Y80D01*
X1623Y80D02*
X1630Y80D01*
X1647Y80D02*
X1659Y80D01*
X1677Y80D02*
X1684Y80D01*
X1787Y80D02*
X1793Y80D01*
X1817Y80D02*
X1823Y80D01*
X1856Y80D02*
X1864Y80D01*
X1896Y80D02*
X1903Y80D01*
X1965Y80D02*
X1973Y80D01*
X2021Y80D02*
X2027Y80D01*
X2036Y80D02*
X2042Y80D01*
X2219Y80D02*
X2226Y80D01*
X0Y79D02*
X7Y79D01*
X1364Y79D02*
X1371Y79D01*
X1405Y79D02*
X1414Y79D01*
X1430Y79D02*
X1439Y79D01*
X1458Y79D02*
X1473Y79D01*
X1485Y79D02*
X1494Y79D01*
X1513Y79D02*
X1520Y79D01*
X1542Y79D02*
X1549Y79D01*
X1576Y79D02*
X1583Y79D01*
X1597Y79D02*
X1604Y79D01*
X1623Y79D02*
X1630Y79D01*
X1646Y79D02*
X1659Y79D01*
X1677Y79D02*
X1684Y79D01*
X1787Y79D02*
X1793Y79D01*
X1817Y79D02*
X1823Y79D01*
X1896Y79D02*
X1903Y79D01*
X2021Y79D02*
X2027Y79D01*
X2036Y79D02*
X2042Y79D01*
X2219Y79D02*
X2226Y79D01*
X0Y78D02*
X7Y78D01*
X1363Y78D02*
X1371Y78D01*
X1405Y78D02*
X1416Y78D01*
X1428Y78D02*
X1439Y78D01*
X1458Y78D02*
X1475Y78D01*
X1482Y78D02*
X1493Y78D01*
X1513Y78D02*
X1523Y78D01*
X1540Y78D02*
X1549Y78D01*
X1576Y78D02*
X1585Y78D01*
X1595Y78D02*
X1604Y78D01*
X1623Y78D02*
X1632Y78D01*
X1644Y78D02*
X1659Y78D01*
X1677Y78D02*
X1684Y78D01*
X1787Y78D02*
X1794Y78D01*
X1816Y78D02*
X1823Y78D01*
X1896Y78D02*
X1903Y78D01*
X2020Y78D02*
X2028Y78D01*
X2035Y78D02*
X2042Y78D01*
X2219Y78D02*
X2226Y78D01*
X0Y77D02*
X7Y77D01*
X1354Y77D02*
X1380Y77D01*
X1406Y77D02*
X1438Y77D01*
X1458Y77D02*
X1492Y77D01*
X1513Y77D02*
X1549Y77D01*
X1576Y77D02*
X1604Y77D01*
X1623Y77D02*
X1659Y77D01*
X1677Y77D02*
X1684Y77D01*
X1787Y77D02*
X1823Y77D01*
X1896Y77D02*
X1932Y77D01*
X2007Y77D02*
X2042Y77D01*
X2219Y77D02*
X2226Y77D01*
X0Y76D02*
X7Y76D01*
X1353Y76D02*
X1381Y76D01*
X1407Y76D02*
X1437Y76D01*
X1458Y76D02*
X1491Y76D01*
X1513Y76D02*
X1548Y76D01*
X1577Y76D02*
X1603Y76D01*
X1624Y76D02*
X1659Y76D01*
X1677Y76D02*
X1684Y76D01*
X1787Y76D02*
X1823Y76D01*
X1896Y76D02*
X1932Y76D01*
X2006Y76D02*
X2042Y76D01*
X2219Y76D02*
X2226Y76D01*
X0Y75D02*
X7Y75D01*
X1353Y75D02*
X1382Y75D01*
X1408Y75D02*
X1436Y75D01*
X1458Y75D02*
X1490Y75D01*
X1514Y75D02*
X1547Y75D01*
X1577Y75D02*
X1602Y75D01*
X1625Y75D02*
X1659Y75D01*
X1677Y75D02*
X1684Y75D01*
X1787Y75D02*
X1823Y75D01*
X1896Y75D02*
X1933Y75D01*
X2006Y75D02*
X2042Y75D01*
X2219Y75D02*
X2226Y75D01*
X0Y74D02*
X7Y74D01*
X1353Y74D02*
X1382Y74D01*
X1409Y74D02*
X1435Y74D01*
X1458Y74D02*
X1465Y74D01*
X1467Y74D02*
X1489Y74D01*
X1515Y74D02*
X1546Y74D01*
X1578Y74D02*
X1601Y74D01*
X1626Y74D02*
X1659Y74D01*
X1677Y74D02*
X1684Y74D01*
X1788Y74D02*
X1822Y74D01*
X1896Y74D02*
X1933Y74D01*
X2006Y74D02*
X2042Y74D01*
X2219Y74D02*
X2226Y74D01*
X0Y73D02*
X7Y73D01*
X1353Y73D02*
X1382Y73D01*
X1410Y73D02*
X1433Y73D01*
X1458Y73D02*
X1465Y73D01*
X1469Y73D02*
X1488Y73D01*
X1516Y73D02*
X1545Y73D01*
X1579Y73D02*
X1600Y73D01*
X1627Y73D02*
X1650Y73D01*
X1653Y73D02*
X1658Y73D01*
X1677Y73D02*
X1684Y73D01*
X1789Y73D02*
X1821Y73D01*
X1896Y73D02*
X1933Y73D01*
X2006Y73D02*
X2042Y73D01*
X2219Y73D02*
X2226Y73D01*
X0Y72D02*
X7Y72D01*
X1353Y72D02*
X1381Y72D01*
X1412Y72D02*
X1432Y72D01*
X1459Y72D02*
X1464Y72D01*
X1470Y72D02*
X1487Y72D01*
X1518Y72D02*
X1544Y72D01*
X1581Y72D02*
X1599Y72D01*
X1628Y72D02*
X1648Y72D01*
X1653Y72D02*
X1658Y72D01*
X1678Y72D02*
X1683Y72D01*
X1790Y72D02*
X1820Y72D01*
X1896Y72D02*
X1932Y72D01*
X2006Y72D02*
X2042Y72D01*
X2219Y72D02*
X2226Y72D01*
X0Y71D02*
X7Y71D01*
X1354Y71D02*
X1380Y71D01*
X1414Y71D02*
X1430Y71D01*
X1460Y71D02*
X1463Y71D01*
X1472Y71D02*
X1485Y71D01*
X1520Y71D02*
X1542Y71D01*
X1583Y71D02*
X1597Y71D01*
X1630Y71D02*
X1646Y71D01*
X1654Y71D02*
X1657Y71D01*
X1679Y71D02*
X1682Y71D01*
X1791Y71D02*
X1819Y71D01*
X1896Y71D02*
X1931Y71D01*
X2007Y71D02*
X2041Y71D01*
X2219Y71D02*
X2226Y71D01*
X0Y70D02*
X7Y70D01*
X2219Y70D02*
X2226Y70D01*
X0Y69D02*
X7Y69D01*
X2219Y69D02*
X2226Y69D01*
X0Y68D02*
X7Y68D01*
X2219Y68D02*
X2226Y68D01*
X0Y67D02*
X7Y67D01*
X2219Y67D02*
X2226Y67D01*
X0Y66D02*
X7Y66D01*
X2219Y66D02*
X2226Y66D01*
X0Y65D02*
X7Y65D01*
X2219Y65D02*
X2226Y65D01*
X0Y64D02*
X7Y64D01*
X2219Y64D02*
X2226Y64D01*
X0Y63D02*
X7Y63D01*
X2219Y63D02*
X2226Y63D01*
X0Y62D02*
X7Y62D01*
X2219Y62D02*
X2226Y62D01*
X0Y61D02*
X7Y61D01*
X2219Y61D02*
X2226Y61D01*
X0Y60D02*
X7Y60D01*
X2219Y60D02*
X2226Y60D01*
X0Y59D02*
X7Y59D01*
X2219Y59D02*
X2226Y59D01*
X0Y58D02*
X7Y58D01*
X2219Y58D02*
X2226Y58D01*
X0Y57D02*
X7Y57D01*
X2219Y57D02*
X2226Y57D01*
X0Y56D02*
X7Y56D01*
X2219Y56D02*
X2226Y56D01*
X0Y55D02*
X7Y55D01*
X2219Y55D02*
X2226Y55D01*
X0Y54D02*
X7Y54D01*
X2219Y54D02*
X2226Y54D01*
X0Y53D02*
X7Y53D01*
X2219Y53D02*
X2226Y53D01*
X0Y52D02*
X7Y52D01*
X2219Y52D02*
X2226Y52D01*
X0Y51D02*
X7Y51D01*
X2219Y51D02*
X2226Y51D01*
X0Y50D02*
X7Y50D01*
X2219Y50D02*
X2226Y50D01*
X0Y49D02*
X7Y49D01*
X2219Y49D02*
X2226Y49D01*
X0Y48D02*
X7Y48D01*
X2219Y48D02*
X2226Y48D01*
X0Y47D02*
X7Y47D01*
X2219Y47D02*
X2226Y47D01*
X0Y46D02*
X7Y46D01*
X2219Y46D02*
X2226Y46D01*
X0Y45D02*
X7Y45D01*
X2219Y45D02*
X2226Y45D01*
X0Y44D02*
X7Y44D01*
X2219Y44D02*
X2226Y44D01*
X0Y43D02*
X7Y43D01*
X2219Y43D02*
X2226Y43D01*
X0Y42D02*
X7Y42D01*
X2219Y42D02*
X2226Y42D01*
X0Y41D02*
X7Y41D01*
X2219Y41D02*
X2226Y41D01*
X0Y40D02*
X7Y40D01*
X2219Y40D02*
X2226Y40D01*
X0Y39D02*
X7Y39D01*
X2219Y39D02*
X2226Y39D01*
X0Y38D02*
X7Y38D01*
X2219Y38D02*
X2226Y38D01*
X0Y37D02*
X7Y37D01*
X2219Y37D02*
X2226Y37D01*
X0Y36D02*
X7Y36D01*
X2219Y36D02*
X2226Y36D01*
X0Y35D02*
X7Y35D01*
X2219Y35D02*
X2226Y35D01*
X0Y34D02*
X7Y34D01*
X2219Y34D02*
X2226Y34D01*
X0Y33D02*
X7Y33D01*
X2219Y33D02*
X2226Y33D01*
X0Y32D02*
X7Y32D01*
X2219Y32D02*
X2226Y32D01*
X0Y31D02*
X7Y31D01*
X2219Y31D02*
X2226Y31D01*
X0Y30D02*
X7Y30D01*
X2219Y30D02*
X2226Y30D01*
X0Y29D02*
X7Y29D01*
X2219Y29D02*
X2226Y29D01*
X0Y28D02*
X7Y28D01*
X2219Y28D02*
X2226Y28D01*
X0Y27D02*
X7Y27D01*
X2219Y27D02*
X2226Y27D01*
X0Y26D02*
X7Y26D01*
X2219Y26D02*
X2226Y26D01*
X0Y25D02*
X7Y25D01*
X2219Y25D02*
X2226Y25D01*
X0Y24D02*
X7Y24D01*
X2219Y24D02*
X2226Y24D01*
X0Y23D02*
X7Y23D01*
X2219Y23D02*
X2226Y23D01*
X0Y22D02*
X7Y22D01*
X2219Y22D02*
X2226Y22D01*
X0Y21D02*
X7Y21D01*
X2219Y21D02*
X2226Y21D01*
X0Y20D02*
X7Y20D01*
X2219Y20D02*
X2226Y20D01*
X0Y19D02*
X7Y19D01*
X2219Y19D02*
X2226Y19D01*
X0Y18D02*
X7Y18D01*
X2219Y18D02*
X2226Y18D01*
X0Y17D02*
X7Y17D01*
X2219Y17D02*
X2226Y17D01*
X0Y16D02*
X7Y16D01*
X2219Y16D02*
X2226Y16D01*
X0Y15D02*
X7Y15D01*
X2219Y15D02*
X2226Y15D01*
X0Y14D02*
X7Y14D01*
X2219Y14D02*
X2226Y14D01*
X0Y13D02*
X7Y13D01*
X2219Y13D02*
X2226Y13D01*
X0Y12D02*
X7Y12D01*
X2219Y12D02*
X2226Y12D01*
X0Y11D02*
X7Y11D01*
X2219Y11D02*
X2226Y11D01*
X0Y10D02*
X7Y10D01*
X2219Y10D02*
X2226Y10D01*
X0Y9D02*
X7Y9D01*
X2219Y9D02*
X2226Y9D01*
X0Y8D02*
X2226Y8D01*
X0Y7D02*
X2226Y7D01*
X0Y6D02*
X2226Y6D01*
X0Y5D02*
X2226Y5D01*
X0Y4D02*
X2226Y4D01*
X0Y3D02*
X2226Y3D01*
X0Y2D02*
X2226Y2D01*
X0Y1D02*
X2226Y1D01*
D02*
G04 End of Silk1*
M02*