G04 MADE WITH FRITZING*
G04 WWW.FRITZING.ORG*
G04 DOUBLE SIDED*
G04 HOLES PLATED*
G04 CONTOUR ON CENTER OF CONTOUR VECTOR*
%ASAXBY*%
%FSLAX23Y23*%
%MOIN*%
%OFA0B0*%
%SFA1.0B1.0*%
%ADD10C,0.075000*%
%ADD11C,0.079370*%
%ADD12C,0.078000*%
%ADD13C,0.070000*%
%ADD14R,0.075000X0.075000*%
%ADD15C,0.024000*%
%ADD16C,0.011111*%
%LNCOPPER0*%
G90*
G70*
G54D10*
X2069Y753D03*
X224Y663D03*
X240Y453D03*
X2078Y298D03*
G54D11*
X125Y746D03*
X125Y646D03*
X125Y546D03*
X125Y446D03*
X125Y346D03*
X125Y246D03*
G54D10*
X675Y316D03*
X675Y616D03*
X775Y316D03*
X775Y616D03*
X875Y316D03*
X875Y616D03*
X975Y316D03*
X975Y616D03*
X1075Y316D03*
X1075Y616D03*
X1175Y316D03*
X1175Y616D03*
X1275Y316D03*
X1275Y616D03*
X1375Y316D03*
X1375Y616D03*
X1475Y316D03*
X1475Y616D03*
X1575Y316D03*
X1575Y616D03*
X1675Y316D03*
X1675Y616D03*
X1775Y316D03*
X1775Y616D03*
X1875Y316D03*
X1875Y616D03*
X1975Y316D03*
X1975Y616D03*
X575Y116D03*
X575Y316D03*
G54D12*
X675Y216D03*
X775Y216D03*
X875Y216D03*
X975Y216D03*
X1075Y216D03*
X1175Y216D03*
X1275Y216D03*
X1375Y216D03*
X1475Y216D03*
X1575Y216D03*
X1675Y216D03*
X1775Y216D03*
X1875Y216D03*
X1975Y216D03*
X675Y716D03*
X775Y716D03*
X875Y716D03*
X975Y716D03*
X1075Y716D03*
X1175Y716D03*
X1275Y716D03*
X1375Y716D03*
X1475Y716D03*
X1575Y716D03*
X1675Y716D03*
X1775Y716D03*
X1875Y716D03*
X1975Y716D03*
G54D10*
X2125Y616D03*
X2125Y516D03*
X2125Y416D03*
X402Y312D03*
X402Y56D03*
X225Y312D03*
X225Y56D03*
G54D13*
X495Y516D03*
X495Y316D03*
G54D14*
X675Y316D03*
X575Y116D03*
X2125Y516D03*
G54D15*
X875Y466D02*
X875Y344D01*
D02*
X576Y464D02*
X875Y466D01*
D02*
X45Y645D02*
X45Y816D01*
D02*
X45Y816D02*
X575Y816D01*
D02*
X94Y646D02*
X45Y645D01*
D02*
X495Y156D02*
X549Y129D01*
D02*
X45Y156D02*
X495Y156D01*
D02*
X45Y445D02*
X45Y156D01*
D02*
X94Y446D02*
X45Y445D01*
D02*
X1276Y107D02*
X1275Y186D01*
D02*
X603Y115D02*
X1276Y107D01*
D02*
X1525Y466D02*
X1825Y466D01*
D02*
X1484Y343D02*
X1525Y466D01*
D02*
X1575Y416D02*
X1575Y344D01*
D02*
X2096Y416D02*
X1575Y416D01*
G54D16*
D02*
X1075Y240D02*
X1075Y293D01*
D02*
X1675Y293D02*
X1675Y240D01*
D02*
X1575Y293D02*
X1575Y240D01*
D02*
X1375Y293D02*
X1375Y240D01*
D02*
X1175Y293D02*
X1175Y240D01*
D02*
X975Y240D02*
X975Y293D01*
D02*
X875Y293D02*
X875Y240D01*
D02*
X775Y293D02*
X775Y240D01*
D02*
X1475Y240D02*
X1475Y293D01*
D02*
X1775Y240D02*
X1775Y293D01*
D02*
X1875Y240D02*
X1875Y293D01*
D02*
X1975Y240D02*
X1975Y293D01*
D02*
X675Y639D02*
X675Y664D01*
D02*
X775Y639D02*
X775Y691D01*
D02*
X875Y639D02*
X875Y691D01*
D02*
X975Y639D02*
X975Y691D01*
D02*
X1075Y639D02*
X1075Y691D01*
D02*
X1175Y639D02*
X1175Y691D01*
D02*
X1275Y639D02*
X1275Y691D01*
D02*
X1375Y639D02*
X1375Y691D01*
D02*
X1475Y639D02*
X1475Y691D01*
D02*
X1575Y639D02*
X1575Y691D01*
D02*
X1675Y639D02*
X1675Y691D01*
D02*
X1775Y639D02*
X1775Y691D01*
D02*
X1879Y667D02*
X1877Y639D01*
D02*
X1875Y716D02*
X1879Y667D01*
D02*
X1975Y639D02*
X1975Y691D01*
G54D15*
D02*
X2096Y616D02*
X2065Y616D01*
D02*
X2026Y464D02*
X2065Y616D01*
D02*
X1825Y466D02*
X2026Y464D01*
D02*
X1454Y416D02*
X1275Y416D01*
D02*
X1275Y416D02*
X1275Y344D01*
D02*
X1472Y587D02*
X1454Y416D01*
D02*
X575Y816D02*
X576Y464D01*
G54D16*
D02*
X675Y664D02*
X675Y691D01*
G54D15*
D02*
X675Y287D02*
X675Y216D01*
D02*
X495Y756D02*
X155Y747D01*
D02*
X495Y542D02*
X495Y756D01*
D02*
X469Y315D02*
X430Y313D01*
D02*
X546Y316D02*
X521Y316D01*
D02*
X365Y545D02*
X155Y546D01*
D02*
X776Y396D02*
X365Y395D01*
D02*
X365Y395D02*
X365Y545D01*
D02*
X775Y344D02*
X776Y396D01*
D02*
X150Y263D02*
X201Y296D01*
D02*
X645Y316D02*
X603Y316D01*
D02*
X646Y316D02*
X645Y316D01*
D02*
X1275Y246D02*
X1275Y287D01*
G36*
X596Y818D02*
X596Y764D01*
X1986Y764D01*
X1986Y762D01*
X1992Y762D01*
X1992Y760D01*
X1996Y760D01*
X1996Y758D01*
X1998Y758D01*
X1998Y756D01*
X2002Y756D01*
X2002Y754D01*
X2004Y754D01*
X2004Y752D01*
X2006Y752D01*
X2006Y750D01*
X2008Y750D01*
X2008Y748D01*
X2010Y748D01*
X2010Y746D01*
X2012Y746D01*
X2012Y744D01*
X2014Y744D01*
X2014Y742D01*
X2016Y742D01*
X2016Y738D01*
X2018Y738D01*
X2018Y734D01*
X2020Y734D01*
X2020Y730D01*
X2022Y730D01*
X2022Y722D01*
X2024Y722D01*
X2024Y708D01*
X2022Y708D01*
X2022Y702D01*
X2020Y702D01*
X2020Y696D01*
X2018Y696D01*
X2018Y694D01*
X2016Y694D01*
X2016Y690D01*
X2014Y690D01*
X2014Y688D01*
X2012Y688D01*
X2012Y684D01*
X2010Y684D01*
X2010Y682D01*
X2008Y682D01*
X2008Y680D01*
X2004Y680D01*
X2004Y678D01*
X2002Y678D01*
X2002Y676D01*
X2000Y676D01*
X2000Y674D01*
X1998Y674D01*
X1998Y664D01*
X2128Y664D01*
X2128Y662D01*
X2136Y662D01*
X2136Y660D01*
X2142Y660D01*
X2142Y658D01*
X2146Y658D01*
X2146Y656D01*
X2148Y656D01*
X2148Y654D01*
X2152Y654D01*
X2152Y652D01*
X2154Y652D01*
X2154Y650D01*
X2156Y650D01*
X2156Y648D01*
X2158Y648D01*
X2158Y646D01*
X2160Y646D01*
X2160Y644D01*
X2162Y644D01*
X2162Y642D01*
X2164Y642D01*
X2164Y638D01*
X2166Y638D01*
X2166Y634D01*
X2186Y634D01*
X2186Y818D01*
X596Y818D01*
G37*
D02*
G36*
X596Y764D02*
X596Y744D01*
X598Y744D01*
X598Y568D01*
X666Y568D01*
X666Y570D01*
X660Y570D01*
X660Y572D01*
X656Y572D01*
X656Y574D01*
X652Y574D01*
X652Y576D01*
X650Y576D01*
X650Y578D01*
X646Y578D01*
X646Y580D01*
X644Y580D01*
X644Y582D01*
X642Y582D01*
X642Y584D01*
X640Y584D01*
X640Y586D01*
X638Y586D01*
X638Y588D01*
X636Y588D01*
X636Y592D01*
X634Y592D01*
X634Y594D01*
X632Y594D01*
X632Y598D01*
X630Y598D01*
X630Y604D01*
X628Y604D01*
X628Y628D01*
X630Y628D01*
X630Y632D01*
X632Y632D01*
X632Y636D01*
X634Y636D01*
X634Y640D01*
X636Y640D01*
X636Y642D01*
X638Y642D01*
X638Y644D01*
X640Y644D01*
X640Y648D01*
X642Y648D01*
X642Y650D01*
X646Y650D01*
X646Y652D01*
X648Y652D01*
X648Y654D01*
X650Y654D01*
X650Y676D01*
X646Y676D01*
X646Y678D01*
X644Y678D01*
X644Y680D01*
X642Y680D01*
X642Y682D01*
X640Y682D01*
X640Y684D01*
X638Y684D01*
X638Y686D01*
X636Y686D01*
X636Y690D01*
X634Y690D01*
X634Y692D01*
X632Y692D01*
X632Y696D01*
X630Y696D01*
X630Y700D01*
X628Y700D01*
X628Y706D01*
X626Y706D01*
X626Y726D01*
X628Y726D01*
X628Y732D01*
X630Y732D01*
X630Y736D01*
X632Y736D01*
X632Y740D01*
X634Y740D01*
X634Y742D01*
X636Y742D01*
X636Y744D01*
X638Y744D01*
X638Y748D01*
X640Y748D01*
X640Y750D01*
X642Y750D01*
X642Y752D01*
X646Y752D01*
X646Y754D01*
X648Y754D01*
X648Y756D01*
X650Y756D01*
X650Y758D01*
X654Y758D01*
X654Y760D01*
X658Y760D01*
X658Y762D01*
X664Y762D01*
X664Y764D01*
X596Y764D01*
G37*
D02*
G36*
X686Y764D02*
X686Y762D01*
X692Y762D01*
X692Y760D01*
X696Y760D01*
X696Y758D01*
X698Y758D01*
X698Y756D01*
X702Y756D01*
X702Y754D01*
X704Y754D01*
X704Y752D01*
X706Y752D01*
X706Y750D01*
X708Y750D01*
X708Y748D01*
X710Y748D01*
X710Y746D01*
X712Y746D01*
X712Y744D01*
X714Y744D01*
X714Y742D01*
X736Y742D01*
X736Y744D01*
X738Y744D01*
X738Y748D01*
X740Y748D01*
X740Y750D01*
X742Y750D01*
X742Y752D01*
X746Y752D01*
X746Y754D01*
X748Y754D01*
X748Y756D01*
X750Y756D01*
X750Y758D01*
X754Y758D01*
X754Y760D01*
X758Y760D01*
X758Y762D01*
X764Y762D01*
X764Y764D01*
X686Y764D01*
G37*
D02*
G36*
X786Y764D02*
X786Y762D01*
X792Y762D01*
X792Y760D01*
X796Y760D01*
X796Y758D01*
X798Y758D01*
X798Y756D01*
X802Y756D01*
X802Y754D01*
X804Y754D01*
X804Y752D01*
X806Y752D01*
X806Y750D01*
X808Y750D01*
X808Y748D01*
X810Y748D01*
X810Y746D01*
X812Y746D01*
X812Y744D01*
X814Y744D01*
X814Y742D01*
X836Y742D01*
X836Y744D01*
X838Y744D01*
X838Y748D01*
X840Y748D01*
X840Y750D01*
X842Y750D01*
X842Y752D01*
X846Y752D01*
X846Y754D01*
X848Y754D01*
X848Y756D01*
X850Y756D01*
X850Y758D01*
X854Y758D01*
X854Y760D01*
X858Y760D01*
X858Y762D01*
X864Y762D01*
X864Y764D01*
X786Y764D01*
G37*
D02*
G36*
X886Y764D02*
X886Y762D01*
X892Y762D01*
X892Y760D01*
X896Y760D01*
X896Y758D01*
X898Y758D01*
X898Y756D01*
X902Y756D01*
X902Y754D01*
X904Y754D01*
X904Y752D01*
X906Y752D01*
X906Y750D01*
X908Y750D01*
X908Y748D01*
X910Y748D01*
X910Y746D01*
X912Y746D01*
X912Y744D01*
X914Y744D01*
X914Y742D01*
X936Y742D01*
X936Y744D01*
X938Y744D01*
X938Y748D01*
X940Y748D01*
X940Y750D01*
X942Y750D01*
X942Y752D01*
X946Y752D01*
X946Y754D01*
X948Y754D01*
X948Y756D01*
X950Y756D01*
X950Y758D01*
X954Y758D01*
X954Y760D01*
X958Y760D01*
X958Y762D01*
X964Y762D01*
X964Y764D01*
X886Y764D01*
G37*
D02*
G36*
X986Y764D02*
X986Y762D01*
X992Y762D01*
X992Y760D01*
X996Y760D01*
X996Y758D01*
X998Y758D01*
X998Y756D01*
X1002Y756D01*
X1002Y754D01*
X1004Y754D01*
X1004Y752D01*
X1006Y752D01*
X1006Y750D01*
X1008Y750D01*
X1008Y748D01*
X1010Y748D01*
X1010Y746D01*
X1012Y746D01*
X1012Y744D01*
X1014Y744D01*
X1014Y742D01*
X1036Y742D01*
X1036Y744D01*
X1038Y744D01*
X1038Y748D01*
X1040Y748D01*
X1040Y750D01*
X1042Y750D01*
X1042Y752D01*
X1046Y752D01*
X1046Y754D01*
X1048Y754D01*
X1048Y756D01*
X1050Y756D01*
X1050Y758D01*
X1054Y758D01*
X1054Y760D01*
X1058Y760D01*
X1058Y762D01*
X1064Y762D01*
X1064Y764D01*
X986Y764D01*
G37*
D02*
G36*
X1086Y764D02*
X1086Y762D01*
X1092Y762D01*
X1092Y760D01*
X1096Y760D01*
X1096Y758D01*
X1098Y758D01*
X1098Y756D01*
X1102Y756D01*
X1102Y754D01*
X1104Y754D01*
X1104Y752D01*
X1106Y752D01*
X1106Y750D01*
X1108Y750D01*
X1108Y748D01*
X1110Y748D01*
X1110Y746D01*
X1112Y746D01*
X1112Y744D01*
X1114Y744D01*
X1114Y742D01*
X1136Y742D01*
X1136Y744D01*
X1138Y744D01*
X1138Y748D01*
X1140Y748D01*
X1140Y750D01*
X1142Y750D01*
X1142Y752D01*
X1146Y752D01*
X1146Y754D01*
X1148Y754D01*
X1148Y756D01*
X1150Y756D01*
X1150Y758D01*
X1154Y758D01*
X1154Y760D01*
X1158Y760D01*
X1158Y762D01*
X1164Y762D01*
X1164Y764D01*
X1086Y764D01*
G37*
D02*
G36*
X1186Y764D02*
X1186Y762D01*
X1192Y762D01*
X1192Y760D01*
X1196Y760D01*
X1196Y758D01*
X1198Y758D01*
X1198Y756D01*
X1202Y756D01*
X1202Y754D01*
X1204Y754D01*
X1204Y752D01*
X1206Y752D01*
X1206Y750D01*
X1208Y750D01*
X1208Y748D01*
X1210Y748D01*
X1210Y746D01*
X1212Y746D01*
X1212Y744D01*
X1214Y744D01*
X1214Y742D01*
X1236Y742D01*
X1236Y744D01*
X1238Y744D01*
X1238Y748D01*
X1240Y748D01*
X1240Y750D01*
X1242Y750D01*
X1242Y752D01*
X1246Y752D01*
X1246Y754D01*
X1248Y754D01*
X1248Y756D01*
X1250Y756D01*
X1250Y758D01*
X1254Y758D01*
X1254Y760D01*
X1258Y760D01*
X1258Y762D01*
X1264Y762D01*
X1264Y764D01*
X1186Y764D01*
G37*
D02*
G36*
X1286Y764D02*
X1286Y762D01*
X1292Y762D01*
X1292Y760D01*
X1296Y760D01*
X1296Y758D01*
X1298Y758D01*
X1298Y756D01*
X1302Y756D01*
X1302Y754D01*
X1304Y754D01*
X1304Y752D01*
X1306Y752D01*
X1306Y750D01*
X1308Y750D01*
X1308Y748D01*
X1310Y748D01*
X1310Y746D01*
X1312Y746D01*
X1312Y744D01*
X1314Y744D01*
X1314Y742D01*
X1336Y742D01*
X1336Y744D01*
X1338Y744D01*
X1338Y748D01*
X1340Y748D01*
X1340Y750D01*
X1342Y750D01*
X1342Y752D01*
X1346Y752D01*
X1346Y754D01*
X1348Y754D01*
X1348Y756D01*
X1350Y756D01*
X1350Y758D01*
X1354Y758D01*
X1354Y760D01*
X1358Y760D01*
X1358Y762D01*
X1364Y762D01*
X1364Y764D01*
X1286Y764D01*
G37*
D02*
G36*
X1386Y764D02*
X1386Y762D01*
X1392Y762D01*
X1392Y760D01*
X1396Y760D01*
X1396Y758D01*
X1398Y758D01*
X1398Y756D01*
X1402Y756D01*
X1402Y754D01*
X1404Y754D01*
X1404Y752D01*
X1406Y752D01*
X1406Y750D01*
X1408Y750D01*
X1408Y748D01*
X1410Y748D01*
X1410Y746D01*
X1412Y746D01*
X1412Y744D01*
X1414Y744D01*
X1414Y742D01*
X1436Y742D01*
X1436Y744D01*
X1438Y744D01*
X1438Y748D01*
X1440Y748D01*
X1440Y750D01*
X1442Y750D01*
X1442Y752D01*
X1446Y752D01*
X1446Y754D01*
X1448Y754D01*
X1448Y756D01*
X1450Y756D01*
X1450Y758D01*
X1454Y758D01*
X1454Y760D01*
X1458Y760D01*
X1458Y762D01*
X1464Y762D01*
X1464Y764D01*
X1386Y764D01*
G37*
D02*
G36*
X1486Y764D02*
X1486Y762D01*
X1492Y762D01*
X1492Y760D01*
X1496Y760D01*
X1496Y758D01*
X1498Y758D01*
X1498Y756D01*
X1502Y756D01*
X1502Y754D01*
X1504Y754D01*
X1504Y752D01*
X1506Y752D01*
X1506Y750D01*
X1508Y750D01*
X1508Y748D01*
X1510Y748D01*
X1510Y746D01*
X1512Y746D01*
X1512Y744D01*
X1514Y744D01*
X1514Y742D01*
X1536Y742D01*
X1536Y744D01*
X1538Y744D01*
X1538Y748D01*
X1540Y748D01*
X1540Y750D01*
X1542Y750D01*
X1542Y752D01*
X1546Y752D01*
X1546Y754D01*
X1548Y754D01*
X1548Y756D01*
X1550Y756D01*
X1550Y758D01*
X1554Y758D01*
X1554Y760D01*
X1558Y760D01*
X1558Y762D01*
X1564Y762D01*
X1564Y764D01*
X1486Y764D01*
G37*
D02*
G36*
X1586Y764D02*
X1586Y762D01*
X1592Y762D01*
X1592Y760D01*
X1596Y760D01*
X1596Y758D01*
X1598Y758D01*
X1598Y756D01*
X1602Y756D01*
X1602Y754D01*
X1604Y754D01*
X1604Y752D01*
X1606Y752D01*
X1606Y750D01*
X1608Y750D01*
X1608Y748D01*
X1610Y748D01*
X1610Y746D01*
X1612Y746D01*
X1612Y744D01*
X1614Y744D01*
X1614Y742D01*
X1636Y742D01*
X1636Y744D01*
X1638Y744D01*
X1638Y748D01*
X1640Y748D01*
X1640Y750D01*
X1642Y750D01*
X1642Y752D01*
X1646Y752D01*
X1646Y754D01*
X1648Y754D01*
X1648Y756D01*
X1650Y756D01*
X1650Y758D01*
X1654Y758D01*
X1654Y760D01*
X1658Y760D01*
X1658Y762D01*
X1664Y762D01*
X1664Y764D01*
X1586Y764D01*
G37*
D02*
G36*
X1686Y764D02*
X1686Y762D01*
X1692Y762D01*
X1692Y760D01*
X1696Y760D01*
X1696Y758D01*
X1698Y758D01*
X1698Y756D01*
X1702Y756D01*
X1702Y754D01*
X1704Y754D01*
X1704Y752D01*
X1706Y752D01*
X1706Y750D01*
X1708Y750D01*
X1708Y748D01*
X1710Y748D01*
X1710Y746D01*
X1712Y746D01*
X1712Y744D01*
X1714Y744D01*
X1714Y742D01*
X1736Y742D01*
X1736Y744D01*
X1738Y744D01*
X1738Y748D01*
X1740Y748D01*
X1740Y750D01*
X1742Y750D01*
X1742Y752D01*
X1746Y752D01*
X1746Y754D01*
X1748Y754D01*
X1748Y756D01*
X1750Y756D01*
X1750Y758D01*
X1754Y758D01*
X1754Y760D01*
X1758Y760D01*
X1758Y762D01*
X1764Y762D01*
X1764Y764D01*
X1686Y764D01*
G37*
D02*
G36*
X1786Y764D02*
X1786Y762D01*
X1792Y762D01*
X1792Y760D01*
X1796Y760D01*
X1796Y758D01*
X1798Y758D01*
X1798Y756D01*
X1802Y756D01*
X1802Y754D01*
X1804Y754D01*
X1804Y752D01*
X1806Y752D01*
X1806Y750D01*
X1808Y750D01*
X1808Y748D01*
X1810Y748D01*
X1810Y746D01*
X1812Y746D01*
X1812Y744D01*
X1814Y744D01*
X1814Y742D01*
X1836Y742D01*
X1836Y744D01*
X1838Y744D01*
X1838Y748D01*
X1840Y748D01*
X1840Y750D01*
X1842Y750D01*
X1842Y752D01*
X1846Y752D01*
X1846Y754D01*
X1848Y754D01*
X1848Y756D01*
X1850Y756D01*
X1850Y758D01*
X1854Y758D01*
X1854Y760D01*
X1858Y760D01*
X1858Y762D01*
X1864Y762D01*
X1864Y764D01*
X1786Y764D01*
G37*
D02*
G36*
X1886Y764D02*
X1886Y762D01*
X1892Y762D01*
X1892Y760D01*
X1896Y760D01*
X1896Y758D01*
X1898Y758D01*
X1898Y756D01*
X1902Y756D01*
X1902Y754D01*
X1904Y754D01*
X1904Y752D01*
X1906Y752D01*
X1906Y750D01*
X1908Y750D01*
X1908Y748D01*
X1910Y748D01*
X1910Y746D01*
X1912Y746D01*
X1912Y744D01*
X1914Y744D01*
X1914Y742D01*
X1936Y742D01*
X1936Y744D01*
X1938Y744D01*
X1938Y748D01*
X1940Y748D01*
X1940Y750D01*
X1942Y750D01*
X1942Y752D01*
X1946Y752D01*
X1946Y754D01*
X1948Y754D01*
X1948Y756D01*
X1950Y756D01*
X1950Y758D01*
X1954Y758D01*
X1954Y760D01*
X1958Y760D01*
X1958Y762D01*
X1964Y762D01*
X1964Y764D01*
X1886Y764D01*
G37*
D02*
G36*
X1998Y664D02*
X1998Y654D01*
X2002Y654D01*
X2002Y652D01*
X2004Y652D01*
X2004Y650D01*
X2006Y650D01*
X2006Y648D01*
X2008Y648D01*
X2008Y646D01*
X2010Y646D01*
X2010Y644D01*
X2012Y644D01*
X2012Y642D01*
X2014Y642D01*
X2014Y638D01*
X2016Y638D01*
X2016Y634D01*
X2018Y634D01*
X2018Y630D01*
X2020Y630D01*
X2020Y624D01*
X2022Y624D01*
X2022Y612D01*
X2042Y612D01*
X2042Y620D01*
X2044Y620D01*
X2044Y626D01*
X2046Y626D01*
X2046Y628D01*
X2048Y628D01*
X2048Y632D01*
X2052Y632D01*
X2052Y634D01*
X2054Y634D01*
X2054Y636D01*
X2060Y636D01*
X2060Y638D01*
X2084Y638D01*
X2084Y640D01*
X2086Y640D01*
X2086Y642D01*
X2088Y642D01*
X2088Y644D01*
X2090Y644D01*
X2090Y648D01*
X2092Y648D01*
X2092Y650D01*
X2096Y650D01*
X2096Y652D01*
X2098Y652D01*
X2098Y654D01*
X2100Y654D01*
X2100Y656D01*
X2104Y656D01*
X2104Y658D01*
X2108Y658D01*
X2108Y660D01*
X2112Y660D01*
X2112Y662D01*
X2122Y662D01*
X2122Y664D01*
X1998Y664D01*
G37*
D02*
G36*
X714Y592D02*
X714Y590D01*
X712Y590D01*
X712Y588D01*
X710Y588D01*
X710Y584D01*
X708Y584D01*
X708Y582D01*
X704Y582D01*
X704Y580D01*
X702Y580D01*
X702Y578D01*
X700Y578D01*
X700Y576D01*
X698Y576D01*
X698Y574D01*
X694Y574D01*
X694Y572D01*
X690Y572D01*
X690Y570D01*
X682Y570D01*
X682Y568D01*
X766Y568D01*
X766Y570D01*
X760Y570D01*
X760Y572D01*
X756Y572D01*
X756Y574D01*
X752Y574D01*
X752Y576D01*
X750Y576D01*
X750Y578D01*
X746Y578D01*
X746Y580D01*
X744Y580D01*
X744Y582D01*
X742Y582D01*
X742Y584D01*
X740Y584D01*
X740Y586D01*
X738Y586D01*
X738Y588D01*
X736Y588D01*
X736Y592D01*
X714Y592D01*
G37*
D02*
G36*
X814Y592D02*
X814Y590D01*
X812Y590D01*
X812Y588D01*
X810Y588D01*
X810Y584D01*
X808Y584D01*
X808Y582D01*
X804Y582D01*
X804Y580D01*
X802Y580D01*
X802Y578D01*
X800Y578D01*
X800Y576D01*
X798Y576D01*
X798Y574D01*
X794Y574D01*
X794Y572D01*
X790Y572D01*
X790Y570D01*
X782Y570D01*
X782Y568D01*
X866Y568D01*
X866Y570D01*
X860Y570D01*
X860Y572D01*
X856Y572D01*
X856Y574D01*
X852Y574D01*
X852Y576D01*
X850Y576D01*
X850Y578D01*
X846Y578D01*
X846Y580D01*
X844Y580D01*
X844Y582D01*
X842Y582D01*
X842Y584D01*
X840Y584D01*
X840Y586D01*
X838Y586D01*
X838Y588D01*
X836Y588D01*
X836Y592D01*
X814Y592D01*
G37*
D02*
G36*
X914Y592D02*
X914Y590D01*
X912Y590D01*
X912Y588D01*
X910Y588D01*
X910Y584D01*
X908Y584D01*
X908Y582D01*
X904Y582D01*
X904Y580D01*
X902Y580D01*
X902Y578D01*
X900Y578D01*
X900Y576D01*
X898Y576D01*
X898Y574D01*
X894Y574D01*
X894Y572D01*
X890Y572D01*
X890Y570D01*
X882Y570D01*
X882Y568D01*
X966Y568D01*
X966Y570D01*
X960Y570D01*
X960Y572D01*
X956Y572D01*
X956Y574D01*
X952Y574D01*
X952Y576D01*
X950Y576D01*
X950Y578D01*
X946Y578D01*
X946Y580D01*
X944Y580D01*
X944Y582D01*
X942Y582D01*
X942Y584D01*
X940Y584D01*
X940Y586D01*
X938Y586D01*
X938Y588D01*
X936Y588D01*
X936Y592D01*
X914Y592D01*
G37*
D02*
G36*
X1014Y592D02*
X1014Y590D01*
X1012Y590D01*
X1012Y588D01*
X1010Y588D01*
X1010Y584D01*
X1008Y584D01*
X1008Y582D01*
X1004Y582D01*
X1004Y580D01*
X1002Y580D01*
X1002Y578D01*
X1000Y578D01*
X1000Y576D01*
X998Y576D01*
X998Y574D01*
X994Y574D01*
X994Y572D01*
X990Y572D01*
X990Y570D01*
X982Y570D01*
X982Y568D01*
X1066Y568D01*
X1066Y570D01*
X1060Y570D01*
X1060Y572D01*
X1056Y572D01*
X1056Y574D01*
X1052Y574D01*
X1052Y576D01*
X1050Y576D01*
X1050Y578D01*
X1046Y578D01*
X1046Y580D01*
X1044Y580D01*
X1044Y582D01*
X1042Y582D01*
X1042Y584D01*
X1040Y584D01*
X1040Y586D01*
X1038Y586D01*
X1038Y588D01*
X1036Y588D01*
X1036Y592D01*
X1014Y592D01*
G37*
D02*
G36*
X1114Y592D02*
X1114Y590D01*
X1112Y590D01*
X1112Y588D01*
X1110Y588D01*
X1110Y584D01*
X1108Y584D01*
X1108Y582D01*
X1104Y582D01*
X1104Y580D01*
X1102Y580D01*
X1102Y578D01*
X1100Y578D01*
X1100Y576D01*
X1098Y576D01*
X1098Y574D01*
X1094Y574D01*
X1094Y572D01*
X1090Y572D01*
X1090Y570D01*
X1082Y570D01*
X1082Y568D01*
X1166Y568D01*
X1166Y570D01*
X1160Y570D01*
X1160Y572D01*
X1156Y572D01*
X1156Y574D01*
X1152Y574D01*
X1152Y576D01*
X1150Y576D01*
X1150Y578D01*
X1146Y578D01*
X1146Y580D01*
X1144Y580D01*
X1144Y582D01*
X1142Y582D01*
X1142Y584D01*
X1140Y584D01*
X1140Y586D01*
X1138Y586D01*
X1138Y588D01*
X1136Y588D01*
X1136Y592D01*
X1114Y592D01*
G37*
D02*
G36*
X1214Y592D02*
X1214Y590D01*
X1212Y590D01*
X1212Y588D01*
X1210Y588D01*
X1210Y584D01*
X1208Y584D01*
X1208Y582D01*
X1204Y582D01*
X1204Y580D01*
X1202Y580D01*
X1202Y578D01*
X1200Y578D01*
X1200Y576D01*
X1198Y576D01*
X1198Y574D01*
X1194Y574D01*
X1194Y572D01*
X1190Y572D01*
X1190Y570D01*
X1182Y570D01*
X1182Y568D01*
X1266Y568D01*
X1266Y570D01*
X1260Y570D01*
X1260Y572D01*
X1256Y572D01*
X1256Y574D01*
X1252Y574D01*
X1252Y576D01*
X1250Y576D01*
X1250Y578D01*
X1246Y578D01*
X1246Y580D01*
X1244Y580D01*
X1244Y582D01*
X1242Y582D01*
X1242Y584D01*
X1240Y584D01*
X1240Y586D01*
X1238Y586D01*
X1238Y588D01*
X1236Y588D01*
X1236Y592D01*
X1214Y592D01*
G37*
D02*
G36*
X1314Y592D02*
X1314Y590D01*
X1312Y590D01*
X1312Y588D01*
X1310Y588D01*
X1310Y584D01*
X1308Y584D01*
X1308Y582D01*
X1304Y582D01*
X1304Y580D01*
X1302Y580D01*
X1302Y578D01*
X1300Y578D01*
X1300Y576D01*
X1298Y576D01*
X1298Y574D01*
X1294Y574D01*
X1294Y572D01*
X1290Y572D01*
X1290Y570D01*
X1282Y570D01*
X1282Y568D01*
X1366Y568D01*
X1366Y570D01*
X1360Y570D01*
X1360Y572D01*
X1356Y572D01*
X1356Y574D01*
X1352Y574D01*
X1352Y576D01*
X1350Y576D01*
X1350Y578D01*
X1346Y578D01*
X1346Y580D01*
X1344Y580D01*
X1344Y582D01*
X1342Y582D01*
X1342Y584D01*
X1340Y584D01*
X1340Y586D01*
X1338Y586D01*
X1338Y588D01*
X1336Y588D01*
X1336Y592D01*
X1314Y592D01*
G37*
D02*
G36*
X1414Y592D02*
X1414Y590D01*
X1412Y590D01*
X1412Y588D01*
X1410Y588D01*
X1410Y584D01*
X1408Y584D01*
X1408Y582D01*
X1404Y582D01*
X1404Y580D01*
X1402Y580D01*
X1402Y578D01*
X1400Y578D01*
X1400Y576D01*
X1398Y576D01*
X1398Y574D01*
X1394Y574D01*
X1394Y572D01*
X1390Y572D01*
X1390Y570D01*
X1382Y570D01*
X1382Y568D01*
X1446Y568D01*
X1446Y580D01*
X1444Y580D01*
X1444Y582D01*
X1442Y582D01*
X1442Y584D01*
X1440Y584D01*
X1440Y586D01*
X1438Y586D01*
X1438Y588D01*
X1436Y588D01*
X1436Y592D01*
X1414Y592D01*
G37*
D02*
G36*
X598Y568D02*
X598Y566D01*
X1446Y566D01*
X1446Y568D01*
X598Y568D01*
G37*
D02*
G36*
X598Y568D02*
X598Y566D01*
X1446Y566D01*
X1446Y568D01*
X598Y568D01*
G37*
D02*
G36*
X598Y568D02*
X598Y566D01*
X1446Y566D01*
X1446Y568D01*
X598Y568D01*
G37*
D02*
G36*
X598Y568D02*
X598Y566D01*
X1446Y566D01*
X1446Y568D01*
X598Y568D01*
G37*
D02*
G36*
X598Y568D02*
X598Y566D01*
X1446Y566D01*
X1446Y568D01*
X598Y568D01*
G37*
D02*
G36*
X598Y568D02*
X598Y566D01*
X1446Y566D01*
X1446Y568D01*
X598Y568D01*
G37*
D02*
G36*
X598Y568D02*
X598Y566D01*
X1446Y566D01*
X1446Y568D01*
X598Y568D01*
G37*
D02*
G36*
X598Y568D02*
X598Y566D01*
X1446Y566D01*
X1446Y568D01*
X598Y568D01*
G37*
D02*
G36*
X598Y568D02*
X598Y566D01*
X1446Y566D01*
X1446Y568D01*
X598Y568D01*
G37*
D02*
G36*
X598Y566D02*
X598Y488D01*
X880Y488D01*
X880Y486D01*
X886Y486D01*
X886Y484D01*
X888Y484D01*
X888Y482D01*
X890Y482D01*
X890Y480D01*
X892Y480D01*
X892Y478D01*
X894Y478D01*
X894Y474D01*
X896Y474D01*
X896Y364D01*
X1178Y364D01*
X1178Y362D01*
X1186Y362D01*
X1186Y360D01*
X1192Y360D01*
X1192Y358D01*
X1196Y358D01*
X1196Y356D01*
X1198Y356D01*
X1198Y354D01*
X1202Y354D01*
X1202Y352D01*
X1204Y352D01*
X1204Y350D01*
X1206Y350D01*
X1206Y348D01*
X1208Y348D01*
X1208Y346D01*
X1210Y346D01*
X1210Y344D01*
X1212Y344D01*
X1212Y342D01*
X1214Y342D01*
X1214Y338D01*
X1234Y338D01*
X1234Y340D01*
X1236Y340D01*
X1236Y342D01*
X1238Y342D01*
X1238Y344D01*
X1240Y344D01*
X1240Y348D01*
X1242Y348D01*
X1242Y350D01*
X1246Y350D01*
X1246Y352D01*
X1248Y352D01*
X1248Y354D01*
X1250Y354D01*
X1250Y356D01*
X1252Y356D01*
X1252Y420D01*
X1254Y420D01*
X1254Y426D01*
X1256Y426D01*
X1256Y428D01*
X1258Y428D01*
X1258Y432D01*
X1262Y432D01*
X1262Y434D01*
X1264Y434D01*
X1264Y436D01*
X1270Y436D01*
X1270Y438D01*
X1434Y438D01*
X1434Y450D01*
X1436Y450D01*
X1436Y468D01*
X1438Y468D01*
X1438Y488D01*
X1440Y488D01*
X1440Y506D01*
X1442Y506D01*
X1442Y526D01*
X1444Y526D01*
X1444Y544D01*
X1446Y544D01*
X1446Y566D01*
X598Y566D01*
G37*
D02*
G36*
X598Y488D02*
X598Y486D01*
X776Y486D01*
X776Y488D01*
X598Y488D01*
G37*
D02*
G36*
X896Y364D02*
X896Y356D01*
X898Y356D01*
X898Y354D01*
X902Y354D01*
X902Y352D01*
X904Y352D01*
X904Y350D01*
X906Y350D01*
X906Y348D01*
X908Y348D01*
X908Y346D01*
X910Y346D01*
X910Y344D01*
X912Y344D01*
X912Y342D01*
X914Y342D01*
X914Y338D01*
X934Y338D01*
X934Y340D01*
X936Y340D01*
X936Y342D01*
X938Y342D01*
X938Y344D01*
X940Y344D01*
X940Y348D01*
X942Y348D01*
X942Y350D01*
X946Y350D01*
X946Y352D01*
X948Y352D01*
X948Y354D01*
X950Y354D01*
X950Y356D01*
X954Y356D01*
X954Y358D01*
X958Y358D01*
X958Y360D01*
X962Y360D01*
X962Y362D01*
X972Y362D01*
X972Y364D01*
X896Y364D01*
G37*
D02*
G36*
X978Y364D02*
X978Y362D01*
X986Y362D01*
X986Y360D01*
X992Y360D01*
X992Y358D01*
X996Y358D01*
X996Y356D01*
X998Y356D01*
X998Y354D01*
X1002Y354D01*
X1002Y352D01*
X1004Y352D01*
X1004Y350D01*
X1006Y350D01*
X1006Y348D01*
X1008Y348D01*
X1008Y346D01*
X1010Y346D01*
X1010Y344D01*
X1012Y344D01*
X1012Y342D01*
X1014Y342D01*
X1014Y338D01*
X1034Y338D01*
X1034Y340D01*
X1036Y340D01*
X1036Y342D01*
X1038Y342D01*
X1038Y344D01*
X1040Y344D01*
X1040Y348D01*
X1042Y348D01*
X1042Y350D01*
X1046Y350D01*
X1046Y352D01*
X1048Y352D01*
X1048Y354D01*
X1050Y354D01*
X1050Y356D01*
X1054Y356D01*
X1054Y358D01*
X1058Y358D01*
X1058Y360D01*
X1062Y360D01*
X1062Y362D01*
X1072Y362D01*
X1072Y364D01*
X978Y364D01*
G37*
D02*
G36*
X1078Y364D02*
X1078Y362D01*
X1086Y362D01*
X1086Y360D01*
X1092Y360D01*
X1092Y358D01*
X1096Y358D01*
X1096Y356D01*
X1098Y356D01*
X1098Y354D01*
X1102Y354D01*
X1102Y352D01*
X1104Y352D01*
X1104Y350D01*
X1106Y350D01*
X1106Y348D01*
X1108Y348D01*
X1108Y346D01*
X1110Y346D01*
X1110Y344D01*
X1112Y344D01*
X1112Y342D01*
X1114Y342D01*
X1114Y338D01*
X1134Y338D01*
X1134Y340D01*
X1136Y340D01*
X1136Y342D01*
X1138Y342D01*
X1138Y344D01*
X1140Y344D01*
X1140Y348D01*
X1142Y348D01*
X1142Y350D01*
X1146Y350D01*
X1146Y352D01*
X1148Y352D01*
X1148Y354D01*
X1150Y354D01*
X1150Y356D01*
X1154Y356D01*
X1154Y358D01*
X1158Y358D01*
X1158Y360D01*
X1162Y360D01*
X1162Y362D01*
X1172Y362D01*
X1172Y364D01*
X1078Y364D01*
G37*
D02*
G36*
X450Y734D02*
X450Y732D01*
X380Y732D01*
X380Y730D01*
X312Y730D01*
X312Y728D01*
X242Y728D01*
X242Y726D01*
X174Y726D01*
X174Y724D01*
X168Y724D01*
X168Y722D01*
X166Y722D01*
X166Y718D01*
X164Y718D01*
X164Y716D01*
X162Y716D01*
X162Y714D01*
X160Y714D01*
X160Y712D01*
X158Y712D01*
X158Y710D01*
X156Y710D01*
X156Y708D01*
X154Y708D01*
X154Y706D01*
X150Y706D01*
X150Y686D01*
X152Y686D01*
X152Y684D01*
X156Y684D01*
X156Y682D01*
X158Y682D01*
X158Y680D01*
X160Y680D01*
X160Y678D01*
X162Y678D01*
X162Y674D01*
X164Y674D01*
X164Y672D01*
X166Y672D01*
X166Y670D01*
X168Y670D01*
X168Y666D01*
X170Y666D01*
X170Y662D01*
X172Y662D01*
X172Y656D01*
X174Y656D01*
X174Y636D01*
X172Y636D01*
X172Y630D01*
X170Y630D01*
X170Y626D01*
X168Y626D01*
X168Y622D01*
X166Y622D01*
X166Y618D01*
X164Y618D01*
X164Y616D01*
X162Y616D01*
X162Y614D01*
X160Y614D01*
X160Y612D01*
X158Y612D01*
X158Y610D01*
X156Y610D01*
X156Y608D01*
X154Y608D01*
X154Y606D01*
X150Y606D01*
X150Y586D01*
X152Y586D01*
X152Y584D01*
X156Y584D01*
X156Y582D01*
X158Y582D01*
X158Y580D01*
X160Y580D01*
X160Y578D01*
X162Y578D01*
X162Y574D01*
X164Y574D01*
X164Y572D01*
X166Y572D01*
X166Y570D01*
X168Y570D01*
X168Y568D01*
X368Y568D01*
X368Y566D01*
X376Y566D01*
X376Y564D01*
X378Y564D01*
X378Y562D01*
X380Y562D01*
X380Y560D01*
X382Y560D01*
X382Y558D01*
X384Y558D01*
X384Y556D01*
X386Y556D01*
X386Y550D01*
X388Y550D01*
X388Y470D01*
X490Y470D01*
X490Y472D01*
X482Y472D01*
X482Y474D01*
X478Y474D01*
X478Y476D01*
X474Y476D01*
X474Y478D01*
X470Y478D01*
X470Y480D01*
X468Y480D01*
X468Y482D01*
X466Y482D01*
X466Y484D01*
X464Y484D01*
X464Y486D01*
X462Y486D01*
X462Y488D01*
X460Y488D01*
X460Y490D01*
X458Y490D01*
X458Y494D01*
X456Y494D01*
X456Y496D01*
X454Y496D01*
X454Y500D01*
X452Y500D01*
X452Y506D01*
X450Y506D01*
X450Y526D01*
X452Y526D01*
X452Y530D01*
X454Y530D01*
X454Y534D01*
X456Y534D01*
X456Y538D01*
X458Y538D01*
X458Y540D01*
X460Y540D01*
X460Y544D01*
X462Y544D01*
X462Y546D01*
X464Y546D01*
X464Y548D01*
X466Y548D01*
X466Y550D01*
X470Y550D01*
X470Y552D01*
X472Y552D01*
X472Y734D01*
X450Y734D01*
G37*
D02*
G36*
X534Y498D02*
X534Y494D01*
X532Y494D01*
X532Y492D01*
X530Y492D01*
X530Y488D01*
X528Y488D01*
X528Y486D01*
X526Y486D01*
X526Y484D01*
X524Y484D01*
X524Y482D01*
X522Y482D01*
X522Y480D01*
X518Y480D01*
X518Y478D01*
X516Y478D01*
X516Y476D01*
X512Y476D01*
X512Y474D01*
X508Y474D01*
X508Y472D01*
X500Y472D01*
X500Y470D01*
X554Y470D01*
X554Y498D01*
X534Y498D01*
G37*
D02*
G36*
X388Y470D02*
X388Y468D01*
X554Y468D01*
X554Y470D01*
X388Y470D01*
G37*
D02*
G36*
X388Y470D02*
X388Y468D01*
X554Y468D01*
X554Y470D01*
X388Y470D01*
G37*
D02*
G36*
X388Y468D02*
X388Y442D01*
X570Y442D01*
X570Y444D01*
X564Y444D01*
X564Y446D01*
X562Y446D01*
X562Y448D01*
X560Y448D01*
X560Y450D01*
X558Y450D01*
X558Y454D01*
X556Y454D01*
X556Y458D01*
X554Y458D01*
X554Y468D01*
X388Y468D01*
G37*
D02*
G36*
X778Y444D02*
X778Y442D01*
X852Y442D01*
X852Y444D01*
X778Y444D01*
G37*
D02*
G36*
X388Y442D02*
X388Y440D01*
X852Y440D01*
X852Y442D01*
X388Y442D01*
G37*
D02*
G36*
X388Y442D02*
X388Y440D01*
X852Y440D01*
X852Y442D01*
X388Y442D01*
G37*
D02*
G36*
X388Y440D02*
X388Y418D01*
X780Y418D01*
X780Y416D01*
X786Y416D01*
X786Y414D01*
X790Y414D01*
X790Y412D01*
X792Y412D01*
X792Y410D01*
X794Y410D01*
X794Y406D01*
X796Y406D01*
X796Y402D01*
X798Y402D01*
X798Y354D01*
X802Y354D01*
X802Y352D01*
X804Y352D01*
X804Y350D01*
X806Y350D01*
X806Y348D01*
X808Y348D01*
X808Y346D01*
X810Y346D01*
X810Y344D01*
X812Y344D01*
X812Y342D01*
X814Y342D01*
X814Y338D01*
X834Y338D01*
X834Y340D01*
X836Y340D01*
X836Y342D01*
X838Y342D01*
X838Y344D01*
X840Y344D01*
X840Y348D01*
X842Y348D01*
X842Y350D01*
X846Y350D01*
X846Y352D01*
X848Y352D01*
X848Y354D01*
X850Y354D01*
X850Y356D01*
X852Y356D01*
X852Y440D01*
X388Y440D01*
G37*
D02*
G36*
X168Y524D02*
X168Y522D01*
X166Y522D01*
X166Y518D01*
X164Y518D01*
X164Y516D01*
X162Y516D01*
X162Y514D01*
X160Y514D01*
X160Y512D01*
X158Y512D01*
X158Y510D01*
X156Y510D01*
X156Y508D01*
X154Y508D01*
X154Y506D01*
X150Y506D01*
X150Y486D01*
X152Y486D01*
X152Y484D01*
X156Y484D01*
X156Y482D01*
X158Y482D01*
X158Y480D01*
X160Y480D01*
X160Y478D01*
X162Y478D01*
X162Y474D01*
X164Y474D01*
X164Y472D01*
X166Y472D01*
X166Y470D01*
X168Y470D01*
X168Y466D01*
X170Y466D01*
X170Y462D01*
X172Y462D01*
X172Y456D01*
X174Y456D01*
X174Y436D01*
X172Y436D01*
X172Y430D01*
X170Y430D01*
X170Y426D01*
X168Y426D01*
X168Y422D01*
X166Y422D01*
X166Y418D01*
X164Y418D01*
X164Y416D01*
X162Y416D01*
X162Y414D01*
X160Y414D01*
X160Y412D01*
X158Y412D01*
X158Y410D01*
X156Y410D01*
X156Y408D01*
X154Y408D01*
X154Y406D01*
X150Y406D01*
X150Y386D01*
X152Y386D01*
X152Y384D01*
X156Y384D01*
X156Y382D01*
X158Y382D01*
X158Y380D01*
X160Y380D01*
X160Y378D01*
X162Y378D01*
X162Y374D01*
X164Y374D01*
X164Y372D01*
X166Y372D01*
X166Y370D01*
X168Y370D01*
X168Y366D01*
X170Y366D01*
X170Y362D01*
X172Y362D01*
X172Y360D01*
X226Y360D01*
X226Y358D01*
X236Y358D01*
X236Y356D01*
X242Y356D01*
X242Y354D01*
X246Y354D01*
X246Y352D01*
X248Y352D01*
X248Y350D01*
X252Y350D01*
X252Y348D01*
X254Y348D01*
X254Y346D01*
X256Y346D01*
X256Y344D01*
X258Y344D01*
X258Y342D01*
X260Y342D01*
X260Y340D01*
X262Y340D01*
X262Y338D01*
X264Y338D01*
X264Y334D01*
X266Y334D01*
X266Y330D01*
X268Y330D01*
X268Y326D01*
X270Y326D01*
X270Y320D01*
X272Y320D01*
X272Y302D01*
X270Y302D01*
X270Y296D01*
X268Y296D01*
X268Y292D01*
X266Y292D01*
X266Y288D01*
X264Y288D01*
X264Y286D01*
X262Y286D01*
X262Y284D01*
X260Y284D01*
X260Y280D01*
X258Y280D01*
X258Y278D01*
X256Y278D01*
X256Y276D01*
X252Y276D01*
X252Y274D01*
X250Y274D01*
X250Y272D01*
X248Y272D01*
X248Y270D01*
X244Y270D01*
X244Y268D01*
X240Y268D01*
X240Y266D01*
X232Y266D01*
X232Y264D01*
X394Y264D01*
X394Y266D01*
X388Y266D01*
X388Y268D01*
X382Y268D01*
X382Y270D01*
X380Y270D01*
X380Y272D01*
X376Y272D01*
X376Y274D01*
X374Y274D01*
X374Y276D01*
X372Y276D01*
X372Y278D01*
X370Y278D01*
X370Y280D01*
X368Y280D01*
X368Y282D01*
X366Y282D01*
X366Y284D01*
X364Y284D01*
X364Y286D01*
X362Y286D01*
X362Y290D01*
X360Y290D01*
X360Y292D01*
X358Y292D01*
X358Y298D01*
X356Y298D01*
X356Y304D01*
X354Y304D01*
X354Y318D01*
X356Y318D01*
X356Y326D01*
X358Y326D01*
X358Y330D01*
X360Y330D01*
X360Y334D01*
X362Y334D01*
X362Y336D01*
X364Y336D01*
X364Y340D01*
X366Y340D01*
X366Y342D01*
X368Y342D01*
X368Y344D01*
X370Y344D01*
X370Y346D01*
X372Y346D01*
X372Y348D01*
X374Y348D01*
X374Y350D01*
X378Y350D01*
X378Y352D01*
X380Y352D01*
X380Y354D01*
X384Y354D01*
X384Y374D01*
X356Y374D01*
X356Y376D01*
X354Y376D01*
X354Y378D01*
X350Y378D01*
X350Y380D01*
X348Y380D01*
X348Y384D01*
X346Y384D01*
X346Y386D01*
X344Y386D01*
X344Y524D01*
X168Y524D01*
G37*
D02*
G36*
X172Y360D02*
X172Y356D01*
X174Y356D01*
X174Y344D01*
X194Y344D01*
X194Y346D01*
X196Y346D01*
X196Y348D01*
X198Y348D01*
X198Y350D01*
X200Y350D01*
X200Y352D01*
X204Y352D01*
X204Y354D01*
X208Y354D01*
X208Y356D01*
X212Y356D01*
X212Y358D01*
X224Y358D01*
X224Y360D01*
X172Y360D01*
G37*
D02*
G36*
X440Y288D02*
X440Y284D01*
X438Y284D01*
X438Y282D01*
X436Y282D01*
X436Y280D01*
X434Y280D01*
X434Y278D01*
X432Y278D01*
X432Y276D01*
X430Y276D01*
X430Y274D01*
X428Y274D01*
X428Y272D01*
X424Y272D01*
X424Y270D01*
X490Y270D01*
X490Y272D01*
X482Y272D01*
X482Y274D01*
X478Y274D01*
X478Y276D01*
X474Y276D01*
X474Y278D01*
X470Y278D01*
X470Y280D01*
X468Y280D01*
X468Y282D01*
X466Y282D01*
X466Y284D01*
X464Y284D01*
X464Y286D01*
X462Y286D01*
X462Y288D01*
X440Y288D01*
G37*
D02*
G36*
X608Y284D02*
X608Y282D01*
X604Y282D01*
X604Y280D01*
X602Y280D01*
X602Y278D01*
X600Y278D01*
X600Y276D01*
X598Y276D01*
X598Y274D01*
X594Y274D01*
X594Y272D01*
X590Y272D01*
X590Y270D01*
X582Y270D01*
X582Y268D01*
X628Y268D01*
X628Y284D01*
X608Y284D01*
G37*
D02*
G36*
X522Y282D02*
X522Y280D01*
X518Y280D01*
X518Y278D01*
X516Y278D01*
X516Y276D01*
X512Y276D01*
X512Y274D01*
X508Y274D01*
X508Y272D01*
X500Y272D01*
X500Y270D01*
X560Y270D01*
X560Y272D01*
X556Y272D01*
X556Y274D01*
X552Y274D01*
X552Y276D01*
X550Y276D01*
X550Y278D01*
X546Y278D01*
X546Y280D01*
X544Y280D01*
X544Y282D01*
X522Y282D01*
G37*
D02*
G36*
X420Y270D02*
X420Y268D01*
X566Y268D01*
X566Y270D01*
X420Y270D01*
G37*
D02*
G36*
X420Y270D02*
X420Y268D01*
X566Y268D01*
X566Y270D01*
X420Y270D01*
G37*
D02*
G36*
X416Y268D02*
X416Y266D01*
X640Y266D01*
X640Y268D01*
X416Y268D01*
G37*
D02*
G36*
X416Y268D02*
X416Y266D01*
X640Y266D01*
X640Y268D01*
X416Y268D01*
G37*
D02*
G36*
X194Y266D02*
X194Y264D01*
X216Y264D01*
X216Y266D01*
X194Y266D01*
G37*
D02*
G36*
X410Y266D02*
X410Y264D01*
X640Y264D01*
X640Y266D01*
X410Y266D01*
G37*
D02*
G36*
X190Y264D02*
X190Y262D01*
X640Y262D01*
X640Y264D01*
X190Y264D01*
G37*
D02*
G36*
X190Y264D02*
X190Y262D01*
X640Y262D01*
X640Y264D01*
X190Y264D01*
G37*
D02*
G36*
X190Y264D02*
X190Y262D01*
X640Y262D01*
X640Y264D01*
X190Y264D01*
G37*
D02*
G36*
X188Y262D02*
X188Y260D01*
X184Y260D01*
X184Y258D01*
X182Y258D01*
X182Y256D01*
X178Y256D01*
X178Y254D01*
X176Y254D01*
X176Y252D01*
X174Y252D01*
X174Y236D01*
X172Y236D01*
X172Y230D01*
X170Y230D01*
X170Y226D01*
X168Y226D01*
X168Y222D01*
X166Y222D01*
X166Y218D01*
X164Y218D01*
X164Y216D01*
X162Y216D01*
X162Y214D01*
X160Y214D01*
X160Y212D01*
X158Y212D01*
X158Y210D01*
X156Y210D01*
X156Y208D01*
X154Y208D01*
X154Y206D01*
X150Y206D01*
X150Y204D01*
X148Y204D01*
X148Y202D01*
X144Y202D01*
X144Y200D01*
X140Y200D01*
X140Y198D01*
X134Y198D01*
X134Y178D01*
X502Y178D01*
X502Y176D01*
X506Y176D01*
X506Y174D01*
X510Y174D01*
X510Y172D01*
X514Y172D01*
X514Y170D01*
X518Y170D01*
X518Y168D01*
X522Y168D01*
X522Y166D01*
X670Y166D01*
X670Y168D01*
X662Y168D01*
X662Y170D01*
X656Y170D01*
X656Y172D01*
X652Y172D01*
X652Y174D01*
X650Y174D01*
X650Y176D01*
X646Y176D01*
X646Y178D01*
X644Y178D01*
X644Y180D01*
X642Y180D01*
X642Y182D01*
X640Y182D01*
X640Y184D01*
X638Y184D01*
X638Y186D01*
X636Y186D01*
X636Y190D01*
X634Y190D01*
X634Y192D01*
X632Y192D01*
X632Y196D01*
X630Y196D01*
X630Y200D01*
X628Y200D01*
X628Y206D01*
X626Y206D01*
X626Y226D01*
X628Y226D01*
X628Y232D01*
X630Y232D01*
X630Y236D01*
X632Y236D01*
X632Y240D01*
X634Y240D01*
X634Y242D01*
X636Y242D01*
X636Y244D01*
X638Y244D01*
X638Y248D01*
X640Y248D01*
X640Y262D01*
X188Y262D01*
G37*
D02*
G36*
X714Y190D02*
X714Y188D01*
X712Y188D01*
X712Y184D01*
X710Y184D01*
X710Y182D01*
X708Y182D01*
X708Y180D01*
X704Y180D01*
X704Y178D01*
X702Y178D01*
X702Y176D01*
X700Y176D01*
X700Y174D01*
X696Y174D01*
X696Y172D01*
X692Y172D01*
X692Y170D01*
X688Y170D01*
X688Y168D01*
X680Y168D01*
X680Y166D01*
X770Y166D01*
X770Y168D01*
X762Y168D01*
X762Y170D01*
X756Y170D01*
X756Y172D01*
X752Y172D01*
X752Y174D01*
X750Y174D01*
X750Y176D01*
X746Y176D01*
X746Y178D01*
X744Y178D01*
X744Y180D01*
X742Y180D01*
X742Y182D01*
X740Y182D01*
X740Y184D01*
X738Y184D01*
X738Y186D01*
X736Y186D01*
X736Y190D01*
X714Y190D01*
G37*
D02*
G36*
X814Y190D02*
X814Y188D01*
X812Y188D01*
X812Y184D01*
X810Y184D01*
X810Y182D01*
X808Y182D01*
X808Y180D01*
X804Y180D01*
X804Y178D01*
X802Y178D01*
X802Y176D01*
X800Y176D01*
X800Y174D01*
X796Y174D01*
X796Y172D01*
X792Y172D01*
X792Y170D01*
X788Y170D01*
X788Y168D01*
X780Y168D01*
X780Y166D01*
X870Y166D01*
X870Y168D01*
X862Y168D01*
X862Y170D01*
X856Y170D01*
X856Y172D01*
X852Y172D01*
X852Y174D01*
X850Y174D01*
X850Y176D01*
X846Y176D01*
X846Y178D01*
X844Y178D01*
X844Y180D01*
X842Y180D01*
X842Y182D01*
X840Y182D01*
X840Y184D01*
X838Y184D01*
X838Y186D01*
X836Y186D01*
X836Y190D01*
X814Y190D01*
G37*
D02*
G36*
X914Y190D02*
X914Y188D01*
X912Y188D01*
X912Y184D01*
X910Y184D01*
X910Y182D01*
X908Y182D01*
X908Y180D01*
X904Y180D01*
X904Y178D01*
X902Y178D01*
X902Y176D01*
X900Y176D01*
X900Y174D01*
X896Y174D01*
X896Y172D01*
X892Y172D01*
X892Y170D01*
X888Y170D01*
X888Y168D01*
X880Y168D01*
X880Y166D01*
X970Y166D01*
X970Y168D01*
X962Y168D01*
X962Y170D01*
X956Y170D01*
X956Y172D01*
X952Y172D01*
X952Y174D01*
X950Y174D01*
X950Y176D01*
X946Y176D01*
X946Y178D01*
X944Y178D01*
X944Y180D01*
X942Y180D01*
X942Y182D01*
X940Y182D01*
X940Y184D01*
X938Y184D01*
X938Y186D01*
X936Y186D01*
X936Y190D01*
X914Y190D01*
G37*
D02*
G36*
X1014Y190D02*
X1014Y188D01*
X1012Y188D01*
X1012Y184D01*
X1010Y184D01*
X1010Y182D01*
X1008Y182D01*
X1008Y180D01*
X1004Y180D01*
X1004Y178D01*
X1002Y178D01*
X1002Y176D01*
X1000Y176D01*
X1000Y174D01*
X996Y174D01*
X996Y172D01*
X992Y172D01*
X992Y170D01*
X988Y170D01*
X988Y168D01*
X980Y168D01*
X980Y166D01*
X1070Y166D01*
X1070Y168D01*
X1062Y168D01*
X1062Y170D01*
X1056Y170D01*
X1056Y172D01*
X1052Y172D01*
X1052Y174D01*
X1050Y174D01*
X1050Y176D01*
X1046Y176D01*
X1046Y178D01*
X1044Y178D01*
X1044Y180D01*
X1042Y180D01*
X1042Y182D01*
X1040Y182D01*
X1040Y184D01*
X1038Y184D01*
X1038Y186D01*
X1036Y186D01*
X1036Y190D01*
X1014Y190D01*
G37*
D02*
G36*
X1114Y190D02*
X1114Y188D01*
X1112Y188D01*
X1112Y184D01*
X1110Y184D01*
X1110Y182D01*
X1108Y182D01*
X1108Y180D01*
X1104Y180D01*
X1104Y178D01*
X1102Y178D01*
X1102Y176D01*
X1100Y176D01*
X1100Y174D01*
X1096Y174D01*
X1096Y172D01*
X1092Y172D01*
X1092Y170D01*
X1088Y170D01*
X1088Y168D01*
X1080Y168D01*
X1080Y166D01*
X1170Y166D01*
X1170Y168D01*
X1162Y168D01*
X1162Y170D01*
X1156Y170D01*
X1156Y172D01*
X1152Y172D01*
X1152Y174D01*
X1150Y174D01*
X1150Y176D01*
X1146Y176D01*
X1146Y178D01*
X1144Y178D01*
X1144Y180D01*
X1142Y180D01*
X1142Y182D01*
X1140Y182D01*
X1140Y184D01*
X1138Y184D01*
X1138Y186D01*
X1136Y186D01*
X1136Y190D01*
X1114Y190D01*
G37*
D02*
G36*
X1214Y190D02*
X1214Y188D01*
X1212Y188D01*
X1212Y184D01*
X1210Y184D01*
X1210Y182D01*
X1208Y182D01*
X1208Y180D01*
X1204Y180D01*
X1204Y178D01*
X1202Y178D01*
X1202Y176D01*
X1200Y176D01*
X1200Y174D01*
X1196Y174D01*
X1196Y172D01*
X1192Y172D01*
X1192Y170D01*
X1188Y170D01*
X1188Y168D01*
X1180Y168D01*
X1180Y166D01*
X1252Y166D01*
X1252Y174D01*
X1250Y174D01*
X1250Y176D01*
X1246Y176D01*
X1246Y178D01*
X1244Y178D01*
X1244Y180D01*
X1242Y180D01*
X1242Y182D01*
X1240Y182D01*
X1240Y184D01*
X1238Y184D01*
X1238Y186D01*
X1236Y186D01*
X1236Y190D01*
X1214Y190D01*
G37*
D02*
G36*
X526Y166D02*
X526Y164D01*
X1252Y164D01*
X1252Y166D01*
X526Y166D01*
G37*
D02*
G36*
X526Y166D02*
X526Y164D01*
X1252Y164D01*
X1252Y166D01*
X526Y166D01*
G37*
D02*
G36*
X526Y166D02*
X526Y164D01*
X1252Y164D01*
X1252Y166D01*
X526Y166D01*
G37*
D02*
G36*
X526Y166D02*
X526Y164D01*
X1252Y164D01*
X1252Y166D01*
X526Y166D01*
G37*
D02*
G36*
X526Y166D02*
X526Y164D01*
X1252Y164D01*
X1252Y166D01*
X526Y166D01*
G37*
D02*
G36*
X526Y166D02*
X526Y164D01*
X1252Y164D01*
X1252Y166D01*
X526Y166D01*
G37*
D02*
G36*
X526Y166D02*
X526Y164D01*
X1252Y164D01*
X1252Y166D01*
X526Y166D01*
G37*
D02*
G36*
X622Y164D02*
X622Y138D01*
X624Y138D01*
X624Y136D01*
X782Y136D01*
X782Y134D01*
X940Y134D01*
X940Y132D01*
X1098Y132D01*
X1098Y130D01*
X1254Y130D01*
X1254Y160D01*
X1252Y160D01*
X1252Y164D01*
X622Y164D01*
G37*
D02*
G36*
X2166Y396D02*
X2166Y392D01*
X2164Y392D01*
X2164Y390D01*
X2162Y390D01*
X2162Y388D01*
X2160Y388D01*
X2160Y384D01*
X2158Y384D01*
X2158Y382D01*
X2154Y382D01*
X2154Y380D01*
X2152Y380D01*
X2152Y378D01*
X2150Y378D01*
X2150Y376D01*
X2148Y376D01*
X2148Y374D01*
X2144Y374D01*
X2144Y372D01*
X2140Y372D01*
X2140Y370D01*
X2132Y370D01*
X2132Y368D01*
X2186Y368D01*
X2186Y396D01*
X2166Y396D01*
G37*
D02*
G36*
X1596Y394D02*
X1596Y368D01*
X2116Y368D01*
X2116Y370D01*
X2110Y370D01*
X2110Y372D01*
X2106Y372D01*
X2106Y374D01*
X2102Y374D01*
X2102Y376D01*
X2100Y376D01*
X2100Y378D01*
X2096Y378D01*
X2096Y380D01*
X2094Y380D01*
X2094Y382D01*
X2092Y382D01*
X2092Y384D01*
X2090Y384D01*
X2090Y386D01*
X2088Y386D01*
X2088Y388D01*
X2086Y388D01*
X2086Y392D01*
X2084Y392D01*
X2084Y394D01*
X1596Y394D01*
G37*
D02*
G36*
X1596Y368D02*
X1596Y366D01*
X2186Y366D01*
X2186Y368D01*
X1596Y368D01*
G37*
D02*
G36*
X1596Y368D02*
X1596Y366D01*
X2186Y366D01*
X2186Y368D01*
X1596Y368D01*
G37*
D02*
G36*
X1596Y366D02*
X1596Y364D01*
X1978Y364D01*
X1978Y362D01*
X1986Y362D01*
X1986Y360D01*
X1992Y360D01*
X1992Y358D01*
X1996Y358D01*
X1996Y356D01*
X1998Y356D01*
X1998Y354D01*
X2002Y354D01*
X2002Y352D01*
X2004Y352D01*
X2004Y350D01*
X2006Y350D01*
X2006Y348D01*
X2008Y348D01*
X2008Y346D01*
X2010Y346D01*
X2010Y344D01*
X2012Y344D01*
X2012Y342D01*
X2014Y342D01*
X2014Y338D01*
X2016Y338D01*
X2016Y334D01*
X2018Y334D01*
X2018Y330D01*
X2020Y330D01*
X2020Y324D01*
X2022Y324D01*
X2022Y306D01*
X2020Y306D01*
X2020Y300D01*
X2018Y300D01*
X2018Y296D01*
X2016Y296D01*
X2016Y292D01*
X2014Y292D01*
X2014Y290D01*
X2012Y290D01*
X2012Y288D01*
X2010Y288D01*
X2010Y284D01*
X2008Y284D01*
X2008Y282D01*
X2004Y282D01*
X2004Y280D01*
X2002Y280D01*
X2002Y278D01*
X2000Y278D01*
X2000Y276D01*
X1998Y276D01*
X1998Y256D01*
X2002Y256D01*
X2002Y254D01*
X2004Y254D01*
X2004Y252D01*
X2006Y252D01*
X2006Y250D01*
X2008Y250D01*
X2008Y248D01*
X2010Y248D01*
X2010Y246D01*
X2012Y246D01*
X2012Y244D01*
X2014Y244D01*
X2014Y242D01*
X2016Y242D01*
X2016Y238D01*
X2018Y238D01*
X2018Y234D01*
X2020Y234D01*
X2020Y230D01*
X2022Y230D01*
X2022Y222D01*
X2024Y222D01*
X2024Y208D01*
X2022Y208D01*
X2022Y202D01*
X2020Y202D01*
X2020Y196D01*
X2018Y196D01*
X2018Y194D01*
X2016Y194D01*
X2016Y190D01*
X2014Y190D01*
X2014Y188D01*
X2012Y188D01*
X2012Y184D01*
X2010Y184D01*
X2010Y182D01*
X2008Y182D01*
X2008Y180D01*
X2004Y180D01*
X2004Y178D01*
X2002Y178D01*
X2002Y176D01*
X2000Y176D01*
X2000Y174D01*
X1996Y174D01*
X1996Y172D01*
X1992Y172D01*
X1992Y170D01*
X1988Y170D01*
X1988Y168D01*
X1980Y168D01*
X1980Y166D01*
X2186Y166D01*
X2186Y366D01*
X1596Y366D01*
G37*
D02*
G36*
X1596Y364D02*
X1596Y356D01*
X1598Y356D01*
X1598Y354D01*
X1602Y354D01*
X1602Y352D01*
X1604Y352D01*
X1604Y350D01*
X1606Y350D01*
X1606Y348D01*
X1608Y348D01*
X1608Y346D01*
X1610Y346D01*
X1610Y344D01*
X1612Y344D01*
X1612Y342D01*
X1614Y342D01*
X1614Y338D01*
X1634Y338D01*
X1634Y340D01*
X1636Y340D01*
X1636Y342D01*
X1638Y342D01*
X1638Y344D01*
X1640Y344D01*
X1640Y348D01*
X1642Y348D01*
X1642Y350D01*
X1646Y350D01*
X1646Y352D01*
X1648Y352D01*
X1648Y354D01*
X1650Y354D01*
X1650Y356D01*
X1654Y356D01*
X1654Y358D01*
X1658Y358D01*
X1658Y360D01*
X1662Y360D01*
X1662Y362D01*
X1672Y362D01*
X1672Y364D01*
X1596Y364D01*
G37*
D02*
G36*
X1678Y364D02*
X1678Y362D01*
X1686Y362D01*
X1686Y360D01*
X1692Y360D01*
X1692Y358D01*
X1696Y358D01*
X1696Y356D01*
X1698Y356D01*
X1698Y354D01*
X1702Y354D01*
X1702Y352D01*
X1704Y352D01*
X1704Y350D01*
X1706Y350D01*
X1706Y348D01*
X1708Y348D01*
X1708Y346D01*
X1710Y346D01*
X1710Y344D01*
X1712Y344D01*
X1712Y342D01*
X1714Y342D01*
X1714Y338D01*
X1734Y338D01*
X1734Y340D01*
X1736Y340D01*
X1736Y342D01*
X1738Y342D01*
X1738Y344D01*
X1740Y344D01*
X1740Y348D01*
X1742Y348D01*
X1742Y350D01*
X1746Y350D01*
X1746Y352D01*
X1748Y352D01*
X1748Y354D01*
X1750Y354D01*
X1750Y356D01*
X1754Y356D01*
X1754Y358D01*
X1758Y358D01*
X1758Y360D01*
X1762Y360D01*
X1762Y362D01*
X1772Y362D01*
X1772Y364D01*
X1678Y364D01*
G37*
D02*
G36*
X1778Y364D02*
X1778Y362D01*
X1786Y362D01*
X1786Y360D01*
X1792Y360D01*
X1792Y358D01*
X1796Y358D01*
X1796Y356D01*
X1798Y356D01*
X1798Y354D01*
X1802Y354D01*
X1802Y352D01*
X1804Y352D01*
X1804Y350D01*
X1806Y350D01*
X1806Y348D01*
X1808Y348D01*
X1808Y346D01*
X1810Y346D01*
X1810Y344D01*
X1812Y344D01*
X1812Y342D01*
X1814Y342D01*
X1814Y338D01*
X1834Y338D01*
X1834Y340D01*
X1836Y340D01*
X1836Y342D01*
X1838Y342D01*
X1838Y344D01*
X1840Y344D01*
X1840Y348D01*
X1842Y348D01*
X1842Y350D01*
X1846Y350D01*
X1846Y352D01*
X1848Y352D01*
X1848Y354D01*
X1850Y354D01*
X1850Y356D01*
X1854Y356D01*
X1854Y358D01*
X1858Y358D01*
X1858Y360D01*
X1862Y360D01*
X1862Y362D01*
X1872Y362D01*
X1872Y364D01*
X1778Y364D01*
G37*
D02*
G36*
X1878Y364D02*
X1878Y362D01*
X1886Y362D01*
X1886Y360D01*
X1892Y360D01*
X1892Y358D01*
X1896Y358D01*
X1896Y356D01*
X1898Y356D01*
X1898Y354D01*
X1902Y354D01*
X1902Y352D01*
X1904Y352D01*
X1904Y350D01*
X1906Y350D01*
X1906Y348D01*
X1908Y348D01*
X1908Y346D01*
X1910Y346D01*
X1910Y344D01*
X1912Y344D01*
X1912Y342D01*
X1914Y342D01*
X1914Y338D01*
X1934Y338D01*
X1934Y340D01*
X1936Y340D01*
X1936Y342D01*
X1938Y342D01*
X1938Y344D01*
X1940Y344D01*
X1940Y348D01*
X1942Y348D01*
X1942Y350D01*
X1946Y350D01*
X1946Y352D01*
X1948Y352D01*
X1948Y354D01*
X1950Y354D01*
X1950Y356D01*
X1954Y356D01*
X1954Y358D01*
X1958Y358D01*
X1958Y360D01*
X1962Y360D01*
X1962Y362D01*
X1972Y362D01*
X1972Y364D01*
X1878Y364D01*
G37*
D02*
G36*
X1314Y190D02*
X1314Y188D01*
X1312Y188D01*
X1312Y184D01*
X1310Y184D01*
X1310Y182D01*
X1308Y182D01*
X1308Y180D01*
X1304Y180D01*
X1304Y178D01*
X1302Y178D01*
X1302Y176D01*
X1300Y176D01*
X1300Y174D01*
X1298Y174D01*
X1298Y166D01*
X1370Y166D01*
X1370Y168D01*
X1362Y168D01*
X1362Y170D01*
X1356Y170D01*
X1356Y172D01*
X1352Y172D01*
X1352Y174D01*
X1350Y174D01*
X1350Y176D01*
X1346Y176D01*
X1346Y178D01*
X1344Y178D01*
X1344Y180D01*
X1342Y180D01*
X1342Y182D01*
X1340Y182D01*
X1340Y184D01*
X1338Y184D01*
X1338Y186D01*
X1336Y186D01*
X1336Y190D01*
X1314Y190D01*
G37*
D02*
G36*
X1414Y190D02*
X1414Y188D01*
X1412Y188D01*
X1412Y184D01*
X1410Y184D01*
X1410Y182D01*
X1408Y182D01*
X1408Y180D01*
X1404Y180D01*
X1404Y178D01*
X1402Y178D01*
X1402Y176D01*
X1400Y176D01*
X1400Y174D01*
X1396Y174D01*
X1396Y172D01*
X1392Y172D01*
X1392Y170D01*
X1388Y170D01*
X1388Y168D01*
X1380Y168D01*
X1380Y166D01*
X1470Y166D01*
X1470Y168D01*
X1462Y168D01*
X1462Y170D01*
X1456Y170D01*
X1456Y172D01*
X1452Y172D01*
X1452Y174D01*
X1450Y174D01*
X1450Y176D01*
X1446Y176D01*
X1446Y178D01*
X1444Y178D01*
X1444Y180D01*
X1442Y180D01*
X1442Y182D01*
X1440Y182D01*
X1440Y184D01*
X1438Y184D01*
X1438Y186D01*
X1436Y186D01*
X1436Y190D01*
X1414Y190D01*
G37*
D02*
G36*
X1514Y190D02*
X1514Y188D01*
X1512Y188D01*
X1512Y184D01*
X1510Y184D01*
X1510Y182D01*
X1508Y182D01*
X1508Y180D01*
X1504Y180D01*
X1504Y178D01*
X1502Y178D01*
X1502Y176D01*
X1500Y176D01*
X1500Y174D01*
X1496Y174D01*
X1496Y172D01*
X1492Y172D01*
X1492Y170D01*
X1488Y170D01*
X1488Y168D01*
X1480Y168D01*
X1480Y166D01*
X1570Y166D01*
X1570Y168D01*
X1562Y168D01*
X1562Y170D01*
X1556Y170D01*
X1556Y172D01*
X1552Y172D01*
X1552Y174D01*
X1550Y174D01*
X1550Y176D01*
X1546Y176D01*
X1546Y178D01*
X1544Y178D01*
X1544Y180D01*
X1542Y180D01*
X1542Y182D01*
X1540Y182D01*
X1540Y184D01*
X1538Y184D01*
X1538Y186D01*
X1536Y186D01*
X1536Y190D01*
X1514Y190D01*
G37*
D02*
G36*
X1614Y190D02*
X1614Y188D01*
X1612Y188D01*
X1612Y184D01*
X1610Y184D01*
X1610Y182D01*
X1608Y182D01*
X1608Y180D01*
X1604Y180D01*
X1604Y178D01*
X1602Y178D01*
X1602Y176D01*
X1600Y176D01*
X1600Y174D01*
X1596Y174D01*
X1596Y172D01*
X1592Y172D01*
X1592Y170D01*
X1588Y170D01*
X1588Y168D01*
X1580Y168D01*
X1580Y166D01*
X1670Y166D01*
X1670Y168D01*
X1662Y168D01*
X1662Y170D01*
X1656Y170D01*
X1656Y172D01*
X1652Y172D01*
X1652Y174D01*
X1650Y174D01*
X1650Y176D01*
X1646Y176D01*
X1646Y178D01*
X1644Y178D01*
X1644Y180D01*
X1642Y180D01*
X1642Y182D01*
X1640Y182D01*
X1640Y184D01*
X1638Y184D01*
X1638Y186D01*
X1636Y186D01*
X1636Y190D01*
X1614Y190D01*
G37*
D02*
G36*
X1714Y190D02*
X1714Y188D01*
X1712Y188D01*
X1712Y184D01*
X1710Y184D01*
X1710Y182D01*
X1708Y182D01*
X1708Y180D01*
X1704Y180D01*
X1704Y178D01*
X1702Y178D01*
X1702Y176D01*
X1700Y176D01*
X1700Y174D01*
X1696Y174D01*
X1696Y172D01*
X1692Y172D01*
X1692Y170D01*
X1688Y170D01*
X1688Y168D01*
X1680Y168D01*
X1680Y166D01*
X1770Y166D01*
X1770Y168D01*
X1762Y168D01*
X1762Y170D01*
X1756Y170D01*
X1756Y172D01*
X1752Y172D01*
X1752Y174D01*
X1750Y174D01*
X1750Y176D01*
X1746Y176D01*
X1746Y178D01*
X1744Y178D01*
X1744Y180D01*
X1742Y180D01*
X1742Y182D01*
X1740Y182D01*
X1740Y184D01*
X1738Y184D01*
X1738Y186D01*
X1736Y186D01*
X1736Y190D01*
X1714Y190D01*
G37*
D02*
G36*
X1814Y190D02*
X1814Y188D01*
X1812Y188D01*
X1812Y184D01*
X1810Y184D01*
X1810Y182D01*
X1808Y182D01*
X1808Y180D01*
X1804Y180D01*
X1804Y178D01*
X1802Y178D01*
X1802Y176D01*
X1800Y176D01*
X1800Y174D01*
X1796Y174D01*
X1796Y172D01*
X1792Y172D01*
X1792Y170D01*
X1788Y170D01*
X1788Y168D01*
X1780Y168D01*
X1780Y166D01*
X1870Y166D01*
X1870Y168D01*
X1862Y168D01*
X1862Y170D01*
X1856Y170D01*
X1856Y172D01*
X1852Y172D01*
X1852Y174D01*
X1850Y174D01*
X1850Y176D01*
X1846Y176D01*
X1846Y178D01*
X1844Y178D01*
X1844Y180D01*
X1842Y180D01*
X1842Y182D01*
X1840Y182D01*
X1840Y184D01*
X1838Y184D01*
X1838Y186D01*
X1836Y186D01*
X1836Y190D01*
X1814Y190D01*
G37*
D02*
G36*
X1914Y190D02*
X1914Y188D01*
X1912Y188D01*
X1912Y184D01*
X1910Y184D01*
X1910Y182D01*
X1908Y182D01*
X1908Y180D01*
X1904Y180D01*
X1904Y178D01*
X1902Y178D01*
X1902Y176D01*
X1900Y176D01*
X1900Y174D01*
X1896Y174D01*
X1896Y172D01*
X1892Y172D01*
X1892Y170D01*
X1888Y170D01*
X1888Y168D01*
X1880Y168D01*
X1880Y166D01*
X1970Y166D01*
X1970Y168D01*
X1962Y168D01*
X1962Y170D01*
X1956Y170D01*
X1956Y172D01*
X1952Y172D01*
X1952Y174D01*
X1950Y174D01*
X1950Y176D01*
X1946Y176D01*
X1946Y178D01*
X1944Y178D01*
X1944Y180D01*
X1942Y180D01*
X1942Y182D01*
X1940Y182D01*
X1940Y184D01*
X1938Y184D01*
X1938Y186D01*
X1936Y186D01*
X1936Y190D01*
X1914Y190D01*
G37*
D02*
G36*
X1298Y166D02*
X1298Y164D01*
X2186Y164D01*
X2186Y166D01*
X1298Y166D01*
G37*
D02*
G36*
X1298Y166D02*
X1298Y164D01*
X2186Y164D01*
X2186Y166D01*
X1298Y166D01*
G37*
D02*
G36*
X1298Y166D02*
X1298Y164D01*
X2186Y164D01*
X2186Y166D01*
X1298Y166D01*
G37*
D02*
G36*
X1298Y166D02*
X1298Y164D01*
X2186Y164D01*
X2186Y166D01*
X1298Y166D01*
G37*
D02*
G36*
X1298Y166D02*
X1298Y164D01*
X2186Y164D01*
X2186Y166D01*
X1298Y166D01*
G37*
D02*
G36*
X1298Y166D02*
X1298Y164D01*
X2186Y164D01*
X2186Y166D01*
X1298Y166D01*
G37*
D02*
G36*
X1298Y166D02*
X1298Y164D01*
X2186Y164D01*
X2186Y166D01*
X1298Y166D01*
G37*
D02*
G36*
X1298Y166D02*
X1298Y164D01*
X2186Y164D01*
X2186Y166D01*
X1298Y166D01*
G37*
D02*
G36*
X1298Y164D02*
X1298Y102D01*
X1296Y102D01*
X1296Y96D01*
X1294Y96D01*
X1294Y94D01*
X1292Y94D01*
X1292Y90D01*
X1288Y90D01*
X1288Y88D01*
X1286Y88D01*
X1286Y86D01*
X1280Y86D01*
X1280Y84D01*
X2186Y84D01*
X2186Y164D01*
X1298Y164D01*
G37*
D02*
G36*
X40Y134D02*
X40Y104D01*
X404Y104D01*
X404Y102D01*
X414Y102D01*
X414Y100D01*
X420Y100D01*
X420Y98D01*
X422Y98D01*
X422Y96D01*
X426Y96D01*
X426Y94D01*
X428Y94D01*
X428Y92D01*
X432Y92D01*
X432Y90D01*
X434Y90D01*
X434Y88D01*
X436Y88D01*
X436Y86D01*
X438Y86D01*
X438Y82D01*
X440Y82D01*
X440Y80D01*
X442Y80D01*
X442Y76D01*
X444Y76D01*
X444Y74D01*
X446Y74D01*
X446Y68D01*
X528Y68D01*
X528Y116D01*
X524Y116D01*
X524Y118D01*
X520Y118D01*
X520Y120D01*
X516Y120D01*
X516Y122D01*
X512Y122D01*
X512Y124D01*
X508Y124D01*
X508Y126D01*
X504Y126D01*
X504Y128D01*
X500Y128D01*
X500Y130D01*
X496Y130D01*
X496Y132D01*
X492Y132D01*
X492Y134D01*
X40Y134D01*
G37*
D02*
G36*
X40Y104D02*
X40Y40D01*
X178Y40D01*
X178Y68D01*
X180Y68D01*
X180Y72D01*
X182Y72D01*
X182Y76D01*
X184Y76D01*
X184Y80D01*
X186Y80D01*
X186Y82D01*
X188Y82D01*
X188Y84D01*
X190Y84D01*
X190Y88D01*
X192Y88D01*
X192Y90D01*
X196Y90D01*
X196Y92D01*
X198Y92D01*
X198Y94D01*
X200Y94D01*
X200Y96D01*
X204Y96D01*
X204Y98D01*
X208Y98D01*
X208Y100D01*
X212Y100D01*
X212Y102D01*
X222Y102D01*
X222Y104D01*
X40Y104D01*
G37*
D02*
G36*
X228Y104D02*
X228Y102D01*
X236Y102D01*
X236Y100D01*
X242Y100D01*
X242Y98D01*
X246Y98D01*
X246Y96D01*
X248Y96D01*
X248Y94D01*
X252Y94D01*
X252Y92D01*
X254Y92D01*
X254Y90D01*
X256Y90D01*
X256Y88D01*
X258Y88D01*
X258Y86D01*
X260Y86D01*
X260Y84D01*
X262Y84D01*
X262Y82D01*
X264Y82D01*
X264Y78D01*
X266Y78D01*
X266Y74D01*
X268Y74D01*
X268Y70D01*
X270Y70D01*
X270Y64D01*
X272Y64D01*
X272Y40D01*
X354Y40D01*
X354Y62D01*
X356Y62D01*
X356Y70D01*
X358Y70D01*
X358Y74D01*
X360Y74D01*
X360Y78D01*
X362Y78D01*
X362Y80D01*
X364Y80D01*
X364Y84D01*
X366Y84D01*
X366Y86D01*
X368Y86D01*
X368Y88D01*
X370Y88D01*
X370Y90D01*
X372Y90D01*
X372Y92D01*
X374Y92D01*
X374Y94D01*
X378Y94D01*
X378Y96D01*
X380Y96D01*
X380Y98D01*
X384Y98D01*
X384Y100D01*
X390Y100D01*
X390Y102D01*
X400Y102D01*
X400Y104D01*
X228Y104D01*
G37*
D02*
G36*
X622Y92D02*
X622Y84D01*
X1254Y84D01*
X1254Y86D01*
X1096Y86D01*
X1096Y88D01*
X938Y88D01*
X938Y90D01*
X780Y90D01*
X780Y92D01*
X622Y92D01*
G37*
D02*
G36*
X622Y84D02*
X622Y82D01*
X2186Y82D01*
X2186Y84D01*
X622Y84D01*
G37*
D02*
G36*
X622Y84D02*
X622Y82D01*
X2186Y82D01*
X2186Y84D01*
X622Y84D01*
G37*
D02*
G36*
X622Y82D02*
X622Y68D01*
X2186Y68D01*
X2186Y82D01*
X622Y82D01*
G37*
D02*
G36*
X448Y68D02*
X448Y66D01*
X2186Y66D01*
X2186Y68D01*
X448Y68D01*
G37*
D02*
G36*
X448Y68D02*
X448Y66D01*
X2186Y66D01*
X2186Y68D01*
X448Y68D01*
G37*
D02*
G36*
X448Y66D02*
X448Y60D01*
X450Y60D01*
X450Y40D01*
X2186Y40D01*
X2186Y66D01*
X448Y66D01*
G37*
D02*
G04 End of Copper0*
M02*