M48
INCH
T10C0.039370
T11C0.035000
T12C0.038000
T13C0.030000
%
T10
X001246Y002457
X001246Y003457
X001246Y004457
X001246Y005457
X001246Y006457
X001246Y007457
T11
X002246Y000557
X002246Y003116
X004018Y000557
X004018Y003116
X021246Y004157
X021246Y005157
X021246Y006157
X005746Y003157
X005746Y001157
X019746Y006157
X019746Y003157
X018746Y006157
X018746Y003157
X017746Y006157
X017746Y003157
X016746Y006157
X016746Y003157
X015746Y006157
X015746Y003157
X014746Y006157
X014746Y003157
X013746Y006157
X013746Y003157
X012746Y006157
X012746Y003157
X011746Y006157
X011746Y003157
X010746Y006157
X010746Y003157
X009746Y006157
X009746Y003157
X008746Y006157
X008746Y003157
X007746Y006157
X007746Y003157
X006746Y006157
X006746Y003157
T12
X019746Y007157
X018746Y007157
X017746Y007157
X016746Y007157
X015746Y007157
X014746Y007157
X013746Y007157
X012746Y007157
X011746Y007157
X010746Y007157
X009746Y007157
X008746Y007157
X007746Y007157
X006746Y007157
X019746Y002157
X018746Y002157
X017746Y002157
X016746Y002157
X015746Y002157
X014746Y002157
X013746Y002157
X012746Y002157
X011746Y002157
X010746Y002157
X009746Y002157
X008746Y002157
X007746Y002157
X006746Y002157
T13
X004946Y003157
X004946Y005157
T00
M30
