M48
INCH
T10C0.038000
T11C0.035000
T12C0.015748
T13C0.030000
%
T10
X023335Y008105
X022335Y008105
X021335Y008105
X020335Y008105
X019335Y008105
X018335Y008105
X017335Y008105
X016335Y008105
X015335Y008105
X014335Y008105
X013335Y008105
X012335Y008105
X011335Y008105
X010335Y008105
X023335Y002105
X022335Y002105
X021335Y002105
X020335Y002105
X019335Y002105
X018335Y002105
X017335Y002105
X016335Y002105
X015335Y002105
X014335Y002105
X013335Y002105
X012335Y002105
X011335Y002105
X010335Y002105
X001335Y003105
X001335Y004105
X001335Y005105
X001335Y006105
X001335Y007105
X001335Y008105
T11
X003335Y001605
X003335Y004164
X005106Y001605
X005106Y004164
X024835Y004605
X024835Y005605
X024835Y006605
X008335Y001605
X008335Y000605
X023335Y006605
X023335Y003605
X022335Y006605
X022335Y003605
X021335Y006605
X021335Y003605
X020335Y006605
X020335Y003605
X019335Y006605
X019335Y003605
X018335Y006605
X018335Y003605
X017335Y006605
X017335Y003605
X016335Y006605
X016335Y003605
X015335Y006605
X015335Y003605
X014335Y006605
X014335Y003605
X013335Y006605
X013335Y003605
X012335Y006605
X012335Y003605
X011335Y006605
X011335Y003605
X010335Y006605
X010335Y003605
T12
X005853Y004605
X002835Y005605
T13
X007335Y001605
X007335Y003605
T00
M30
